<?xml version="1.0" encoding="utf-8"?>
<!-- Generator: Adobe Illustrator 19.0.0, SVG Export Plug-In . SVG Version: 6.00 Build 0)  -->
<svg version="1.1" id="Layer_1" xmlns="http://www.w3.org/2000/svg" xmlns:xlink="http://www.w3.org/1999/xlink" x="0px" y="0px"
	 viewBox="-228 29 503 503" style="enable-background:new -228 29 503 503;" xml:space="preserve">
<style type="text/css">
	.st0{fill:#9E5AFF;}
	.st1{fill:#AF88ED;}
	.st2{fill:#CAD9FC;}
	.st3{fill:#D3DFF2;}
	.st4{fill:#D8E1F2;}
	.st5{fill:#DCE3F2;}
	.st6{fill:#E0E5F2;}
	.st7{fill:#E4E7F2;}
	.st8{fill:#E7E8F2;}
	.st9{fill:#EAEAF2;}
	.st10{fill:#EDEBF2;}
	.st11{fill:#EFECF2;}
	.st12{fill:#F1EDF2;}
	.st13{fill:#F3EEF2;}
	.st14{fill:#F5EEF2;}
	.st15{fill:#F6EFF2;}
	.st16{fill:#F8F0F2;}
	.st17{fill:#F9F0F2;}
	.st18{fill:#FAF1F2;}
	.st19{fill:#FBF1F2;}
	.st20{fill:#FCF2F2;}
	.st21{fill:#FDF2F2;}
	.st22{fill:#FEF2F2;}
	.st23{fill:#FEF3F2;}
	.st24{fill:#FFF3F2;}
	.st25{fill:#F2EDF2;}
	.st26{fill:#EEEBF2;}
	.st27{fill:#EBEAF2;}
	.st28{fill:#E8E8F2;}
	.st29{fill:#E5E7F2;}
	.st30{fill:#E3E6F2;}
	.st31{fill:#E1E5F2;}
	.st32{fill:#DFE4F2;}
	.st33{fill:#DDE4F2;}
	.st34{fill:#DAE2F2;}
	.st35{fill:#D9E2F2;}
	.st36{fill:#D7E1F2;}
	.st37{fill:#D6E0F2;}
	.st38{fill:#D5E0F2;}
	.st39{fill:#D4E0F2;}
	.st40{fill:#D4DFF2;}
	.st41{fill:#DBE3F2;}
	.st42{fill:#DEE4F2;}
	.st43{fill:#DFE5F2;}
	.st44{fill:#E1E6F2;}
	.st45{fill:#E2E6F2;}
	.st46{fill:#E6E8F2;}
	.st47{fill:#E8E9F2;}
	.st48{fill:#EAE9F2;}
	.st49{fill:#ECEAF2;}
	.st50{fill:#F0ECF2;}
	.st51{fill:#F1ECF2;}
	.st52{fill:#F3EDF2;}
	.st53{fill:#F4EEF2;}
	.st54{fill:#F7EFF2;}
	.st55{fill:#FFFFFF;}
	.st56{fill:#7600FF;}
</style>
<path class="st0" d="M241.2,172.4v322.6h-435.7V172.4c0-8.9,3.5-17.4,9.8-23.7c6.3-6.3,14.8-9.8,23.7-9.8H40.5l183.1,4
	C234.4,148.7,241.2,160,241.2,172.4z"/>
<path class="st1" d="M216,172.4v322.6h-410.5V172.4c0-8.9,3.5-17.4,9.8-23.7c6.3-6.3,14.8-9.8,23.7-9.8H15.4l183.1,4
	C209.3,148.7,216,160,216,172.4z"/>
<path class="st2" d="M241.2,172.4v268.1h-435.7V172.4c0-8.9,3.5-17.4,9.8-23.7c6.3-6.3,14.8-9.8,23.7-9.8H40.5l183.1,4
	C234.4,148.7,241.2,160,241.2,172.4z"/>
<path class="st0" d="M-158.9,138.8c-19.1-0.6-35,14.4-35.6,33.5v130.1l163.6-163.6H-158.9z"/>
<path class="st3" d="M-30.9,138.8l-163.6,163.6v0.1L-30.9,138.8L-30.9,138.8z"/>
<path class="st4" d="M-30.8,138.8l-163.7,163.7v0.1L-30.8,138.8L-30.8,138.8z"/>
<path class="st5" d="M-30.7,138.8l-163.8,163.8v0.1L-30.7,138.8L-30.7,138.8z"/>
<path class="st6" d="M-30.6,138.8l-163.9,163.9v0.1L-30.6,138.8L-30.6,138.8z"/>
<path class="st7" d="M-30.5,138.8l-163.9,163.9v0.1L-30.5,138.8L-30.5,138.8z"/>
<path class="st8" d="M-30.5,138.8l-164,164v0.1L-30.5,138.8L-30.5,138.8z"/>
<path class="st9" d="M-30.4,138.8l-164.1,164.1v0.1L-30.4,138.8L-30.4,138.8z"/>
<path class="st10" d="M-30.3,138.8L-194.5,303v0.1L-30.3,138.8L-30.3,138.8z"/>
<path class="st11" d="M-30.2,138.8l-164.3,164.3v0.1L-30.2,138.8L-30.2,138.8z"/>
<path class="st12" d="M-30.1,138.8l-164.3,164.3v0.1L-30.1,138.8L-30.1,138.8z"/>
<path class="st13" d="M-30.1,138.8l-164.4,164.4v0.1L-30.1,138.8L-30.1,138.8z"/>
<path class="st14" d="M-30,138.8l-164.5,164.5v0.1L-30,138.8L-30,138.8z"/>
<path class="st15" d="M-29.9,138.8l-164.6,164.6v0.1L-29.9,138.8L-29.9,138.8z"/>
<path class="st16" d="M-29.8,138.8l-164.7,164.7v0.1L-29.8,138.8L-29.8,138.8z"/>
<path class="st17" d="M-29.7,138.8l-164.7,164.7v0.1L-29.7,138.8L-29.7,138.8z"/>
<path class="st18" d="M-29.7,138.8l-164.8,164.8v0.1L-29.7,138.8L-29.7,138.8z"/>
<path class="st19" d="M-29.6,138.8l-164.9,164.9v0.1L-29.6,138.8L-29.6,138.8z"/>
<path class="st19" d="M-29.5,138.8l-165,165v0.1L-29.5,138.8L-29.5,138.8z"/>
<path class="st20" d="M-29.4,138.8l-165.1,165.1v0.1L-29.4,138.8L-29.4,138.8z"/>
<path class="st21" d="M-29.3,138.8L-194.5,304v0.1L-29.3,138.8L-29.3,138.8z"/>
<path class="st21" d="M-29.3,138.8l-165.2,165.2v0.1L-29.3,138.8L-29.3,138.8z"/>
<path class="st21" d="M-29.2,138.8l-165.3,165.3v0.1L-29.2,138.8L-29.2,138.8z"/>
<path class="st22" d="M-29.1,138.8l-165.4,165.4v0.1L-29.1,138.8L-29.1,138.8z"/>
<path class="st23" d="M-29,138.8l-165.5,165.5v0.1L-29,138.8L-29,138.8z"/>
<path class="st23" d="M-28.9,138.8l-165.6,165.6v0.1L-28.9,138.8L-28.9,138.8z"/>
<path class="st23" d="M-28.9,138.8l-165.6,165.6v0.1L-28.9,138.8L-28.9,138.8z"/>
<path class="st24" d="M-28.8,138.8l-165.7,165.7v0.1L-28.8,138.8L-28.8,138.8z"/>
<path class="st24" d="M-28.7,138.8l-165.8,165.8v0.1L-28.7,138.8L-28.7,138.8z"/>
<path class="st24" d="M-28.6,138.8l-165.9,165.9v0.1L-28.6,138.8L-28.6,138.8z"/>
<path class="st24" d="M-28.5,138.8l-166,166v0.1L-28.5,138.8L-28.5,138.8z"/>
<path class="st24" d="M-28.5,138.8l-166,166v0.1L-28.5,138.8L-28.5,138.8z"/>
<path class="st24" d="M-28.4,138.8L-194.5,305v0.1L-28.4,138.8L-28.4,138.8z"/>
<path class="st24" d="M-28.3,138.8L-194.5,305v0.1L-28.3,138.8L-28.3,138.8z"/>
<path class="st24" d="M-28.2,138.8l-166.3,166.3v0.1L-28.2,138.8L-28.2,138.8z"/>
<path class="st24" d="M-28.1,138.8l-166.4,166.4v0.1L-28.1,138.8L-28.1,138.8z"/>
<path class="st24" d="M-28.1,138.8l-166.4,166.4v0.1L-28.1,138.8L-28.1,138.8z"/>
<path class="st24" d="M-28,138.8l-166.5,166.5v0.1L-28,138.8L-28,138.8z"/>
<path class="st24" d="M-27.9,138.8l-166.6,166.6v0.1L-27.9,138.8L-27.9,138.8z"/>
<path class="st24" d="M-27.8,138.8l-166.7,166.7v0.1L-27.8,138.8L-27.8,138.8z"/>
<path class="st24" d="M-27.7,138.8l-166.8,166.8v0.1L-27.7,138.8L-27.7,138.8z"/>
<path class="st24" d="M-27.6,138.8l-166.8,166.8v0.1L-27.6,138.8L-27.6,138.8z"/>
<path class="st24" d="M-27.6,138.8l-166.9,166.9v0.1L-27.6,138.8L-27.6,138.8z"/>
<path class="st24" d="M-27.5,138.8l-167,167v0.1L-27.5,138.8L-27.5,138.8z"/>
<path class="st24" d="M-27.4,138.8l-167.1,167.1v0.1L-27.4,138.8L-27.4,138.8z"/>
<path class="st24" d="M-27.3,138.8L-194.5,306v39.5L12.2,138.8H-27.3z"/>
<path class="st0" d="M28.2,138.8H12.2l-206.6,206.6v95h19.8l299.6-299.6L28.2,138.8z"/>
<path class="st3" d="M124.9,140.8l-299.6,299.6h0.1L124.9,140.8L124.9,140.8z"/>
<path class="st4" d="M125,140.8l-299.6,299.6h0.1L125,140.8L125,140.8z"/>
<path class="st5" d="M125,140.8l-299.6,299.6h0.1L125,140.8L125,140.8z"/>
<path class="st6" d="M125.1,140.8l-299.6,299.6h0.1L125.1,140.8L125.1,140.8z"/>
<path class="st7" d="M125.2,140.9l-299.6,299.6h0.1L125.2,140.9L125.2,140.9z"/>
<path class="st8" d="M125.3,140.9l-299.6,299.6h0.1L125.3,140.9L125.3,140.9z"/>
<path class="st9" d="M125.4,140.9l-299.6,299.6h0.1L125.4,140.9L125.4,140.9z"/>
<path class="st10" d="M125.4,140.9l-299.6,299.6h0.1L125.4,140.9L125.4,140.9z"/>
<path class="st11" d="M125.5,140.9l-299.6,299.6h0.1L125.5,140.9L125.5,140.9z"/>
<path class="st12" d="M125.6,140.9L-174,440.4h0.1L125.6,140.9L125.6,140.9z"/>
<path class="st13" d="M125.7,140.9l-299.6,299.6h0.1L125.7,140.9L125.7,140.9z"/>
<path class="st14" d="M125.8,140.9l-299.6,299.6h0.1L125.8,140.9L125.8,140.9z"/>
<path class="st15" d="M125.8,140.9l-299.6,299.6h0.1L125.8,140.9L125.8,140.9z"/>
<path class="st16" d="M125.9,140.9l-299.6,299.6h0.1L125.9,140.9L125.9,140.9z"/>
<path class="st17" d="M126,140.9l-299.6,299.6h0.1L126,140.9L126,140.9z"/>
<path class="st18" d="M126.1,140.9l-299.6,299.6h0.1L126.1,140.9L126.1,140.9z"/>
<path class="st19" d="M126.1,140.9l-299.6,299.6h0.1L126.1,140.9L126.1,140.9z"/>
<path class="st19" d="M126.2,140.9l-299.6,299.6h0.1L126.2,140.9L126.2,140.9z"/>
<path class="st20" d="M126.3,140.9l-299.6,299.6h0.1L126.3,140.9L126.3,140.9z"/>
<path class="st21" d="M126.4,140.9l-299.6,299.6h0.1L126.4,140.9L126.4,140.9z"/>
<path class="st21" d="M126.5,140.9l-299.6,299.6h0.1L126.5,140.9L126.5,140.9z"/>
<path class="st21" d="M126.5,140.9L-173,440.4h0.1L126.5,140.9L126.5,140.9z"/>
<path class="st22" d="M126.6,140.9l-299.6,299.6h0.1L126.6,140.9L126.6,140.9z"/>
<path class="st23" d="M126.7,140.9l-299.6,299.6h0.1L126.7,140.9L126.7,140.9z"/>
<path class="st23" d="M126.8,140.9l-299.6,299.6h0.1L126.8,140.9L126.8,140.9z"/>
<path class="st23" d="M126.9,140.9l-299.6,299.6h0.1L126.9,140.9L126.9,140.9z"/>
<path class="st24" d="M126.9,140.9l-299.6,299.6h0.1L126.9,140.9L126.9,140.9z"/>
<path class="st24" d="M127,140.9l-299.6,299.6h0.1L127,140.9L127,140.9z"/>
<path class="st24" d="M127.1,140.9l-299.6,299.6h0.1L127.1,140.9L127.1,140.9z"/>
<path class="st24" d="M127.2,140.9l-299.6,299.6h0.1L127.2,140.9L127.2,140.9z"/>
<path class="st24" d="M127.3,140.9l-299.6,299.6h0.1L127.3,140.9L127.3,140.9z"/>
<path class="st24" d="M127.3,140.9l-299.6,299.6h0.1L127.3,140.9L127.3,140.9z"/>
<path class="st24" d="M127.4,140.9l-299.6,299.6h0.1L127.4,140.9L127.4,140.9z"/>
<path class="st24" d="M127.5,140.9l-299.5,299.6h0.1L127.5,140.9L127.5,140.9z"/>
<path class="st24" d="M127.6,140.9L-172,440.4h0.1L127.6,140.9L127.6,140.9z"/>
<path class="st24" d="M127.6,140.9l-299.5,299.5h0.1L127.6,140.9L127.6,140.9z"/>
<path class="st24" d="M127.7,140.9l-299.6,299.5h0.1L127.7,140.9L127.7,140.9z"/>
<path class="st24" d="M127.8,140.9l-299.5,299.5h0.1L127.8,140.9L127.8,140.9z"/>
<path class="st24" d="M127.9,140.9l-299.5,299.5h0.1L127.9,140.9L127.9,140.9z"/>
<path class="st24" d="M128,140.9l-299.5,299.5h0.1L128,140.9L128,140.9z"/>
<path class="st24" d="M128,140.9l-299.5,299.5h0.1L128,140.9L128,140.9z"/>
<path class="st24" d="M128.1,140.9l-299.5,299.5h0.1L128.1,140.9L128.1,140.9z"/>
<path class="st24" d="M128.2,140.9l-299.5,299.5h0.1L128.2,140.9L128.2,140.9z"/>
<path class="st24" d="M128.3,140.9l-299.5,299.5h0.1L128.3,140.9L128.3,140.9z"/>
<path class="st24" d="M128.4,140.9l-299.5,299.5h53.8L181.1,142L128.4,140.9z"/>
<path class="st24" d="M181.1,142l-298.4,298.4h0L181.1,142L181.1,142z"/>
<path class="st18" d="M181.1,142l-298.4,298.4h0L181.1,142L181.1,142z"/>
<path class="st15" d="M181.1,142l-298.4,298.4h0L181.1,142L181.1,142z"/>
<path class="st25" d="M181.1,142l-298.4,298.4h0L181.1,142L181.1,142z"/>
<path class="st26" d="M181.1,142l-298.4,298.4h0L181.1,142L181.1,142z"/>
<path class="st27" d="M181.2,142l-298.4,298.4h0L181.2,142L181.2,142z"/>
<path class="st28" d="M181.2,142l-298.4,298.4h0L181.2,142L181.2,142z"/>
<path class="st29" d="M181.2,142l-298.4,298.4h0L181.2,142L181.2,142z"/>
<path class="st30" d="M181.2,142l-298.4,298.4h0L181.2,142L181.2,142z"/>
<path class="st31" d="M181.2,142l-298.4,298.4h0L181.2,142L181.2,142z"/>
<path class="st32" d="M181.2,142l-298.4,298.4h0L181.2,142L181.2,142z"/>
<path class="st33" d="M181.3,142l-298.4,298.4h0L181.3,142L181.3,142z"/>
<path class="st5" d="M181.3,142l-298.4,298.4h0L181.3,142L181.3,142z"/>
<path class="st34" d="M181.3,142l-298.4,298.4h0L181.3,142L181.3,142z"/>
<path class="st35" d="M181.3,142l-298.4,298.4h0L181.3,142L181.3,142z"/>
<path class="st4" d="M181.3,142l-298.4,298.4h0L181.3,142L181.3,142z"/>
<path class="st36" d="M181.3,142l-298.4,298.4h0L181.3,142L181.3,142z"/>
<path class="st36" d="M181.4,142l-298.4,298.4h0L181.4,142L181.4,142z"/>
<path class="st37" d="M181.4,142l-298.4,298.4h0L181.4,142L181.4,142z"/>
<path class="st38" d="M181.4,142L-117,440.4h0L181.4,142L181.4,142z"/>
<path class="st38" d="M181.4,142L-117,440.4h0L181.4,142L181.4,142z"/>
<path class="st38" d="M181.4,142L-117,440.4h0L181.4,142L181.4,142z"/>
<path class="st39" d="M181.4,142L-117,440.4h0L181.4,142L181.4,142z"/>
<path class="st40" d="M181.4,142L-117,440.4h0L181.4,142L181.4,142z"/>
<path class="st40" d="M181.5,142L-117,440.4h0L181.5,142L181.5,142z"/>
<path class="st40" d="M181.5,142L-117,440.4h0L181.5,142L181.5,142z"/>
<g>
	<path class="st0" d="M181.5,142l-298.4,298.4h0L181.5,142L181.5,142z"/>
	<path class="st0" d="M181.5,142l-298.4,298.4h0L181.5,142L181.5,142z"/>
	<path class="st0" d="M181.5,142l-298.4,298.4h0L181.5,142L181.5,142z"/>
	<path class="st0" d="M181.5,142l-298.4,298.4h0L181.5,142L181.5,142z"/>
	<path class="st0" d="M181.6,142l-298.4,298.4h0L181.6,142L181.6,142z"/>
	<path class="st0" d="M181.6,142l-298.4,298.4h0L181.6,142L181.6,142z"/>
	<path class="st0" d="M181.6,142l-298.4,298.4h0L181.6,142L181.6,142z"/>
	<path class="st0" d="M181.6,142l-298.4,298.4h0L181.6,142L181.6,142z"/>
	<path class="st0" d="M181.6,142l-298.4,298.4h0L181.6,142L181.6,142z"/>
	<path class="st0" d="M181.6,142l-298.4,298.4h0L181.6,142L181.6,142z"/>
	<path class="st0" d="M181.7,142l-298.4,298.4h0L181.7,142L181.7,142z"/>
	<path class="st0" d="M181.7,142l-298.4,298.4h0L181.7,142L181.7,142z"/>
	<path class="st0" d="M181.7,142l-298.4,298.4h0L181.7,142L181.7,142z"/>
	<path class="st0" d="M181.7,142l-298.4,298.4h0L181.7,142L181.7,142z"/>
	<path class="st0" d="M181.7,142l-298.4,298.4h0L181.7,142L181.7,142z"/>
	<path class="st0" d="M181.7,142l-298.4,298.4h0L181.7,142L181.7,142z"/>
	<path class="st0" d="M181.8,142l-298.4,298.4h0L181.8,142L181.8,142z"/>
	<path class="st0" d="M181.8,142l-298.4,298.4h0L181.8,142L181.8,142z"/>
	<path class="st0" d="M222.5,142.9l-40.7-0.8l-298.4,298.4H54.7L241.2,254v-81.7C241,159.8,233.8,148.4,222.5,142.9z"/>
	<path class="st0" d="M54.7,440.4L241.2,254v0L54.7,440.4L54.7,440.4z"/>
</g>
<path class="st40" d="M54.8,440.4L241.2,254v0L54.8,440.4L54.8,440.4z"/>
<path class="st38" d="M54.8,440.4l186.4-186.4v0L54.8,440.4L54.8,440.4z"/>
<path class="st37" d="M54.8,440.4l186.4-186.4v0L54.8,440.4L54.8,440.4z"/>
<path class="st36" d="M54.8,440.4l186.4-186.4v0L54.8,440.4L54.8,440.4z"/>
<path class="st4" d="M54.8,440.4l186.3-186.3v0L54.8,440.4L54.8,440.4z"/>
<path class="st35" d="M54.8,440.4l186.3-186.3v0L54.8,440.4L54.8,440.4z"/>
<path class="st34" d="M54.9,440.4l186.3-186.3v0L54.9,440.4L54.9,440.4z"/>
<path class="st41" d="M54.9,440.4l186.3-186.3v0L54.9,440.4L54.9,440.4z"/>
<path class="st5" d="M54.9,440.4l186.3-186.3v0L54.9,440.4L54.9,440.4z"/>
<path class="st33" d="M54.9,440.4l186.3-186.3v0L54.9,440.4L54.9,440.4z"/>
<path class="st42" d="M54.9,440.4l186.2-186.2v0L54.9,440.4L54.9,440.4z"/>
<path class="st43" d="M54.9,440.4l186.2-186.2v0L54.9,440.4L54.9,440.4z"/>
<path class="st6" d="M55,440.4l186.2-186.2v0L55,440.4L55,440.4z"/>
<path class="st44" d="M55,440.4l186.2-186.2v0L55,440.4L55,440.4z"/>
<path class="st45" d="M55,440.4l186.2-186.2v0L55,440.4L55,440.4z"/>
<path class="st30" d="M55,440.4l186.2-186.2v0L55,440.4L55,440.4z"/>
<path class="st7" d="M55,440.4l186.1-186.1v0L55,440.4L55,440.4z"/>
<path class="st29" d="M55,440.4l186.1-186.1v0L55,440.4L55,440.4z"/>
<path class="st46" d="M55.1,440.4l186.1-186.1v0L55.1,440.4L55.1,440.4z"/>
<path class="st8" d="M55.1,440.4l186.1-186.1v0L55.1,440.4L55.1,440.4z"/>
<path class="st47" d="M55.1,440.4l186.1-186.1v0L55.1,440.4L55.1,440.4z"/>
<path class="st48" d="M55.1,440.4l186.1-186.1v0L55.1,440.4L55.1,440.4z"/>
<path class="st27" d="M55.1,440.4l186-186v0L55.1,440.4L55.1,440.4z"/>
<path class="st49" d="M55.1,440.4l186-186v0L55.1,440.4L55.1,440.4z"/>
<path class="st10" d="M55.2,440.4l186-186v0L55.2,440.4L55.2,440.4z"/>
<path class="st26" d="M55.2,440.4l186-186v0L55.2,440.4L55.2,440.4z"/>
<path class="st11" d="M55.2,440.4l186-186v0L55.2,440.4L55.2,440.4z"/>
<path class="st50" d="M55.2,440.4l186-186v0L55.2,440.4L55.2,440.4z"/>
<path class="st51" d="M55.2,440.4l185.9-186v0L55.2,440.4L55.2,440.4z"/>
<path class="st25" d="M55.2,440.4l185.9-185.9v0L55.2,440.4L55.2,440.4z"/>
<path class="st52" d="M55.3,440.4l185.9-185.9v0L55.3,440.4L55.3,440.4z"/>
<path class="st53" d="M55.3,440.4l185.9-185.9v0L55.3,440.4L55.3,440.4z"/>
<path class="st14" d="M55.3,440.4l185.9-185.9v0L55.3,440.4L55.3,440.4z"/>
<path class="st15" d="M55.3,440.4l185.9-185.9v0L55.3,440.4L55.3,440.4z"/>
<path class="st54" d="M55.3,440.4l185.8-185.8v0L55.3,440.4L55.3,440.4z"/>
<path class="st16" d="M55.3,440.4l185.8-185.8v0L55.3,440.4L55.3,440.4z"/>
<path class="st17" d="M55.4,440.4l185.8-185.8v0L55.4,440.4L55.4,440.4z"/>
<path class="st18" d="M55.4,440.4l185.8-185.8v0L55.4,440.4L55.4,440.4z"/>
<path class="st19" d="M55.4,440.4l185.8-185.8v0L55.4,440.4L55.4,440.4z"/>
<path class="st20" d="M55.4,440.4l185.8-185.8v0L55.4,440.4L55.4,440.4z"/>
<path class="st21" d="M55.4,440.4l185.7-185.7v0L55.4,440.4L55.4,440.4z"/>
<path class="st23" d="M55.4,440.4l185.7-185.7v0L55.4,440.4L55.4,440.4z"/>
<path class="st24" d="M55.5,440.4l185.7-185.7v0L55.5,440.4L55.5,440.4z"/>
<path class="st24" d="M133.6,440.4l107.6-107.6v-78.2L55.5,440.4H133.6z"/>
<path class="st24" d="M133.6,440.4l107.5-107.5v0L133.6,440.4L133.6,440.4z"/>
<path class="st23" d="M133.6,440.4l107.5-107.5v0L133.6,440.4L133.6,440.4z"/>
<path class="st21" d="M133.7,440.4l107.5-107.5v0L133.7,440.4L133.7,440.4z"/>
<path class="st20" d="M133.7,440.4L241.2,333v0L133.7,440.4L133.7,440.4z"/>
<path class="st19" d="M133.7,440.4L241.2,333v0L133.7,440.4L133.7,440.4z"/>
<path class="st18" d="M133.7,440.4L241.2,333v0L133.7,440.4L133.7,440.4z"/>
<path class="st17" d="M133.7,440.4L241.2,333v0L133.7,440.4L133.7,440.4z"/>
<path class="st16" d="M133.7,440.4L241.2,333v0L133.7,440.4L133.7,440.4z"/>
<path class="st54" d="M133.8,440.4L241.2,333v0L133.8,440.4L133.8,440.4z"/>
<path class="st15" d="M133.8,440.4l107.4-107.4v0L133.8,440.4L133.8,440.4z"/>
<path class="st14" d="M133.8,440.4l107.4-107.4v0L133.8,440.4L133.8,440.4z"/>
<path class="st53" d="M133.8,440.4l107.4-107.4v0L133.8,440.4L133.8,440.4z"/>
<path class="st52" d="M133.8,440.4l107.3-107.3v0L133.8,440.4L133.8,440.4z"/>
<path class="st25" d="M133.8,440.4l107.3-107.3v0L133.8,440.4L133.8,440.4z"/>
<path class="st51" d="M133.9,440.4l107.3-107.3v0L133.9,440.4L133.9,440.4z"/>
<path class="st50" d="M133.9,440.4l107.3-107.3v0L133.9,440.4L133.9,440.4z"/>
<path class="st11" d="M133.9,440.4l107.3-107.3v0L133.9,440.4L133.9,440.4z"/>
<path class="st26" d="M133.9,440.4l107.3-107.3v0L133.9,440.4L133.9,440.4z"/>
<path class="st10" d="M133.9,440.4l107.2-107.2v0L133.9,440.4L133.9,440.4z"/>
<path class="st49" d="M133.9,440.4l107.2-107.2v0L133.9,440.4L133.9,440.4z"/>
<path class="st27" d="M134,440.4l107.2-107.2v0L134,440.4L134,440.4z"/>
<path class="st48" d="M134,440.4l107.2-107.2v0L134,440.4L134,440.4z"/>
<path class="st47" d="M134,440.4l107.2-107.2v0L134,440.4L134,440.4z"/>
<path class="st8" d="M134,440.4l107.2-107.2v0L134,440.4L134,440.4z"/>
<path class="st46" d="M134,440.4l107.2-107.2v0L134,440.4L134,440.4z"/>
<path class="st29" d="M134,440.4l107.1-107.1v0L134,440.4L134,440.4z"/>
<path class="st7" d="M134,440.4l107.1-107.1v0L134,440.4L134,440.4z"/>
<path class="st30" d="M134.1,440.4l107.1-107.1v0L134.1,440.4L134.1,440.4z"/>
<path class="st45" d="M134.1,440.4l107.1-107.1v0L134.1,440.4L134.1,440.4z"/>
<path class="st44" d="M134.1,440.4l107.1-107.1v0L134.1,440.4L134.1,440.4z"/>
<path class="st6" d="M134.1,440.4l107.1-107.1v0L134.1,440.4L134.1,440.4z"/>
<path class="st43" d="M134.1,440.4l107-107v0L134.1,440.4L134.1,440.4z"/>
<path class="st42" d="M134.1,440.4l107-107v0L134.1,440.4L134.1,440.4z"/>
<path class="st33" d="M134.2,440.4l107-107v0L134.2,440.4L134.2,440.4z"/>
<path class="st5" d="M134.2,440.4l107-107v0L134.2,440.4L134.2,440.4z"/>
<path class="st41" d="M134.2,440.4l107-107v0L134.2,440.4L134.2,440.4z"/>
<path class="st34" d="M134.2,440.4l107-107v0L134.2,440.4L134.2,440.4z"/>
<path class="st35" d="M134.2,440.4l106.9-106.9v0L134.2,440.4L134.2,440.4z"/>
<path class="st4" d="M134.2,440.4l106.9-106.9v0L134.2,440.4L134.2,440.4z"/>
<path class="st36" d="M134.3,440.4l106.9-106.9v0L134.3,440.4L134.3,440.4z"/>
<path class="st37" d="M134.3,440.4l106.9-106.9v0L134.3,440.4L134.3,440.4z"/>
<path class="st38" d="M134.3,440.4l106.9-106.9v0L134.3,440.4L134.3,440.4z"/>
<path class="st40" d="M134.3,440.4l106.9-106.9v0L134.3,440.4L134.3,440.4z"/>
<path class="st3" d="M134.3,440.4l106.8-106.8v0L134.3,440.4L134.3,440.4z"/>
<path class="st0" d="M241.2,440.4V333.6L134.3,440.4H241.2z"/>
<path class="st0" d="M266.3,474v25.1c0,6.7-2.6,13.1-7.4,17.8c-4.7,4.7-11.1,7.4-17.8,7.3h-435.7c-6.7,0-13.1-2.6-17.8-7.3
	c-4.7-4.7-7.4-11.1-7.3-17.8V474h175.9c4.6,0,8.4,3.8,8.4,8.4c0,4.6,3.8,8.4,8.4,8.4H73.6c4.6,0,8.4-3.8,8.4-8.4
	c0-4.6,3.8-8.4,8.4-8.4H266.3z"/>
<path class="st1" d="M241.2,474v25.1c0,6.7-2.6,13.1-7.3,17.8c-4.7,4.7-11.1,7.4-17.8,7.3h-410.5c-6.7,0-13.1-2.6-17.8-7.3
	c-4.7-4.7-7.4-11.1-7.3-17.8V474h175.9c4.6,0,8.4,3.8,8.4,8.4c0,4.6,3.8,8.4,8.4,8.4H73.6c4.6,0,8.4-3.8,8.4-8.4
	c0-4.6,3.8-8.4,8.4-8.4H241.2z"/>
<path class="st1" d="M-152.6,298h41.9v88c0,11.6-9.4,20.9-20.9,20.9c-11.6,0-20.9-9.4-20.9-20.9V298z"/>
<path class="st1" d="M-152.6,264.5h41.9c4.6,0,8.4,3.8,8.4,8.4v16.8c0,4.6-3.8,8.4-8.4,8.4h-41.9c-4.6,0-8.4-3.8-8.4-8.4v-16.8
	C-161,268.3-157.2,264.5-152.6,264.5z"/>
<path class="st55" d="M-68.8,298h41.9v88c0,5.6-2.2,10.9-6.1,14.8c-3.9,3.9-9.3,6.1-14.8,6.1c-11.6,0-20.9-9.4-20.9-20.9V298z"/>
<path class="st1" d="M-68.8,264.5h41.9c4.6,0,8.4,3.8,8.4,8.4v16.8c0,4.6-3.8,8.4-8.4,8.4h-41.9c-4.6,0-8.4-3.8-8.4-8.4v-16.8
	C-77.2,268.3-73.4,264.5-68.8,264.5z"/>
<path class="st55" d="M-194.5,524.2h25.1c-6.7,0-13.1-2.6-17.8-7.3c-4.7-4.7-7.4-11.1-7.3-17.8V474h-25.1v25.1
	c0,6.7,2.6,13.1,7.3,17.8C-207.6,521.6-201.2,524.2-194.5,524.2z"/>
<path class="st55" d="M-169.4,440.4V172.4c0-8.9,3.5-17.4,9.8-23.7c6.3-6.3,14.8-9.8,23.7-9.8H-161c-8.9,0-17.4,3.5-23.7,9.8
	c-6.3,6.3-9.8,14.8-9.8,23.7V474h25.1V440.4z"/>
<path class="st55" d="M-202.6,440.8V172.7h16.8v268.1H-202.6z"/>
<path class="st56" d="M-197.4,381.4c0.5,0.2,1,0.4,1.5,0.5c0.6,0.1,1.1,0.1,1.7,0.2c2.2,0,4.3-0.9,5.9-2.4c2-2,2.9-4.8,2.4-7.6
	c-0.6-2.8-2.5-5.1-5.1-6.1c-1-0.4-2.1-0.7-3.2-0.7c-3.4,0-6.4,2.1-7.7,5.2c-1.3,3.1-0.6,6.7,1.8,9.1l1.3,1
	C-198.4,381-197.9,381.3-197.4,381.4z"/>
<path class="st56" d="M271.4,109.2c-4.8-8.1-13.5-13-22.9-12.9h-0.1c-21.1,0.1-42.2,2.2-62.9,6.3c-6.9-20.4-15.6-40.1-26.1-58.9
	c-4.5-8.4-13.2-13.8-22.8-13.8c-9.6,0.1-18.3,5.4-22.8,13.8c-10.5,18.8-19.3,38.5-26.1,58.9c-20.7-4.1-41.8-6.2-62.9-6.3h-0.1
	c-8.4-0.2-16.4,3.8-21.4,10.6s-6.4,15.6-3.7,23.6H-161c-11.1,0-21.8,4.4-29.6,12.4c-7.8,7.9-12.1,18.7-11.9,29.8h0v167.6
	c0,4.6,3.8,8.4,8.4,8.4c4.6,0,8.4-3.8,8.4-8.4V172.7h0c0-0.1,0-0.1,0-0.1c-0.2-6.7,2.4-13.1,7.1-17.9c4.7-4.8,11.1-7.4,17.8-7.4H8.5
	c9.1,14.7,19.2,28.6,30.5,41.7c-14,16.4-26.4,34-37,52.7c-4.9,8.3-5,18.7-0.2,27.1c4.8,8.1,13.5,13,22.9,12.9h0.1
	c21.1-0.1,42.2-2.2,62.9-6.3c6.9,20.4,15.6,40.1,26.1,58.8c4.4,8.5,13.2,13.8,22.8,13.8c9.6,0,18.4-5.3,22.8-13.8
	c10.5-18.8,19.3-38.5,26.1-58.8c15.6,3.1,31.4,5.1,47.3,5.9v150.9H107.1c-4.6,0-8.4,3.8-8.4,8.4s3.8,8.4,8.4,8.4h125.7v16.8H90.4
	c-9.2,0-16.7,7.5-16.8,16.8H-26.9c0-9.3-7.5-16.7-16.8-16.8H-186l0.2-16.8H73.6c4.6,0,8.4-3.8,8.4-8.4s-3.8-8.4-8.4-8.4h-259.4
	v-24.8c0-4.6-3.8-8.4-8.4-8.4c-4.6,0-8.4,3.8-8.4,8.4v31.7c-0.4,1-0.4,2.1,0,3l-0.2,23.7h-16.8c-4.6,0-8.4,3.8-8.4,8.4v25.1
	c0,18.5,15,33.5,33.5,33.5h435.7c18.5,0,33.5-15,33.5-33.5V474c0-4.6-3.8-8.4-8.4-8.4h-16.8V281.5c9-0.2,17.3-5,21.9-12.7
	c4.8-8.4,4.8-18.7-0.2-27.1c-10.7-18.7-23.1-36.3-37-52.7c14-16.4,26.4-34,37-52.7C276.2,127.9,276.3,117.6,271.4,109.2z
	 M257.9,499.1c0,9.3-7.5,16.7-16.8,16.8h-435.7c-9.3,0-16.7-7.5-16.8-16.8v-16.8h167.6c0,9.2,7.5,16.7,16.8,16.8H73.6
	c9.2,0,16.7-7.5,16.8-16.8h167.6V499.1z M128.4,52c1.5-3.2,4.7-5.3,8.2-5.3c3.5,0,6.7,2.1,8.2,5.3c9.7,17.4,17.8,35.6,24.3,54.5
	c-11,2.9-21.9,6.5-32.4,10.7c-10.6-4.3-21.4-7.8-32.4-10.7C110.6,87.6,118.7,69.3,128.4,52z M183.5,189c0,9-0.6,17.9-1.7,26.8
	c-7,5.4-14.3,10.4-21.9,14.9c-7.5,4.4-15.4,8.4-23.4,11.8c-8-3.5-15.8-7.4-23.4-11.8c-7.6-4.5-14.9-9.5-21.8-14.9
	c-2.2-17.8-2.2-35.9,0-53.7c13.9-10.8,29.1-19.8,45.2-26.7c16.2,6.9,31.4,15.9,45.2,26.7C182.9,171,183.5,180,183.5,189z M200,177.5
	c4,3.8,7.9,7.6,11.6,11.5c-3.7,3.9-7.5,7.7-11.6,11.5c0.2-3.8,0.3-7.6,0.3-11.5C200.3,185.1,200.2,181.3,200,177.5L200,177.5z
	 M178,238.9c-1.2,5.6-2.5,11.1-4,16.5c-5.2-1.3-10.4-2.9-15.7-4.6c3.4-1.8,6.8-3.7,10.2-5.7C171.8,243.1,174.9,241,178,238.9z
	 M114.9,250.8c-5.3,1.7-10.5,3.2-15.7,4.6c-1.5-5.3-2.8-10.8-4-16.5c3.2,2.1,6.2,4.3,9.5,6.2C108.1,247.1,111.5,249,114.9,250.8
	L114.9,250.8z M73.2,200.4c-4-3.8-7.9-7.6-11.6-11.5c3.7-3.9,7.5-7.7,11.6-11.5c-0.2,3.8-0.3,7.6-0.3,11.5
	C72.9,192.8,73,196.6,73.2,200.4z M95.2,139c1.2-5.6,2.5-11.1,4-16.5c5.2,1.3,10.4,2.9,15.7,4.6c-3.4,1.8-6.8,3.7-10.2,5.7
	C101.4,134.8,98.3,137,95.2,139z M168.5,132.8c-3.4-2-6.8-3.9-10.2-5.7c5.3-1.7,10.5-3.2,15.7-4.6c1.5,5.3,2.8,10.8,4,16.5
	C174.9,137,171.8,134.8,168.5,132.8z M16.5,128c-2-3.1-2.1-7.1-0.3-10.3c1.8-2.9,5-4.7,8.4-4.6h0.1c19.5,0.1,38.9,2,58,5.7
	c-3.1,11.3-5.5,22.9-7.2,34.5c-8.9,7.2-17.2,14.9-25.1,23.1C37.7,161.3,26.3,145.1,16.5,128L16.5,128z M24.7,264.8L24.7,264.8
	c-3.5,0.1-6.7-1.6-8.4-4.6c-1.8-3.2-1.7-7.2,0.3-10.3c9.8-17.2,21.1-33.4,33.9-48.5c7.9,8.2,16.3,15.9,25.1,23.1
	c1.7,11.6,4.1,23.2,7.2,34.5C63.6,262.8,44.2,264.7,24.7,264.8L24.7,264.8z M144.8,326c-1.6,3.1-4.7,5-8.2,5c-3.5,0-6.6-1.9-8.2-5
	c-9.7-17.4-17.8-35.6-24.2-54.5c11-2.9,21.9-6.5,32.4-10.7c10.6,4.3,21.4,7.8,32.4,10.7C162.6,290.3,154.5,308.6,144.8,326z
	 M256.7,250c2,3.1,2.1,7.1,0.3,10.3c-1.8,2.9-5,4.7-8.4,4.6c-19.5-0.1-38.9-2-58-5.7c3.1-11.3,5.5-22.9,7.2-34.5
	c8.9-7.2,17.2-14.9,25.1-23.1C235.5,216.6,246.9,232.8,256.7,250z M256.7,128c-9.8,17.2-21.2,33.4-33.9,48.5
	c-7.9-8.2-16.3-15.9-25.1-23.1c-1.7-11.6-4.1-23.2-7.2-34.5c19.1-3.7,38.6-5.6,58-5.7c3.4-0.2,6.7,1.6,8.4,4.6
	C258.8,120.9,258.7,124.8,256.7,128z"/>
<path class="st56" d="M-169.4,272.9v16.8c0,6,3.2,11.5,8.4,14.4V386c0,16.2,13.1,29.3,29.3,29.3c16.2,0,29.3-13.1,29.3-29.3v-81.9
	c5.2-3,8.4-8.5,8.4-14.4v-16.8c0-9.3-7.5-16.7-16.8-16.8h-41.9C-161.8,256.1-169.3,263.6-169.4,272.9z M-119.1,386
	c0,6.9-5.6,12.6-12.6,12.6c-6.9,0-12.6-5.6-12.6-12.6v-79.6h25.1V386z M-110.7,289.6h-41.9v-16.8h41.9L-110.7,289.6z"/>
<path class="st56" d="M-85.6,272.9v16.8c0,6,3.2,11.5,8.4,14.4V386c0,16.2,13.1,29.3,29.3,29.3c16.2,0,29.3-13.1,29.3-29.3v-81.9
	c5.2-3,8.4-8.5,8.4-14.4v-16.8c0-9.3-7.5-16.7-16.8-16.8h-41.9C-78.1,256.1-85.6,263.6-85.6,272.9z M-35.3,386
	c0,6.9-5.6,12.6-12.6,12.6c-6.9,0-12.6-5.6-12.6-12.6v-79.6h25.1V386z M-26.9,289.6h-41.9v-16.8h41.9L-26.9,289.6z"/>
<path class="st56" d="M-151.2,235.7c0.3,0.4,0.7,0.8,1,1.3c1.6,1.5,3.7,2.4,5.9,2.4c0.6,0,1.1-0.1,1.7-0.2c0.5-0.1,1-0.3,1.5-0.5
	c0.5-0.2,1-0.4,1.5-0.8c0.4-0.3,0.8-0.7,1.3-1c0.3-0.4,0.7-0.8,1-1.3c0.3-0.5,0.6-1,0.8-1.5c0.2-0.5,0.4-1,0.5-1.5
	c0.1-0.6,0.2-1.1,0.2-1.7c0-2.2-0.9-4.3-2.4-5.9c-0.4-0.3-0.8-0.7-1.3-1c-0.5-0.3-1-0.6-1.5-0.8c-0.5-0.2-1-0.4-1.5-0.5
	c-2.8-0.6-5.6,0.3-7.6,2.3c-1.5,1.6-2.4,3.7-2.4,5.9c0,0.6,0.1,1.1,0.2,1.7c0.1,0.5,0.3,1,0.5,1.5
	C-151.7,234.7-151.5,235.2-151.2,235.7z"/>
<path class="st56" d="M-126,210.6c0.3,0.4,0.7,0.8,1,1.3c1.6,1.5,3.7,2.4,5.9,2.4c0.6,0,1.1-0.1,1.7-0.2c0.5-0.1,1-0.3,1.5-0.5
	c0.5-0.2,1-0.4,1.5-0.8c0.4-0.3,0.8-0.7,1.3-1c0.3-0.4,0.7-0.8,1-1.3c0.3-0.5,0.6-1,0.8-1.5c0.2-0.5,0.4-1,0.5-1.5
	c0.1-0.6,0.2-1.1,0.2-1.7c0-2.2-0.9-4.3-2.4-5.9c-0.4-0.3-0.8-0.7-1.3-1c-0.5-0.3-1-0.6-1.5-0.8c-0.5-0.2-1-0.4-1.5-0.5
	c-2.8-0.6-5.6,0.3-7.6,2.3c-1.5,1.6-2.4,3.7-2.4,5.9c0,0.6,0.1,1.1,0.2,1.7c0.1,0.5,0.3,1,0.5,1.5
	C-126.6,209.6-126.4,210.1-126,210.6z"/>
<path class="st56" d="M-67.4,235.7c0.3,0.4,0.7,0.8,1,1.3c1.6,1.5,3.7,2.4,5.9,2.4c0.6,0,1.1-0.1,1.7-0.2c0.5-0.1,1-0.3,1.5-0.5
	c0.5-0.2,1-0.4,1.5-0.8c0.4-0.3,0.8-0.7,1.3-1c0.3-0.4,0.7-0.8,1-1.3c0.3-0.5,0.6-1,0.8-1.5c0.2-0.5,0.4-1,0.5-1.5
	c0.1-0.6,0.2-1.1,0.2-1.7c0-2.2-0.9-4.3-2.4-5.9c-0.4-0.3-0.8-0.7-1.3-1c-0.5-0.3-1-0.6-1.5-0.8c-0.5-0.2-1-0.4-1.5-0.5
	c-2.8-0.6-5.6,0.3-7.6,2.3c-1.5,1.6-2.4,3.7-2.4,5.9c0,0.6,0.1,1.1,0.2,1.7c0.1,0.5,0.3,1,0.5,1.5C-68,234.7-67.7,235.2-67.4,235.7z
	"/>
<path class="st56" d="M-42.3,210.6c0.3,0.4,0.7,0.8,1,1.3c1.6,1.5,3.7,2.4,5.9,2.4c0.6,0,1.1-0.1,1.7-0.2c0.5-0.1,1-0.3,1.5-0.5
	c0.5-0.2,1-0.4,1.5-0.8c0.4-0.3,0.8-0.7,1.3-1c0.3-0.4,0.7-0.8,1-1.3c0.3-0.5,0.6-1,0.8-1.5c0.2-0.5,0.4-1,0.5-1.5
	c0.1-0.6,0.2-1.1,0.2-1.7c0-2.2-0.9-4.3-2.4-5.9c-0.4-0.3-0.8-0.7-1.3-1c-0.5-0.3-1-0.6-1.5-0.8c-0.5-0.2-1-0.4-1.5-0.5
	c-2.8-0.6-5.6,0.3-7.6,2.3c-1.5,1.6-2.4,3.7-2.4,5.9c0,0.6,0.1,1.1,0.2,1.7c0.1,0.5,0.3,1,0.5,1.5
	C-42.8,209.6-42.6,210.1-42.3,210.6z"/>
<path class="st56" d="M31.7,373.4c4.6,0,8.4-3.8,8.4-8.4v-16.8c0-4.6-3.8-8.4-8.4-8.4c-4.6,0-8.4,3.8-8.4,8.4V365
	C23.3,369.7,27.1,373.4,31.7,373.4z"/>
<path class="st56" d="M65.2,373.4c4.6,0,8.4-3.8,8.4-8.4v-16.8c0-4.6-3.8-8.4-8.4-8.4c-4.6,0-8.4,3.8-8.4,8.4V365
	C56.9,369.7,60.6,373.4,65.2,373.4z"/>
<path class="st56" d="M98.7,373.4c4.6,0,8.4-3.8,8.4-8.4v-16.8c0-4.6-3.8-8.4-8.4-8.4s-8.4,3.8-8.4,8.4V365
	C90.4,369.7,94.1,373.4,98.7,373.4z"/>
<path class="st56" d="M199.3,373.4c4.6,0,8.4-3.8,8.4-8.4v-16.8c0-4.6-3.8-8.4-8.4-8.4c-4.6,0-8.4,3.8-8.4,8.4V365
	C190.9,369.7,194.7,373.4,199.3,373.4z"/>
<path class="st56" d="M165.8,373.4c4.6,0,8.4-3.8,8.4-8.4v-8.4c0-4.6-3.8-8.4-8.4-8.4c-4.6,0-8.4,3.8-8.4,8.4v8.4
	C157.4,369.7,161.1,373.4,165.8,373.4z"/>
<path class="st56" d="M25.8,404.5c0.4,0.3,0.8,0.7,1.3,1c0.5,0.3,1,0.6,1.5,0.8c0.5,0.2,1,0.4,1.5,0.5c0.6,0.1,1.1,0.1,1.7,0.2
	c3.4,0,6.4-2.1,7.7-5.2c1.3-3.1,0.6-6.7-1.8-9.1c-0.8-0.7-1.8-1.3-2.8-1.8c-3.1-1.3-6.7-0.6-9.1,1.8
	C22.5,395.9,22.5,401.2,25.8,404.5z"/>
<path class="st56" d="M59.3,404.5c0.4,0.3,0.8,0.7,1.3,1c0.5,0.3,1,0.6,1.5,0.8c0.5,0.2,1,0.4,1.5,0.5c0.6,0.1,1.1,0.1,1.7,0.2
	c3.4,0,6.4-2.1,7.7-5.2s0.6-6.7-1.8-9.1c-0.8-0.7-1.8-1.3-2.8-1.8c-3.1-1.3-6.7-0.6-9.1,1.8C56,395.9,56,401.2,59.3,404.5z"/>
<path class="st56" d="M92.8,404.5c0.4,0.3,0.8,0.7,1.3,1c0.5,0.3,1,0.6,1.5,0.8c0.5,0.2,1,0.4,1.5,0.5c0.6,0.1,1.1,0.1,1.7,0.2
	c3.4,0,6.4-2.1,7.7-5.2s0.6-6.7-1.8-9.1c-0.8-0.7-1.8-1.3-2.8-1.8c-3.1-1.3-6.7-0.6-9.1,1.8C89.6,395.9,89.6,401.2,92.8,404.5z"/>
<path class="st56" d="M126.3,404.5c0.4,0.3,0.8,0.7,1.3,1c0.5,0.3,1,0.6,1.5,0.8c0.5,0.2,1,0.4,1.5,0.5c0.6,0.1,1.1,0.1,1.7,0.2
	c3.4,0,6.4-2.1,7.7-5.2s0.6-6.7-1.8-9.1c-0.8-0.7-1.8-1.3-2.8-1.8c-3.1-1.3-6.7-0.6-9.1,1.8C123.1,395.9,123.1,401.2,126.3,404.5z"
	/>
<path class="st56" d="M127.6,372c0.5,0.3,1,0.6,1.5,0.8c0.5,0.2,1,0.4,1.5,0.5c0.6,0.1,1.1,0.1,1.7,0.2c3.4,0,6.4-2.1,7.7-5.2
	c1.3-3.1,0.6-6.7-1.8-9.1c-0.8-0.7-1.8-1.3-2.8-1.8c-3.1-1.3-6.7-0.6-9.1,1.8c-3.2,3.3-3.2,8.6,0,11.9
	C126.7,371.3,127.1,371.6,127.6,372z"/>
<path class="st56" d="M159.8,404.5c0.4,0.3,0.8,0.7,1.3,1c0.5,0.3,1,0.6,1.5,0.8c0.5,0.2,1,0.4,1.5,0.5c0.6,0.1,1.1,0.1,1.7,0.2
	c3.4,0,6.4-2.1,7.7-5.2s0.6-6.7-1.8-9.1c-0.8-0.7-1.7-1.3-2.8-1.8c-3.1-1.3-6.7-0.6-9.1,1.8C156.6,395.9,156.6,401.2,159.8,404.5z"
	/>
<path class="st56" d="M193.3,404.5c0.4,0.3,0.8,0.7,1.3,1c0.5,0.3,1,0.6,1.5,0.8c0.5,0.2,1,0.4,1.5,0.5c0.6,0.1,1.1,0.1,1.7,0.2
	c3.4,0,6.4-2.1,7.7-5.2c1.3-3.1,0.6-6.7-1.8-9.1c-0.8-0.7-1.7-1.3-2.8-1.8c-3.1-1.3-6.7-0.6-9.1,1.8
	C190.1,395.9,190.1,401.2,193.3,404.5z"/>
</svg>
