<?xml version="1.0" encoding="utf-8"?>
<!-- Generator: Adobe Illustrator 19.0.0, SVG Export Plug-In . SVG Version: 6.00 Build 0)  -->
<svg version="1.1" id="Layer_1" xmlns="http://www.w3.org/2000/svg" xmlns:xlink="http://www.w3.org/1999/xlink" x="0px" y="0px"
	 viewBox="-223 25 512 512" style="enable-background:new -223 25 512 512;" xml:space="preserve">
<style type="text/css">
	.st0{fill:#AF88ED;}
	.st1{fill:#9E5AFF;}
	.st2{fill:#FFFFFF;}
	.st3{fill:#7600FF;}
</style>
<path class="st0" d="M271.9,443.1h-426.7l17.1-13.7c19.7-15.7,36.9-34.2,51.2-55c6.2-8.9,11.8-18.3,16.7-28
	c5.4-10.3,10.1-21,13.9-32l12-34.2l17.1-48.6L2,149.8c4.1-11.6,11.7-21.6,21.8-28.6c6.6-4.7,14.1-7.9,22-9.6
	c1.4-0.3,2.8-0.6,4.2-0.8c5.7-0.8,11.4-0.8,17.1,0c22,3,40.5,18,48,38.9l28.8,81.8l17.1,48.6l12,34.2c3.9,11,8.5,21.7,13.9,32
	c4.9,9.7,10.5,19.1,16.7,28c14.3,20.7,31.5,39.2,51.2,55L271.9,443.1z"/>
<path class="st1" d="M246.3,443.1h-401.1l17.1-13.7c19.7-15.7,36.9-34.2,51.2-55c6.2-8.9,11.8-18.3,16.7-28
	c5.4-10.3,10.1-21,13.9-32l12-34.2l17.1-48.6L2,149.8c4.1-11.6,11.7-21.6,21.8-28.6c6.6-4.7,14.1-7.9,22-9.6
	c20.2,4.2,36.8,18.7,43.7,38.1l28.8,81.8l17.1,48.6l12,34.2c3.9,11,8.5,21.7,13.9,32c4.9,9.7,10.5,19.1,16.7,28
	c14.3,20.7,31.5,39.2,51.2,55L246.3,443.1z"/>
<path class="st2" d="M-112.1,429.5c19.7-15.7,36.9-34.2,51.2-55c6.2-8.9,11.8-18.3,16.7-28c5.4-10.3,10.1-21,13.9-32l12-34.2
	l17.1-48.6l28.8-81.8c4.1-11.6,11.7-21.6,21.8-28.6c6.5-4.6,13.9-7.9,21.7-9.5c-1.3-0.3-2.7-0.7-4-0.8c-5.7-0.8-11.4-0.8-17.1,0
	c-1.4,0.2-2.8,0.4-4.2,0.8c-7.9,1.6-15.4,4.9-22,9.6c-10.1,7-17.7,17-21.8,28.6l-28.8,81.8l-17.1,48.6l-12,34.2
	c-3.9,11-8.5,21.7-13.9,32c-4.9,9.7-10.5,19.1-16.7,28c-14.3,20.7-31.5,39.2-51.2,55l-17.1,13.7h25.6L-112.1,429.5z"/>
<g>
	<path class="st3" d="M280.5,494.3h-460.8V33.5c0-4.7-3.8-8.5-8.5-8.5h-25.6c-4.7,0-8.5,3.8-8.5,8.5c0,4.7,3.8,8.5,8.5,8.5h17.1
		v34.1h-8.5c-4.7,0-8.5,3.8-8.5,8.5c0,4.7,3.8,8.5,8.5,8.5h8.5v34.1h-8.5c-4.7,0-8.5,3.8-8.5,8.5s3.8,8.5,8.5,8.5h8.5v34.1h-17.1
		c-4.7,0-8.5,3.8-8.5,8.5c0,4.7,3.8,8.5,8.5,8.5h17.1v34.1h-8.5c-4.7,0-8.5,3.8-8.5,8.5c0,4.7,3.8,8.5,8.5,8.5h8.5V281h-8.5
		c-4.7,0-8.5,3.8-8.5,8.5c0,4.7,3.8,8.5,8.5,8.5h8.5v34.1h-17.1c-4.7,0-8.5,3.8-8.5,8.5c0,4.7,3.8,8.5,8.5,8.5h17.1v34.1h-8.5
		c-4.7,0-8.5,3.8-8.5,8.5s3.8,8.5,8.5,8.5h8.5v34.1h-8.5c-4.7,0-8.5,3.8-8.5,8.5c0,4.7,3.8,8.5,8.5,8.5h8.5v42.7h-17.1
		c-4.7,0-8.5,3.8-8.5,8.5c0,4.7,3.8,8.5,8.5,8.5h17.1v17.1c0,4.7,3.8,8.5,8.5,8.5c4.7,0,8.5-3.8,8.5-8.5v-17.1h42.7v8.5
		c0,4.7,3.8,8.5,8.5,8.5c4.7,0,8.5-3.8,8.5-8.5v-8.5h34.1v8.5c0,4.7,3.8,8.5,8.5,8.5c4.7,0,8.5-3.8,8.5-8.5v-8.5h34.1v17.1
		c0,4.7,3.8,8.5,8.5,8.5c4.7,0,8.5-3.8,8.5-8.5v-17.1h34.1v8.5c0,4.7,3.8,8.5,8.5,8.5c4.7,0,8.5-3.8,8.5-8.5v-8.5h34.1v8.5
		c0,4.7,3.8,8.5,8.5,8.5c4.7,0,8.5-3.8,8.5-8.5v-8.5h34.1v17.1c0,4.7,3.8,8.5,8.5,8.5c4.7,0,8.5-3.8,8.5-8.5v-17.1h34.1v8.5
		c0,4.7,3.8,8.5,8.5,8.5c4.7,0,8.5-3.8,8.5-8.5v-8.5h34.1v8.5c0,4.7,3.8,8.5,8.5,8.5c4.7,0,8.5-3.8,8.5-8.5v-8.5h34.1v17.1
		c0,4.7,3.8,8.5,8.5,8.5c4.7,0,8.5-3.8,8.5-8.5v-25.6C289,498.2,285.2,494.3,280.5,494.3z"/>
	<path class="st3" d="M-112.1,263.9h65l-16.8,47.8c-15.4,43.7-42.8,82.2-79.1,111.1l-17.1,13.7c-2.8,2.3-3.9,6.1-2.7,9.5
		s4.4,5.7,8.1,5.7h426.7c3.6,0,6.9-2.3,8.1-5.7c1.2-3.4,0.1-7.2-2.7-9.5l-17.1-13.7c-36.2-28.9-63.6-67.4-79.1-111.1l-28.8-81.9
		h34.3c4.7,0,8.5-3.8,8.5-8.5V67.7h51.2c4.7,0,8.5-3.8,8.5-8.5c0-4.7-3.8-8.5-8.5-8.5h-59.7c-4.7,0-8.5,3.8-8.5,8.5v153.6h-31.8
		L123.2,147c-9.8-27.2-35.7-45.4-64.6-45.2C29.7,101.7,3.8,119.8-6,147l-35.1,99.8h-71c-4.7,0-8.5,3.8-8.5,8.5
		C-120.6,260.1-116.8,263.9-112.1,263.9z M-47.8,317.4l4-11.4v128.6h-25.6v-71C-60.7,348.9-53.5,333.4-47.8,317.4z M-86.5,388.9
		v45.7h-44C-114,421.2-99.2,405.8-86.5,388.9z M247.6,434.6h-44v-45.7C216.4,405.8,231.2,421.2,247.6,434.6z M186.6,363.6v71H161
		V306l4,11.4C170.7,333.4,177.9,348.9,186.6,363.6z M107.1,152.7l21.1,60H92.7c-4.7,0-8.5,3.8-8.5,8.5c0,4.7,3.8,8.5,8.5,8.5h41.5
		l9.7,27.6v177.2H67.1v-315C85.5,122.5,100.8,135.2,107.1,152.7L107.1,152.7z M10.1,152.7c6.3-17.5,21.6-30.2,40-33.1v315h-76.8
		V257.4L10.1,152.7z"/>
	<path class="st3" d="M-154.7,263.9h8.5c4.7,0,8.5-3.8,8.5-8.5c0-4.7-3.8-8.5-8.5-8.5h-8.5c-4.7,0-8.5,3.8-8.5,8.5
		C-163.3,260.1-159.4,263.9-154.7,263.9z"/>
	<path class="st3" d="M285.2,52.1c-0.4-0.3-0.9-0.6-1.4-0.8c-0.5-0.3-1.1-0.4-1.6-0.5c-1.1-0.2-2.2-0.2-3.2,0
		c-0.6,0.1-1.1,0.3-1.6,0.5c-0.5,0.2-1.1,0.4-1.5,0.8l-1.3,1c-3.3,3.4-3.3,8.8,0,12.1c0.4,0.3,0.9,0.7,1.3,1c0.5,0.3,1,0.6,1.5,0.8
		c0.5,0.3,1.1,0.4,1.6,0.5c0.5,0.1,1.1,0.2,1.6,0.2c2.3,0,4.5-0.9,6.1-2.5s2.5-3.8,2.5-6.1c0-2.3-0.9-4.4-2.5-6.1
		C286.1,52.7,285.7,52.4,285.2,52.1z"/>
	<path class="st3" d="M-86.5,101.8c4.7,0,8.5-3.8,8.5-8.5v-8.5c0-4.7-3.8-8.5-8.5-8.5c-4.7,0-8.5,3.8-8.5,8.5v8.5
		C-95,98-91.2,101.8-86.5,101.8z"/>
	<path class="st3" d="M-86.5,118.9c-4.7,0-8.5,3.8-8.5,8.5v8.5c0,4.7,3.8,8.5,8.5,8.5c4.7,0,8.5-3.8,8.5-8.5v-8.5
		C-77.9,122.7-81.8,118.9-86.5,118.9z"/>
	<path class="st3" d="M-112.1,118.9h8.5c4.7,0,8.5-3.8,8.5-8.5c0-4.7-3.8-8.5-8.5-8.5h-8.5c-4.7,0-8.5,3.8-8.5,8.5
		C-120.6,115-116.8,118.9-112.1,118.9z"/>
	<path class="st3" d="M-69.4,118.9h8.5c4.7,0,8.5-3.8,8.5-8.5c0-4.7-3.8-8.5-8.5-8.5h-8.5c-4.7,0-8.5,3.8-8.5,8.5
		C-77.9,115-74.1,118.9-69.4,118.9z"/>
	<path class="st3" d="M229.3,323.7c0,14.1,11.5,25.6,25.6,25.6c14.1,0,25.6-11.5,25.6-25.6c0-14.1-11.5-25.6-25.6-25.6
		C240.7,298.1,229.3,309.5,229.3,323.7z M254.9,315.1c4.7,0,8.5,3.8,8.5,8.5c0,4.7-3.8,8.5-8.5,8.5c-4.7,0-8.5-3.8-8.5-8.5
		C246.3,319,250.2,315.1,254.9,315.1z"/>
</g>
</svg>
