<?xml version="1.0" encoding="utf-8"?>
<!-- Generator: Adobe Illustrator 19.0.0, SVG Export Plug-In . SVG Version: 6.00 Build 0)  -->
<svg version="1.1" id="Layer_1" xmlns="http://www.w3.org/2000/svg" xmlns:xlink="http://www.w3.org/1999/xlink" x="0px" y="0px"
	 viewBox="-223 25 512 512" style="enable-background:new -223 25 512 512;" xml:space="preserve">
<style type="text/css">
	.st0{fill:#9E5AFF;}
	.st1{fill:#AF88ED;}
	.st2{fill:#CAD9FC;}
	.st3{fill:#D3DFF2;}
	.st4{fill:#D8E1F2;}
	.st5{fill:#DCE3F2;}
	.st6{fill:#E0E5F2;}
	.st7{fill:#E4E7F2;}
	.st8{fill:#E7E8F2;}
	.st9{fill:#EAEAF2;}
	.st10{fill:#EDEBF2;}
	.st11{fill:#EFECF2;}
	.st12{fill:#F1EDF2;}
	.st13{fill:#F3EEF2;}
	.st14{fill:#F5EEF2;}
	.st15{fill:#F6EFF2;}
	.st16{fill:#F8F0F2;}
	.st17{fill:#F9F0F2;}
	.st18{fill:#FAF1F2;}
	.st19{fill:#FBF1F2;}
	.st20{fill:#FCF2F2;}
	.st21{fill:#FDF2F2;}
	.st22{fill:#FEF2F2;}
	.st23{fill:#FEF3F2;}
	.st24{fill:#FFF3F2;}
	.st25{fill:#F2EDF2;}
	.st26{fill:#EEEBF2;}
	.st27{fill:#EBEAF2;}
	.st28{fill:#E8E8F2;}
	.st29{fill:#E5E7F2;}
	.st30{fill:#E3E6F2;}
	.st31{fill:#E1E5F2;}
	.st32{fill:#DFE4F2;}
	.st33{fill:#DDE4F2;}
	.st34{fill:#DAE2F2;}
	.st35{fill:#D9E2F2;}
	.st36{fill:#D7E1F2;}
	.st37{fill:#D6E0F2;}
	.st38{fill:#D5E0F2;}
	.st39{fill:#D4E0F2;}
	.st40{fill:#D4DFF2;}
	.st41{fill:#DBE3F2;}
	.st42{fill:#DEE4F2;}
	.st43{fill:#DFE5F2;}
	.st44{fill:#E1E6F2;}
	.st45{fill:#E2E6F2;}
	.st46{fill:#E6E8F2;}
	.st47{fill:#E8E9F2;}
	.st48{fill:#EAE9F2;}
	.st49{fill:#ECEAF2;}
	.st50{fill:#F0ECF2;}
	.st51{fill:#F1ECF2;}
	.st52{fill:#F3EDF2;}
	.st53{fill:#F4EEF2;}
	.st54{fill:#F7EFF2;}
	.st55{fill:#FFFFFF;}
	.st56{fill:#7600FF;}
</style>
<path class="st0" d="M254.9,170.1v328.5h-443.7V170.1c0-9.1,3.6-17.7,10-24.1c6.4-6.4,15.1-10,24.1-10H50.5l186.4,4.1
	C248,146,254.9,157.5,254.9,170.1z"/>
<path class="st1" d="M229.3,170.1v328.5h-418.1V170.1c0-9.1,3.6-17.7,10-24.1c6.4-6.4,15.1-10,24.1-10H24.9l186.4,4.1
	C222.4,146,229.3,157.5,229.3,170.1z"/>
<path class="st2" d="M254.9,170.1v273.1h-443.7V170.1c0-9.1,3.6-17.7,10-24.1c6.4-6.4,15.1-10,24.1-10H50.5l186.4,4.1
	C248,146,254.9,157.5,254.9,170.1z"/>
<path class="st0" d="M-152.6,135.9c-19.4-0.6-35.6,14.7-36.2,34.1v132.5l166.6-166.6H-152.6z"/>
<path class="st3" d="M-22.2,135.9l-166.6,166.6v0.1L-22.2,135.9L-22.2,135.9z"/>
<path class="st4" d="M-22.1,135.9l-166.7,166.7v0.1L-22.1,135.9L-22.1,135.9z"/>
<path class="st5" d="M-22,135.9l-166.8,166.8v0.1L-22,135.9L-22,135.9z"/>
<path class="st6" d="M-22,135.9l-166.9,166.9v0.1L-22,135.9L-22,135.9z"/>
<path class="st7" d="M-21.9,135.9l-167,167v0.1L-21.9,135.9L-21.9,135.9z"/>
<path class="st8" d="M-21.8,135.9l-167,167.1v0.1L-21.8,135.9L-21.8,135.9z"/>
<path class="st9" d="M-21.7,135.9l-167.1,167.1v0.1L-21.7,135.9L-21.7,135.9z"/>
<path class="st10" d="M-21.6,135.9l-167.2,167.2v0.1L-21.6,135.9L-21.6,135.9z"/>
<path class="st11" d="M-21.5,135.9l-167.3,167.3v0.1L-21.5,135.9L-21.5,135.9z"/>
<path class="st12" d="M-21.5,135.9l-167.4,167.4v0.1L-21.5,135.9L-21.5,135.9z"/>
<path class="st13" d="M-21.4,135.9l-167.5,167.5v0.1L-21.4,135.9L-21.4,135.9z"/>
<path class="st14" d="M-21.3,135.9l-167.5,167.5v0.1L-21.3,135.9L-21.3,135.9z"/>
<path class="st15" d="M-21.2,135.9l-167.6,167.6v0.1L-21.2,135.9L-21.2,135.9z"/>
<path class="st16" d="M-21.1,135.9l-167.7,167.7v0.1L-21.1,135.9L-21.1,135.9z"/>
<path class="st17" d="M-21.1,135.9l-167.8,167.8v0.1L-21.1,135.9L-21.1,135.9z"/>
<path class="st18" d="M-21,135.9l-167.9,167.9v0.1L-21,135.9L-21,135.9z"/>
<path class="st19" d="M-20.9,135.9l-168,168v0.1L-20.9,135.9L-20.9,135.9z"/>
<path class="st19" d="M-20.8,135.9l-168,168v0.1L-20.8,135.9L-20.8,135.9z"/>
<path class="st20" d="M-20.7,135.9l-168.1,168.1v0.1L-20.7,135.9L-20.7,135.9z"/>
<path class="st21" d="M-20.6,135.9l-168.2,168.2v0.1L-20.6,135.9L-20.6,135.9z"/>
<path class="st21" d="M-20.6,135.9l-168.3,168.3v0.1L-20.6,135.9L-20.6,135.9z"/>
<path class="st21" d="M-20.5,135.9l-168.4,168.4v0.1L-20.5,135.9L-20.5,135.9z"/>
<path class="st22" d="M-20.4,135.9l-168.5,168.5v0.1L-20.4,135.9L-20.4,135.9z"/>
<path class="st23" d="M-20.3,135.9l-168.5,168.5v0.1L-20.3,135.9L-20.3,135.9z"/>
<path class="st23" d="M-20.2,135.9l-168.6,168.6v0.1L-20.2,135.9L-20.2,135.9z"/>
<path class="st23" d="M-20.2,135.9l-168.7,168.7v0.1L-20.2,135.9L-20.2,135.9z"/>
<path class="st24" d="M-20.1,135.9l-168.8,168.8v0.1L-20.1,135.9L-20.1,135.9z"/>
<path class="st24" d="M-20,135.9l-168.9,168.9v0.1L-20,135.9L-20,135.9z"/>
<path class="st24" d="M-19.9,135.9l-168.9,168.9v0.1L-19.9,135.9L-19.9,135.9z"/>
<path class="st24" d="M-19.8,135.9l-169,169v0.1L-19.8,135.9L-19.8,135.9z"/>
<path class="st24" d="M-19.7,135.9l-169.1,169.1v0.1L-19.7,135.9L-19.7,135.9z"/>
<path class="st24" d="M-19.7,135.9l-169.2,169.2v0.1L-19.7,135.9L-19.7,135.9z"/>
<path class="st24" d="M-19.6,135.9l-169.3,169.3v0.1L-19.6,135.9L-19.6,135.9z"/>
<path class="st24" d="M-19.5,135.9l-169.4,169.4v0.1L-19.5,135.9L-19.5,135.9z"/>
<path class="st24" d="M-19.4,135.9l-169.4,169.4v0.1L-19.4,135.9L-19.4,135.9z"/>
<path class="st24" d="M-19.3,135.9l-169.5,169.5v0.1L-19.3,135.9L-19.3,135.9z"/>
<path class="st24" d="M-19.2,135.9l-169.6,169.6v0.1L-19.2,135.9L-19.2,135.9z"/>
<path class="st24" d="M-19.2,135.9l-169.7,169.7v0.1L-19.2,135.9L-19.2,135.9z"/>
<path class="st24" d="M-19.1,135.9l-169.8,169.8v0.1L-19.1,135.9L-19.1,135.9z"/>
<path class="st24" d="M-19,135.9l-169.8,169.8v0.1L-19,135.9L-19,135.9z"/>
<path class="st24" d="M-18.9,135.9l-169.9,169.9v0.1L-18.9,135.9L-18.9,135.9z"/>
<path class="st24" d="M-18.8,135.9l-170,170v0.1L-18.8,135.9L-18.8,135.9z"/>
<path class="st24" d="M-18.8,135.9L-188.8,306v0.1L-18.8,135.9L-18.8,135.9z"/>
<path class="st24" d="M-18.7,135.9l-170.2,170.2v0.1L-18.7,135.9L-18.7,135.9z"/>
<path class="st24" d="M-18.6,135.9l-170.3,170.3v40.2L21.6,135.9H-18.6z"/>
<path class="st0" d="M38,135.9H21.6l-210.5,210.5v96.7h20.1L136.4,138L38,135.9z"/>
<path class="st3" d="M136.4,138l-305.1,305.1h0.1L136.4,138L136.4,138z"/>
<path class="st4" d="M136.5,138l-305.1,305.1h0.1L136.5,138L136.5,138z"/>
<path class="st5" d="M136.6,138l-305.2,305.1h0.1L136.6,138L136.6,138z"/>
<path class="st6" d="M136.7,138l-305.1,305.1h0.1L136.7,138L136.7,138z"/>
<path class="st7" d="M136.8,138l-305.1,305.1h0.1L136.8,138L136.8,138z"/>
<path class="st8" d="M136.8,138l-305.1,305.1h0.1L136.8,138L136.8,138z"/>
<path class="st9" d="M136.9,138l-305.1,305.1h0.1L136.9,138L136.9,138z"/>
<path class="st10" d="M137,138l-305.1,305.1h0.1L137,138L137,138z"/>
<path class="st11" d="M137.1,138l-305.1,305.1h0.1L137.1,138L137.1,138z"/>
<path class="st12" d="M137.2,138L-168,443.1h0.1L137.2,138L137.2,138z"/>
<path class="st13" d="M137.2,138l-305.1,305.1h0.1L137.2,138L137.2,138z"/>
<path class="st14" d="M137.3,138l-305.1,305.1h0.1L137.3,138L137.3,138z"/>
<path class="st15" d="M137.4,138l-305.1,305.1h0.1L137.4,138L137.4,138z"/>
<path class="st16" d="M137.5,138l-305.1,305.1h0.1L137.5,138L137.5,138z"/>
<path class="st17" d="M137.6,138l-305.1,305.1h0.1L137.6,138L137.6,138z"/>
<path class="st18" d="M137.6,138l-305.1,305.1h0.1L137.6,138L137.6,138z"/>
<path class="st19" d="M137.7,138l-305.1,305.1h0.1L137.7,138L137.7,138z"/>
<path class="st19" d="M137.8,138l-305.1,305.1h0.1L137.8,138L137.8,138z"/>
<path class="st20" d="M137.9,138l-305.1,305.1h0.1L137.9,138L137.9,138z"/>
<path class="st21" d="M138,138l-305.1,305.1h0.1L138,138L138,138z"/>
<path class="st21" d="M138,138l-305.1,305.1h0.1L138,138L138,138z"/>
<path class="st21" d="M138.1,138L-167,443.1h0.1L138.1,138L138.1,138z"/>
<path class="st22" d="M138.2,138l-305.1,305.1h0.1L138.2,138L138.2,138z"/>
<path class="st23" d="M138.3,138l-305.1,305.1h0.1L138.3,138L138.3,138z"/>
<path class="st23" d="M138.4,138l-305.1,305.1h0.1L138.4,138L138.4,138z"/>
<path class="st23" d="M138.4,138l-305.1,305.1h0.1L138.4,138L138.4,138z"/>
<path class="st24" d="M138.5,138l-305.1,305.1h0.1L138.5,138L138.5,138z"/>
<path class="st24" d="M138.6,138l-305.1,305.1h0.1L138.6,138L138.6,138z"/>
<path class="st24" d="M138.7,138l-305.1,305.1h0.1L138.7,138L138.7,138z"/>
<path class="st24" d="M138.8,138l-305.1,305.1h0.1L138.8,138L138.8,138z"/>
<path class="st24" d="M138.8,138l-305.1,305.1h0.1L138.8,138L138.8,138z"/>
<path class="st24" d="M138.9,138l-305.1,305.1h0.1L138.9,138L138.9,138z"/>
<path class="st24" d="M139,138l-305.1,305.1h0.1L139,138L139,138z"/>
<path class="st24" d="M139.1,138L-166,443.1h0.1L139.1,138L139.1,138z"/>
<path class="st24" d="M139.2,138l-305.1,305.1h0.1L139.2,138L139.2,138z"/>
<path class="st24" d="M139.2,138l-305.1,305.1h0.1L139.2,138L139.2,138z"/>
<path class="st24" d="M139.3,138l-305.1,305.1h0.1L139.3,138L139.3,138z"/>
<path class="st24" d="M139.4,138l-305.1,305.1h0.1L139.4,138L139.4,138z"/>
<path class="st24" d="M139.5,138l-305.1,305.1h0.1L139.5,138L139.5,138z"/>
<path class="st24" d="M139.6,138l-305.1,305.1h0.1L139.6,138L139.6,138z"/>
<path class="st24" d="M139.6,138.1l-305.1,305.1h0.1L139.6,138.1L139.6,138.1z"/>
<path class="st24" d="M139.7,138.1l-305.1,305.1h0.1L139.7,138.1L139.7,138.1z"/>
<path class="st24" d="M139.8,138.1l-305.1,305.1h0.1L139.8,138.1L139.8,138.1z"/>
<path class="st24" d="M139.9,138.1l-305.1,305.1h0.1L139.9,138.1L139.9,138.1z"/>
<path class="st24" d="M140,138.1l-305.1,305.1h54.8l304-304L140,138.1z"/>
<path class="st24" d="M193.7,139.2l-304,304h0L193.7,139.2L193.7,139.2z"/>
<path class="st18" d="M193.7,139.2l-304,304h0L193.7,139.2L193.7,139.2z"/>
<path class="st15" d="M193.7,139.2l-304,304h0L193.7,139.2L193.7,139.2z"/>
<path class="st25" d="M193.7,139.2l-304,304h0L193.7,139.2L193.7,139.2z"/>
<path class="st26" d="M193.7,139.2l-304,304h0L193.7,139.2L193.7,139.2z"/>
<path class="st27" d="M193.8,139.2l-304,304h0L193.8,139.2L193.8,139.2z"/>
<path class="st28" d="M193.8,139.2l-304,304h0L193.8,139.2L193.8,139.2z"/>
<path class="st29" d="M193.8,139.2l-304,304h0L193.8,139.2L193.8,139.2z"/>
<path class="st30" d="M193.8,139.2l-304,304h0L193.8,139.2L193.8,139.2z"/>
<path class="st31" d="M193.8,139.2l-304,304h0L193.8,139.2L193.8,139.2z"/>
<path class="st32" d="M193.8,139.2l-304,304h0L193.8,139.2L193.8,139.2z"/>
<path class="st33" d="M193.8,139.2l-304,304h0L193.8,139.2L193.8,139.2z"/>
<path class="st5" d="M193.9,139.2l-304,304h0L193.9,139.2L193.9,139.2z"/>
<path class="st34" d="M193.9,139.2l-304,304h0L193.9,139.2L193.9,139.2z"/>
<path class="st35" d="M193.9,139.2l-304,304h0L193.9,139.2L193.9,139.2z"/>
<path class="st4" d="M193.9,139.2l-304,304h0L193.9,139.2L193.9,139.2z"/>
<path class="st36" d="M193.9,139.2l-304,304h0L193.9,139.2L193.9,139.2z"/>
<path class="st36" d="M194,139.2l-304,304h0L194,139.2L194,139.2z"/>
<path class="st37" d="M194,139.2l-304,304h0L194,139.2L194,139.2z"/>
<path class="st38" d="M194,139.2l-304,304h0L194,139.2L194,139.2z"/>
<path class="st38" d="M194,139.2l-304,304h0L194,139.2L194,139.2z"/>
<path class="st38" d="M194,139.2l-304,304h0L194,139.2L194,139.2z"/>
<path class="st39" d="M194,139.2l-304,304h0L194,139.2L194,139.2z"/>
<path class="st40" d="M194,139.2l-304,304h0L194,139.2L194,139.2z"/>
<path class="st40" d="M194.1,139.2l-304,304h0L194.1,139.2L194.1,139.2z"/>
<path class="st40" d="M194.1,139.2l-304,304h0L194.1,139.2L194.1,139.2z"/>
<g>
	<path class="st0" d="M194.1,139.2l-304,304h0L194.1,139.2L194.1,139.2z"/>
	<path class="st0" d="M194.1,139.2l-304,304h0L194.1,139.2L194.1,139.2z"/>
	<path class="st0" d="M194.1,139.2l-304,304h0L194.1,139.2L194.1,139.2z"/>
	<path class="st0" d="M194.1,139.2l-304,304h0L194.1,139.2L194.1,139.2z"/>
	<path class="st0" d="M194.2,139.2l-304,304h0L194.2,139.2L194.2,139.2z"/>
	<path class="st0" d="M194.2,139.2l-304,304h0L194.2,139.2L194.2,139.2z"/>
	<path class="st0" d="M194.2,139.2l-304,304h0L194.2,139.2L194.2,139.2z"/>
	<path class="st0" d="M194.2,139.2l-304,304h0L194.2,139.2L194.2,139.2z"/>
	<path class="st0" d="M194.2,139.2l-304,304h0L194.2,139.2L194.2,139.2z"/>
	<path class="st0" d="M194.2,139.2l-304,304h0L194.2,139.2L194.2,139.2z"/>
	<path class="st0" d="M194.3,139.2l-304,304h0L194.3,139.2L194.3,139.2z"/>
	<path class="st0" d="M194.3,139.2l-304,304h0L194.3,139.2L194.3,139.2z"/>
	<path class="st0" d="M194.3,139.2l-304,304h0L194.3,139.2L194.3,139.2z"/>
	<path class="st0" d="M194.3,139.2l-303.9,304h0L194.3,139.2L194.3,139.2z"/>
	<path class="st0" d="M194.3,139.2l-303.9,304h0L194.3,139.2L194.3,139.2z"/>
	<path class="st0" d="M194.3,139.2l-303.9,304h0L194.3,139.2L194.3,139.2z"/>
	<path class="st0" d="M194.4,139.2l-304,304h0L194.4,139.2L194.4,139.2z"/>
	<path class="st0" d="M194.4,139.2l-304,304h0L194.4,139.2L194.4,139.2z"/>
	<path class="st0" d="M235.9,140l-41.5-0.9l-303.9,303.9H65l189.9-189.9v-83.2C254.7,157.3,247.3,145.7,235.9,140z"/>
	<path class="st0" d="M65,443.1l189.9-189.9v0L65,443.1L65,443.1z"/>
</g>
<path class="st40" d="M65,443.1l189.8-189.8v0L65,443.1L65,443.1z"/>
<path class="st38" d="M65,443.1l189.8-189.8v0L65,443.1L65,443.1z"/>
<path class="st37" d="M65,443.1l189.8-189.8v0L65,443.1L65,443.1z"/>
<path class="st36" d="M65.1,443.1l189.8-189.8v0L65.1,443.1L65.1,443.1z"/>
<path class="st4" d="M65.1,443.1l189.8-189.8v0L65.1,443.1L65.1,443.1z"/>
<path class="st35" d="M65.1,443.1l189.8-189.8v0L65.1,443.1L65.1,443.1z"/>
<path class="st34" d="M65.1,443.1l189.7-189.7v0L65.1,443.1L65.1,443.1z"/>
<path class="st41" d="M65.1,443.1l189.7-189.7v0L65.1,443.1L65.1,443.1z"/>
<path class="st5" d="M65.1,443.1l189.7-189.7v0L65.1,443.1L65.1,443.1z"/>
<path class="st33" d="M65.2,443.1l189.7-189.7v0L65.2,443.1L65.2,443.1z"/>
<path class="st42" d="M65.2,443.1l189.7-189.7v0L65.2,443.1L65.2,443.1z"/>
<path class="st43" d="M65.2,443.1l189.7-189.7v0L65.2,443.1L65.2,443.1z"/>
<path class="st6" d="M65.2,443.1l189.7-189.7v0L65.2,443.1L65.2,443.1z"/>
<path class="st44" d="M65.2,443.1l189.6-189.6v0L65.2,443.1L65.2,443.1z"/>
<path class="st45" d="M65.2,443.1l189.6-189.6v0L65.2,443.1L65.2,443.1z"/>
<path class="st30" d="M65.3,443.1l189.6-189.6v0L65.3,443.1L65.3,443.1z"/>
<path class="st7" d="M65.3,443.1l189.6-189.6v0L65.3,443.1L65.3,443.1z"/>
<path class="st29" d="M65.3,443.1l189.6-189.6v0L65.3,443.1L65.3,443.1z"/>
<path class="st46" d="M65.3,443.1l189.6-189.6v0L65.3,443.1L65.3,443.1z"/>
<path class="st8" d="M65.3,443.1l189.5-189.5v0L65.3,443.1L65.3,443.1z"/>
<path class="st47" d="M65.4,443.1l189.5-189.5v0L65.4,443.1L65.4,443.1z"/>
<path class="st48" d="M65.4,443.1l189.5-189.5v0L65.4,443.1L65.4,443.1z"/>
<path class="st27" d="M65.4,443.1l189.5-189.5v0L65.4,443.1L65.4,443.1z"/>
<path class="st49" d="M65.4,443.1l189.5-189.5v0L65.4,443.1L65.4,443.1z"/>
<path class="st10" d="M65.4,443.1l189.4-189.4v0L65.4,443.1L65.4,443.1z"/>
<path class="st26" d="M65.4,443.1l189.4-189.4v0L65.4,443.1L65.4,443.1z"/>
<path class="st11" d="M65.5,443.1l189.4-189.4v0L65.5,443.1L65.5,443.1z"/>
<path class="st50" d="M65.5,443.1l189.4-189.4v0L65.5,443.1L65.5,443.1z"/>
<path class="st51" d="M65.5,443.1l189.4-189.4v0L65.5,443.1L65.5,443.1z"/>
<path class="st25" d="M65.5,443.1l189.4-189.4v0L65.5,443.1L65.5,443.1z"/>
<path class="st52" d="M65.5,443.1l189.4-189.4v0L65.5,443.1L65.5,443.1z"/>
<path class="st53" d="M65.5,443.1l189.3-189.3v0L65.5,443.1L65.5,443.1z"/>
<path class="st14" d="M65.5,443.1l189.3-189.3v0L65.5,443.1L65.5,443.1z"/>
<path class="st15" d="M65.6,443.1l189.3-189.3v0L65.6,443.1L65.6,443.1z"/>
<path class="st54" d="M65.6,443.1l189.3-189.3v0L65.6,443.1L65.6,443.1z"/>
<path class="st16" d="M65.6,443.1l189.3-189.3v0L65.6,443.1L65.6,443.1z"/>
<path class="st17" d="M65.6,443.1l189.3-189.3v0L65.6,443.1L65.6,443.1z"/>
<path class="st18" d="M65.6,443.1l189.2-189.2v0L65.6,443.1L65.6,443.1z"/>
<path class="st19" d="M65.6,443.1l189.2-189.2v0L65.6,443.1L65.6,443.1z"/>
<path class="st20" d="M65.7,443.1l189.2-189.2v0L65.7,443.1L65.7,443.1z"/>
<path class="st21" d="M65.7,443.1L254.9,254v0L65.7,443.1L65.7,443.1z"/>
<path class="st23" d="M65.7,443.1L254.9,254v0L65.7,443.1L65.7,443.1z"/>
<path class="st24" d="M65.7,443.1L254.9,254v0L65.7,443.1L65.7,443.1z"/>
<path class="st24" d="M145.3,443.1l109.5-109.5V254L65.7,443.1H145.3z"/>
<path class="st24" d="M145.3,443.1l109.5-109.5v0L145.3,443.1L145.3,443.1z"/>
<path class="st23" d="M145.4,443.1l109.5-109.5v0L145.4,443.1L145.4,443.1z"/>
<path class="st21" d="M145.4,443.1l109.5-109.5v0L145.4,443.1L145.4,443.1z"/>
<path class="st20" d="M145.4,443.1l109.5-109.5v0L145.4,443.1L145.4,443.1z"/>
<path class="st19" d="M145.4,443.1l109.5-109.5v0L145.4,443.1L145.4,443.1z"/>
<path class="st18" d="M145.4,443.1l109.5-109.5v0L145.4,443.1L145.4,443.1z"/>
<path class="st17" d="M145.4,443.1l109.4-109.4v0L145.4,443.1L145.4,443.1z"/>
<path class="st16" d="M145.4,443.1l109.4-109.4v0L145.4,443.1L145.4,443.1z"/>
<path class="st54" d="M145.5,443.1l109.4-109.4v0L145.5,443.1L145.5,443.1z"/>
<path class="st15" d="M145.5,443.1l109.4-109.4v0L145.5,443.1L145.5,443.1z"/>
<path class="st14" d="M145.5,443.1l109.4-109.4v0L145.5,443.1L145.5,443.1z"/>
<path class="st53" d="M145.5,443.1l109.3-109.4v0L145.5,443.1L145.5,443.1z"/>
<path class="st52" d="M145.5,443.1l109.3-109.3v0L145.5,443.1L145.5,443.1z"/>
<path class="st25" d="M145.6,443.1l109.3-109.3v0L145.6,443.1L145.6,443.1z"/>
<path class="st51" d="M145.6,443.1l109.3-109.3v0L145.6,443.1L145.6,443.1z"/>
<path class="st50" d="M145.6,443.1l109.3-109.3v0L145.6,443.1L145.6,443.1z"/>
<path class="st11" d="M145.6,443.1l109.3-109.3v0L145.6,443.1L145.6,443.1z"/>
<path class="st26" d="M145.6,443.1l109.2-109.2v0L145.6,443.1L145.6,443.1z"/>
<path class="st10" d="M145.6,443.1l109.2-109.2v0L145.6,443.1L145.6,443.1z"/>
<path class="st49" d="M145.7,443.1l109.2-109.2v0L145.7,443.1L145.7,443.1z"/>
<path class="st27" d="M145.7,443.1l109.2-109.2v0L145.7,443.1L145.7,443.1z"/>
<path class="st48" d="M145.7,443.1L254.9,334v0L145.7,443.1L145.7,443.1z"/>
<path class="st47" d="M145.7,443.1L254.9,334v0L145.7,443.1L145.7,443.1z"/>
<path class="st8" d="M145.7,443.1L254.9,334v0L145.7,443.1L145.7,443.1z"/>
<path class="st46" d="M145.7,443.1L254.9,334v0L145.7,443.1L145.7,443.1z"/>
<path class="st29" d="M145.7,443.1L254.9,334v0L145.7,443.1L145.7,443.1z"/>
<path class="st7" d="M145.8,443.1L254.9,334v0L145.8,443.1L145.8,443.1z"/>
<path class="st30" d="M145.8,443.1l109.1-109.1v0L145.8,443.1L145.8,443.1z"/>
<path class="st45" d="M145.8,443.1l109.1-109.1v0L145.8,443.1L145.8,443.1z"/>
<path class="st44" d="M145.8,443.1l109.1-109.1v0L145.8,443.1L145.8,443.1z"/>
<path class="st6" d="M145.8,443.1l109-109v0L145.8,443.1L145.8,443.1z"/>
<path class="st43" d="M145.9,443.1l109-109v0L145.9,443.1L145.9,443.1z"/>
<path class="st42" d="M145.9,443.1l109-109v0L145.9,443.1L145.9,443.1z"/>
<path class="st33" d="M145.9,443.1l109-109v0L145.9,443.1L145.9,443.1z"/>
<path class="st5" d="M145.9,443.1l109-109v0L145.9,443.1L145.9,443.1z"/>
<path class="st41" d="M145.9,443.1l108.9-108.9v0L145.9,443.1L145.9,443.1z"/>
<path class="st34" d="M145.9,443.1l108.9-108.9v0L145.9,443.1L145.9,443.1z"/>
<path class="st35" d="M146,443.1l108.9-108.9v0L146,443.1L146,443.1z"/>
<path class="st4" d="M146,443.1l108.9-108.9v0L146,443.1L146,443.1z"/>
<path class="st36" d="M146,443.1l108.9-108.9v0L146,443.1L146,443.1z"/>
<path class="st37" d="M146,443.1l108.9-108.9v0L146,443.1L146,443.1z"/>
<path class="st38" d="M146,443.1l108.9-108.9v0L146,443.1L146,443.1z"/>
<path class="st40" d="M146,443.1l108.8-108.8v0L146,443.1L146,443.1z"/>
<path class="st3" d="M146,443.1l108.8-108.8v0L146,443.1L146,443.1z"/>
<path class="st0" d="M254.9,443.1V334.3L146,443.1H254.9z"/>
<path class="st0" d="M280.5,477.3v25.6c0,6.8-2.7,13.3-7.5,18.1c-4.8,4.8-11.3,7.5-18.1,7.5h-443.7c-6.8,0-13.3-2.7-18.1-7.5
	c-4.8-4.8-7.5-11.3-7.5-18.1v-25.6h179.2c4.7,0,8.5,3.8,8.5,8.5c0,4.7,3.8,8.5,8.5,8.5H84.2c4.7,0,8.5-3.8,8.5-8.5
	c0-4.7,3.8-8.5,8.5-8.5H280.5z"/>
<path class="st1" d="M254.9,477.3v25.6c0,6.8-2.7,13.3-7.5,18.1c-4.8,4.8-11.3,7.5-18.1,7.5h-418.1c-6.8,0-13.3-2.7-18.1-7.5
	c-4.8-4.8-7.5-11.3-7.5-18.1v-25.6h179.2c4.7,0,8.5,3.8,8.5,8.5c0,4.7,3.8,8.5,8.5,8.5H84.2c4.7,0,8.5-3.8,8.5-8.5
	c0-4.7,3.8-8.5,8.5-8.5H254.9z"/>
<path class="st0" d="M169.5,255.4v34.1c0,9.4-7.7,17-17.1,17.1h-17.1c-9.4,0-17-7.7-17.1-17.1v-34.1H169.5z"/>
<path class="st1" d="M152.5,255.4v34.1c0,9.4-7.6,17.1-17.1,17.1s-17.1-7.6-17.1-17.1v-34.1H152.5z"/>
<path class="st0" d="M-95,255.4v145.1h-51.2V255.4c0-4.7,3.8-8.5,8.5-8.5h34.1C-98.8,246.9-95,250.7-95,255.4z"/>
<path class="st0" d="M-9.7,323.7v76.8h-51.2v-76.8c0-4.7,3.8-8.5,8.5-8.5h34.1C-13.5,315.2-9.7,319-9.7,323.7z"/>
<path class="st1" d="M-35.3,323.7v76.8h-25.6v-76.8c0-4.7,3.8-8.5,8.5-8.5h8.5C-39.1,315.2-35.3,319-35.3,323.7z"/>
<path class="st0" d="M75.7,298.1v102.4H24.5V298.1c0-4.7,3.8-8.5,8.5-8.5h34.1C71.9,289.6,75.7,293.4,75.7,298.1z"/>
<path class="st1" d="M-120.6,255.4v145.1h-25.6V255.4c0-4.7,3.8-8.5,8.5-8.5h8.5C-124.4,246.9-120.6,250.7-120.6,255.4z"/>
<path class="st1" d="M50.1,298.1v102.4H24.5V298.1c0-4.7,3.8-8.5,8.5-8.5h8.5C46.2,289.6,50.1,293.4,50.1,298.1z"/>
<path class="st0" d="M237.8,127.4c0,29.4-13.8,57.2-37.4,74.8c-10.7,7.7-17.6,19.6-18.9,32.8l-1.6,13.8c-1,8.6-8.3,15.1-17,15.1H125
	c-8.6,0-15.9-6.4-17-15l-1.5-12.5c-1.5-13.9-8.8-26.4-20-34.7c-29.9-23.1-43.1-61.9-33.4-98.4s40.4-63.7,77.9-68.8
	c0.5-0.1,1.1-0.2,1.7-0.3c3.7-0.4,7.4-0.6,11.1-0.6c11,0,21.9,1.9,32.3,5.7c4.3,1.5,8.5,3.4,12.5,5.6c2.6,1.4,5.2,3,7.7,4.7
	c2.5,1.7,4.9,3.5,7.3,5.4C225.3,72.8,237.8,99.4,237.8,127.4z"/>
<path class="st1" d="M212.2,127.4c0,29.4-13.8,57.2-37.4,74.8c-10.7,7.7-17.6,19.6-18.9,32.8l-1.6,13.8c-1,8.6-8.3,15.1-17,15.1H125
	c-8.6,0-15.9-6.4-17-15l-1.5-12.5c-1.5-13.9-8.8-26.4-20-34.7c-29.9-23.1-43.1-61.9-33.4-98.4s40.4-63.7,77.9-68.8
	c6.6,0.9,13.2,2.5,19.5,4.9c4.3,1.5,8.5,3.4,12.5,5.6c2.6,1.4,5.2,3,7.7,4.7c2.5,1.7,4.9,3.5,7.3,5.4
	C199.7,72.8,212.2,99.4,212.2,127.4z"/>
<path class="st55" d="M-163.3,443.1V170.1c0-9.1,3.6-17.7,10-24.1c6.4-6.4,15.1-10,24.1-10h-25.6c-9.1,0-17.7,3.6-24.1,10
	c-6.4,6.4-10,15.1-10,24.1v307.2h25.6V443.1z"/>
<path class="st55" d="M-188.8,528.5h25.6c-6.8,0-13.3-2.7-18.1-7.5c-4.8-4.8-7.5-11.3-7.5-18.1v-25.6h-25.6v25.6
	c0,6.8,2.7,13.3,7.5,18.1C-202.2,525.8-195.6,528.5-188.8,528.5z"/>
<path class="st55" d="M-180.3,170.1v273.1h-17.1V170.1H-180.3z"/>
<path class="st56" d="M-188.8,246.9c3.4,0,6.6-2.1,7.9-5.3c1.3-3.2,0.6-6.9-1.8-9.3l-1.3-1c-0.5-0.3-1-0.6-1.5-0.8
	c-0.5-0.2-1-0.4-1.5-0.5c-0.6-0.1-1.1-0.2-1.7-0.2c-2.3,0-4.4,0.9-6.1,2.5c-2.1,2-3,4.9-2.4,7.7c0.6,2.8,2.5,5.1,5.2,6.2
	C-191.1,246.6-190,246.9-188.8,246.9z"/>
<path class="st56" d="M280.5,468.7h-17.1V170.1c0-13.6-6.5-26.4-17.5-34.5c0.2-2.7,0.5-5.4,0.5-8.2c0-53.6-41.4-98.2-94.9-102.1
	c-53.5-3.9-101,34-108.8,87.1c-0.7,5-1,10-1,15h-196.3c-23.6,0-42.6,19.1-42.7,42.7v34.1c0,4.7,3.8,8.5,8.5,8.5
	c4.7,0,8.5-3.8,8.5-8.5v-34.1c0-14.1,11.5-25.6,25.6-25.6H43.1c4.2,25.4,17.8,48.2,38.3,63.9c9.4,6.9,15.5,17.4,16.7,29l1.5,12.5
	c0.9,7,4.6,13.3,10.3,17.5V281c-4.7,0-8.5,3.8-8.5,8.5c0,4.7,3.8,8.5,8.5,8.5h1.6c3.6,10.2,13.2,17,24,17.1h17.1
	c10.8,0,20.4-6.9,24-17.1h1.6c4.7,0,8.5-3.8,8.5-8.5c0-4.7-3.8-8.5-8.5-8.5v-13.6c5.7-4.2,9.4-10.5,10.2-17.5l1.7-14.1
	c1.2-10.7,6.8-20.4,15.6-26.7c17.6-13.2,30.4-31.8,36.5-52.9c2.7,4.1,4.2,8.9,4.2,13.9v264.5h-128c-4.7,0-8.5,3.8-8.5,8.5
	c0,4.7,3.8,8.5,8.5,8.5h128v17.1H101.3c-9.4,0-17.1,7.6-17.1,17.1H-18.2c0-9.4-7.6-17.1-17.1-17.1h-145.1v-17.1H84.2
	c4.7,0,8.5-3.8,8.5-8.5c0-4.7-3.8-8.5-8.5-8.5h-264.5V272.5c0-4.7-3.8-8.5-8.5-8.5c-4.7,0-8.5,3.8-8.5,8.5v196.3h-17.1
	c-4.7,0-8.5,3.8-8.5,8.5v25.6c0,18.8,15.3,34.1,34.1,34.1h443.7c18.8,0,34.1-15.3,34.1-34.1v-25.6
	C289,472.6,285.2,468.7,280.5,468.7z M152.5,298.1h-17.1c-4.7,0-8.5-3.8-8.5-8.5v-17.1H161v17.1C161,294.3,157.2,298.1,152.5,298.1z
	 M195.3,195.5c-12.6,9.1-20.7,23.1-22.3,38.5l-1.6,13.9c-0.5,4.3-4.1,7.5-8.5,7.5H125c-4.3,0-8-3.2-8.5-7.5l-1.5-12.3
	c-1.7-16.2-10.1-31-23.2-40.8c-24.6-18.8-37-49.5-32.3-80.1c5.8-38,36.2-67.4,74.3-72.1c3.4-0.4,6.8-0.6,10.3-0.6
	c20.9-0.1,41.1,7.6,56.7,21.6c18.2,16.2,28.5,39.4,28.6,63.7C229.4,154.2,216.8,179.4,195.3,195.5z M271.9,502.9
	c0,9.4-7.6,17.1-17.1,17.1h-443.7c-9.4,0-17.1-7.6-17.1-17.1v-17.1h170.7c0,9.4,7.6,17.1,17.1,17.1H84.2c9.4,0,17.1-7.6,17.1-17.1
	h170.7V502.9z"/>
<path class="st56" d="M143.9,118.9c-4.7,0-8.5,3.8-8.5,8.5v8.5c0,4.7,3.8,8.5,8.5,8.5c4.7,0,8.5-3.8,8.5-8.5v-8.5
	C152.5,122.7,148.7,118.9,143.9,118.9z"/>
<path class="st56" d="M115.8,138.4c-3.3-3.2-8.7-3.2-12,0.1c-3.3,3.3-3.3,8.6-0.1,12l8.5,8.5c3.4,3.2,8.7,3.2,12-0.1
	c3.3-3.3,3.3-8.6,0.1-12L115.8,138.4z"/>
<path class="st56" d="M172,138.4l-8.5,8.5c-2.2,2.1-3.1,5.3-2.3,8.3c0.8,3,3.1,5.3,6.1,6.1s6.2-0.1,8.3-2.3l8.5-8.5
	c3.2-3.3,3.2-8.7-0.1-12C180.7,135.3,175.4,135.2,172,138.4z"/>
<path class="st56" d="M118.3,170.1h-8.5c-4.7,0-8.5,3.8-8.5,8.5c0,4.7,3.8,8.5,8.5,8.5h8.5c4.7,0,8.5-3.8,8.5-8.5
	C126.9,173.9,123.1,170.1,118.3,170.1z"/>
<path class="st56" d="M178.1,170.1h-8.5c-4.7,0-8.5,3.8-8.5,8.5c0,4.7,3.8,8.5,8.5,8.5h8.5c4.7,0,8.5-3.8,8.5-8.5
	C186.6,173.9,182.8,170.1,178.1,170.1z"/>
<path class="st56" d="M-103.5,238.3h-34.1c-9.4,0-17.1,7.6-17.1,17.1v136.5h-8.5c-4.7,0-8.5,3.8-8.5,8.5c0,4.7,3.8,8.5,8.5,8.5h256
	c4.7,0,8.5-3.8,8.5-8.5c0-4.7-3.8-8.5-8.5-8.5h-8.5v-93.9c0-9.4-7.6-17.1-17.1-17.1H33c-9.4,0-17.1,7.6-17.1,17.1v93.9H-1.1v-68.3
	c0-9.4-7.6-17.1-17.1-17.1h-34.1c-9.4,0-17.1,7.6-17.1,17.1v68.3h-17.1V255.4C-86.5,246-94.1,238.4-103.5,238.3z M-137.6,391.9
	V255.4h34.1v136.5H-137.6z M33,298.1h34.1v93.9H33V298.1z M-52.3,323.7h34.1v68.3h-34.1V323.7z"/>
<path class="st56" d="M135.4,349.3h8.5c4.7,0,8.5-3.8,8.5-8.5c0-4.7-3.8-8.5-8.5-8.5h-8.5c-4.7,0-8.5,3.8-8.5,8.5
	C126.9,345.5,130.7,349.3,135.4,349.3z"/>
<path class="st56" d="M178.1,349.3h34.1c4.7,0,8.5-3.8,8.5-8.5c0-4.7-3.8-8.5-8.5-8.5h-34.1c-4.7,0-8.5,3.8-8.5,8.5
	C169.5,345.5,173.4,349.3,178.1,349.3z"/>
<path class="st56" d="M135.4,383.4h8.5c4.7,0,8.5-3.8,8.5-8.5c0-4.7-3.8-8.5-8.5-8.5h-8.5c-4.7,0-8.5,3.8-8.5,8.5
	C126.9,379.6,130.7,383.4,135.4,383.4z"/>
<path class="st56" d="M178.1,383.4h34.1c4.7,0,8.5-3.8,8.5-8.5c0-4.7-3.8-8.5-8.5-8.5h-34.1c-4.7,0-8.5,3.8-8.5,8.5
	C169.5,379.6,173.4,383.4,178.1,383.4z"/>
<path class="st56" d="M135.4,417.5h8.5c4.7,0,8.5-3.8,8.5-8.5c0-4.7-3.8-8.5-8.5-8.5h-8.5c-4.7,0-8.5,3.8-8.5,8.5
	C126.9,413.7,130.7,417.5,135.4,417.5z"/>
<path class="st56" d="M178.1,417.5h34.1c4.7,0,8.5-3.8,8.5-8.5c0-4.7-3.8-8.5-8.5-8.5h-34.1c-4.7,0-8.5,3.8-8.5,8.5
	C169.5,413.7,173.4,417.5,178.1,417.5z"/>
</svg>
