<?xml version="1.0" encoding="utf-8"?>
<!-- Generator: Adobe Illustrator 19.0.0, SVG Export Plug-In . SVG Version: 6.00 Build 0)  -->
<svg version="1.1" id="Layer_1" xmlns="http://www.w3.org/2000/svg" xmlns:xlink="http://www.w3.org/1999/xlink" x="0px" y="0px"
	 viewBox="-49 141 512 512" style="enable-background:new -49 141 512 512;" xml:space="preserve">
<style type="text/css">
	.st0{fill:#9E5AFF;}
	.st1{fill:#AF88ED;}
	.st2{fill:#CAD9FC;}
	.st3{fill:#D3DFF2;}
	.st4{fill:#D8E1F2;}
	.st5{fill:#DCE3F2;}
	.st6{fill:#E0E5F2;}
	.st7{fill:#E4E7F2;}
	.st8{fill:#E7E8F2;}
	.st9{fill:#EAEAF2;}
	.st10{fill:#EDEBF2;}
	.st11{fill:#EFECF2;}
	.st12{fill:#F1EDF2;}
	.st13{fill:#F3EEF2;}
	.st14{fill:#F5EEF2;}
	.st15{fill:#F6EFF2;}
	.st16{fill:#F8F0F2;}
	.st17{fill:#F9F0F2;}
	.st18{fill:#FAF1F2;}
	.st19{fill:#FBF1F2;}
	.st20{fill:#FCF2F2;}
	.st21{fill:#FDF2F2;}
	.st22{fill:#FEF2F2;}
	.st23{fill:#FEF3F2;}
	.st24{fill:#FFF3F2;}
	.st25{fill:#F2EDF2;}
	.st26{fill:#EEEBF2;}
	.st27{fill:#EBEAF2;}
	.st28{fill:#E8E8F2;}
	.st29{fill:#E5E7F2;}
	.st30{fill:#E3E6F2;}
	.st31{fill:#E1E5F2;}
	.st32{fill:#DFE4F2;}
	.st33{fill:#DDE4F2;}
	.st34{fill:#DAE2F2;}
	.st35{fill:#D9E2F2;}
	.st36{fill:#D7E1F2;}
	.st37{fill:#D6E0F2;}
	.st38{fill:#D5E0F2;}
	.st39{fill:#D4E0F2;}
	.st40{fill:#D4DFF2;}
	.st41{fill:#DBE3F2;}
	.st42{fill:#DEE4F2;}
	.st43{fill:#DFE5F2;}
	.st44{fill:#E1E6F2;}
	.st45{fill:#E2E6F2;}
	.st46{fill:#E6E8F2;}
	.st47{fill:#E8E9F2;}
	.st48{fill:#EAE9F2;}
	.st49{fill:#ECEAF2;}
	.st50{fill:#F0ECF2;}
	.st51{fill:#F1ECF2;}
	.st52{fill:#F3EDF2;}
	.st53{fill:#F4EEF2;}
	.st54{fill:#F7EFF2;}
	.st55{fill:#FFFFFF;}
	.st56{fill:#7600FF;}
</style>
<path class="st0" d="M428.9,286.1v328.5H-14.9V286.1c0-9.1,3.6-17.7,10-24.1c6.4-6.4,15.1-10,24.1-10h375.5c9.1,0,17.7,3.6,24.1,10
	C425.3,268.3,428.9,277,428.9,286.1z"/>
<path class="st1" d="M403.3,286.1v328.5H-14.9V286.1c0-9.1,3.6-17.7,10-24.1c6.4-6.4,15.1-10,24.1-10h349.9c9.1,0,17.7,3.6,24.1,10
	C399.7,268.3,403.3,277,403.3,286.1z"/>
<path class="st2" d="M428.9,286.1v273.1H-14.9V286.1c0-9.1,3.6-17.7,10-24.1c6.4-6.4,15.1-10,24.1-10h375.5c9.1,0,17.7,3.6,24.1,10
	C425.3,268.3,428.9,277,428.9,286.1z"/>
<path class="st0" d="M21.4,251.9c-19.4-0.6-35.6,14.7-36.2,34.1v132.5l166.7-166.6H21.4z"/>
<path class="st3" d="M151.8,251.9L-14.9,418.6v0.1L151.8,251.9L151.8,251.9z"/>
<path class="st4" d="M151.9,251.9L-14.9,418.7v0.1L151.9,251.9L151.9,251.9z"/>
<path class="st5" d="M152,251.9L-14.9,418.8v0.1L152,251.9L152,251.9z"/>
<path class="st6" d="M152,251.9L-14.9,418.8v0.1L152,251.9L152,251.9z"/>
<path class="st7" d="M152.1,251.9l-167,167v0.1L152.1,251.9L152.1,251.9z"/>
<path class="st8" d="M152.2,251.9L-14.9,419v0.1L152.2,251.9L152.2,251.9z"/>
<path class="st9" d="M152.3,251.9L-14.9,419.1v0.1L152.3,251.9L152.3,251.9z"/>
<path class="st10" d="M152.4,251.9L-14.9,419.2v0.1L152.4,251.9L152.4,251.9z"/>
<path class="st11" d="M152.4,251.9L-14.9,419.2v0.1L152.4,251.9L152.4,251.9z"/>
<path class="st12" d="M152.5,251.9L-14.9,419.3v0.1L152.5,251.9L152.5,251.9z"/>
<path class="st13" d="M152.6,251.9L-14.9,419.4v0.1L152.6,251.9L152.6,251.9z"/>
<path class="st14" d="M152.7,251.9L-14.9,419.5v0.1L152.7,251.9L152.7,251.9z"/>
<path class="st15" d="M152.8,251.9L-14.9,419.6v0.1L152.8,251.9L152.8,251.9z"/>
<path class="st16" d="M152.8,251.9L-14.9,419.6v0.1L152.8,251.9L152.8,251.9z"/>
<path class="st17" d="M152.9,251.9L-14.9,419.7v0.1L152.9,251.9L152.9,251.9z"/>
<path class="st18" d="M153,251.9L-14.9,419.8v0.1L153,251.9L153,251.9z"/>
<path class="st19" d="M153.1,251.9l-168,168v0.1L153.1,251.9L153.1,251.9z"/>
<path class="st19" d="M153.2,251.9l-168,168v0.1L153.2,251.9L153.2,251.9z"/>
<path class="st20" d="M153.3,251.9L-14.9,420.1v0.1L153.3,251.9L153.3,251.9z"/>
<path class="st21" d="M153.3,251.9L-14.9,420.1v0.1L153.3,251.9L153.3,251.9z"/>
<path class="st21" d="M153.4,251.9L-14.9,420.2v0.1L153.4,251.9L153.4,251.9z"/>
<path class="st21" d="M153.5,251.9L-14.9,420.3v0.1L153.5,251.9L153.5,251.9z"/>
<path class="st22" d="M153.6,251.9L-14.9,420.4v0.1L153.6,251.9L153.6,251.9z"/>
<path class="st23" d="M153.7,251.9L-14.9,420.5v0.1L153.7,251.9L153.7,251.9z"/>
<path class="st23" d="M153.8,251.9L-14.9,420.6v0.1L153.8,251.9L153.8,251.9z"/>
<path class="st23" d="M153.8,251.9L-14.9,420.6v0.1L153.8,251.9L153.8,251.9z"/>
<path class="st24" d="M153.9,251.9L-14.9,420.7v0.1L153.9,251.9L153.9,251.9z"/>
<path class="st24" d="M154,251.9L-14.9,420.8v0.1L154,251.9L154,251.9z"/>
<path class="st24" d="M154.1,251.9l-169,169v0.1L154.1,251.9L154.1,251.9z"/>
<path class="st24" d="M154.2,251.9l-169,169v0.1L154.2,251.9L154.2,251.9z"/>
<path class="st24" d="M154.2,251.9L-14.9,421v0.1L154.2,251.9L154.2,251.9z"/>
<path class="st24" d="M154.3,251.9L-14.9,421.1v0.1L154.3,251.9L154.3,251.9z"/>
<path class="st24" d="M154.4,251.9L-14.9,421.2v0.1L154.4,251.9L154.4,251.9z"/>
<path class="st24" d="M154.5,251.9L-14.9,421.3v0.1L154.5,251.9L154.5,251.9z"/>
<path class="st24" d="M154.6,251.9L-14.9,421.4v0.1L154.6,251.9L154.6,251.9z"/>
<path class="st24" d="M154.7,251.9L-14.9,421.5v0.1L154.7,251.9L154.7,251.9z"/>
<path class="st24" d="M154.7,251.9L-14.9,421.5v0.1L154.7,251.9L154.7,251.9z"/>
<path class="st24" d="M154.8,251.9L-14.9,421.6v0.1L154.8,251.9L154.8,251.9z"/>
<path class="st24" d="M154.9,251.9L-14.9,421.7v0.1L154.9,251.9L154.9,251.9z"/>
<path class="st24" d="M155,251.9L-14.9,421.8v0.1L155,251.9L155,251.9z"/>
<path class="st24" d="M155.1,251.9L-14.9,421.9v0.1L155.1,251.9L155.1,251.9z"/>
<path class="st24" d="M155.2,251.9l-170,170v0.1L155.2,251.9L155.2,251.9z"/>
<path class="st24" d="M155.2,251.9L-14.9,422v0.1L155.2,251.9L155.2,251.9z"/>
<path class="st24" d="M155.3,251.9L-14.9,422.1v0.1L155.3,251.9L155.3,251.9z"/>
<path class="st24" d="M155.4,251.9L-14.9,422.2v40.2l210.5-210.5H155.4z"/>
<path class="st0" d="M195.6,251.9L-14.9,462.4v96.7H5.3l307.2-307.2H195.6z"/>
<path class="st3" d="M312.5,251.9L5.3,559.1h0.1L312.5,251.9L312.5,251.9z"/>
<path class="st4" d="M312.5,251.9L5.3,559.1h0.1L312.5,251.9L312.5,251.9z"/>
<path class="st5" d="M312.6,251.9L5.4,559.1h0.1L312.6,251.9L312.6,251.9z"/>
<path class="st6" d="M312.7,251.9L5.5,559.1h0.1L312.7,251.9L312.7,251.9z"/>
<path class="st7" d="M312.8,251.9L5.6,559.1h0.1L312.8,251.9L312.8,251.9z"/>
<path class="st8" d="M312.9,251.9L5.7,559.1h0.1L312.9,251.9L312.9,251.9z"/>
<path class="st9" d="M313,251.9L5.8,559.1h0.1L313,251.9L313,251.9z"/>
<path class="st10" d="M313,251.9L5.8,559.1h0.1L313,251.9L313,251.9z"/>
<path class="st11" d="M313.1,251.9L5.9,559.1H6L313.1,251.9L313.1,251.9z"/>
<path class="st12" d="M313.2,251.9L6,559.1h0.1L313.2,251.9L313.2,251.9z"/>
<path class="st13" d="M313.3,251.9L6.1,559.1h0.1L313.3,251.9L313.3,251.9z"/>
<path class="st14" d="M313.4,251.9L6.2,559.1h0.1L313.4,251.9L313.4,251.9z"/>
<path class="st15" d="M313.4,251.9L6.2,559.1h0.1L313.4,251.9L313.4,251.9z"/>
<path class="st16" d="M313.5,251.9L6.3,559.1h0.1L313.5,251.9L313.5,251.9z"/>
<path class="st17" d="M313.6,251.9L6.4,559.1h0.1L313.6,251.9L313.6,251.9z"/>
<path class="st18" d="M313.7,251.9L6.5,559.1h0.1L313.7,251.9L313.7,251.9z"/>
<path class="st19" d="M313.8,251.9L6.6,559.1h0.1L313.8,251.9L313.8,251.9z"/>
<path class="st19" d="M313.9,251.9L6.7,559.1h0.1L313.9,251.9L313.9,251.9z"/>
<path class="st20" d="M313.9,251.9L6.7,559.1h0.1L313.9,251.9L313.9,251.9z"/>
<path class="st21" d="M314,251.9L6.8,559.1h0.1L314,251.9L314,251.9z"/>
<path class="st21" d="M314.1,251.9L6.9,559.1H7L314.1,251.9L314.1,251.9z"/>
<path class="st21" d="M314.2,251.9L7,559.1h0.1L314.2,251.9L314.2,251.9z"/>
<path class="st22" d="M314.3,251.9L7.1,559.1h0.1L314.3,251.9L314.3,251.9z"/>
<path class="st23" d="M314.3,251.9L7.1,559.1h0.1L314.3,251.9L314.3,251.9z"/>
<path class="st23" d="M314.4,251.9L7.2,559.1h0.1L314.4,251.9L314.4,251.9z"/>
<path class="st23" d="M314.5,251.9L7.3,559.1h0.1L314.5,251.9L314.5,251.9z"/>
<path class="st24" d="M314.6,251.9L7.4,559.1h0.1L314.6,251.9L314.6,251.9z"/>
<path class="st24" d="M314.7,251.9L7.5,559.1h0.1L314.7,251.9L314.7,251.9z"/>
<path class="st24" d="M314.8,251.9L7.6,559.1h0.1L314.8,251.9L314.8,251.9z"/>
<path class="st24" d="M314.8,251.9L7.6,559.1h0.1L314.8,251.9L314.8,251.9z"/>
<path class="st24" d="M314.9,251.9L7.7,559.1h0.1L314.9,251.9L314.9,251.9z"/>
<path class="st24" d="M315,251.9L7.8,559.1h0.1L315,251.9L315,251.9z"/>
<path class="st24" d="M315.1,251.9L7.9,559.1H8L315.1,251.9L315.1,251.9z"/>
<path class="st24" d="M315.2,251.9L8,559.1h0.1L315.2,251.9L315.2,251.9z"/>
<path class="st24" d="M315.3,251.9L8.1,559.1h0.1L315.3,251.9L315.3,251.9z"/>
<path class="st24" d="M315.3,251.9L8.1,559.1h0.1L315.3,251.9L315.3,251.9z"/>
<path class="st24" d="M315.4,251.9L8.2,559.1h0.1L315.4,251.9L315.4,251.9z"/>
<path class="st24" d="M315.5,251.9L8.3,559.1h0.1L315.5,251.9L315.5,251.9z"/>
<path class="st24" d="M315.6,251.9L8.4,559.1h0.1L315.6,251.9L315.6,251.9z"/>
<path class="st24" d="M315.7,251.9L8.5,559.1h0.1L315.7,251.9L315.7,251.9z"/>
<path class="st24" d="M315.8,251.9L8.5,559.1h0.1L315.8,251.9L315.8,251.9z"/>
<path class="st24" d="M315.8,251.9L8.6,559.1h0.1L315.8,251.9L315.8,251.9z"/>
<path class="st24" d="M315.9,251.9L8.7,559.1h0.1L315.9,251.9L315.9,251.9z"/>
<path class="st24" d="M316,251.9L8.8,559.1h0.1L316,251.9L316,251.9z"/>
<path class="st24" d="M316.1,251.9L8.9,559.1h54.8l307.2-307.2H316.1z"/>
<path class="st24" d="M370.9,251.9L63.7,559.1h0L370.9,251.9L370.9,251.9z"/>
<path class="st18" d="M370.9,251.9L63.7,559.1h0L370.9,251.9L370.9,251.9z"/>
<path class="st15" d="M370.9,251.9L63.7,559.1h0L370.9,251.9L370.9,251.9z"/>
<path class="st25" d="M370.9,251.9L63.7,559.1h0L370.9,251.9L370.9,251.9z"/>
<path class="st26" d="M371,251.9L63.8,559.1h0L371,251.9L371,251.9z"/>
<path class="st27" d="M371,251.9L63.8,559.1h0L371,251.9L371,251.9z"/>
<path class="st28" d="M371,251.9L63.8,559.1h0L371,251.9L371,251.9z"/>
<path class="st29" d="M371,251.9L63.8,559.1h0L371,251.9L371,251.9z"/>
<path class="st30" d="M371,251.9L63.8,559.1h0L371,251.9L371,251.9z"/>
<path class="st31" d="M371,251.9L63.8,559.1h0L371,251.9L371,251.9z"/>
<path class="st32" d="M371.1,251.9L63.9,559.1h0L371.1,251.9L371.1,251.9z"/>
<path class="st33" d="M371.1,251.9L63.9,559.1h0L371.1,251.9L371.1,251.9z"/>
<path class="st5" d="M371.1,251.9L63.9,559.1h0L371.1,251.9L371.1,251.9z"/>
<path class="st34" d="M371.1,251.9L63.9,559.1h0L371.1,251.9L371.1,251.9z"/>
<path class="st35" d="M371.1,251.9L63.9,559.1h0L371.1,251.9L371.1,251.9z"/>
<path class="st4" d="M371.1,251.9L63.9,559.1h0L371.1,251.9L371.1,251.9z"/>
<path class="st36" d="M371.2,251.9L64,559.1h0L371.2,251.9L371.2,251.9z"/>
<path class="st36" d="M371.2,251.9L64,559.1h0L371.2,251.9L371.2,251.9z"/>
<path class="st37" d="M371.2,251.9L64,559.1h0L371.2,251.9L371.2,251.9z"/>
<path class="st38" d="M371.2,251.9L64,559.1h0L371.2,251.9L371.2,251.9z"/>
<path class="st38" d="M371.2,251.9L64,559.1h0L371.2,251.9L371.2,251.9z"/>
<path class="st38" d="M371.2,251.9L64,559.1h0L371.2,251.9L371.2,251.9z"/>
<path class="st39" d="M371.3,251.9L64.1,559.1h0L371.3,251.9L371.3,251.9z"/>
<path class="st40" d="M371.3,251.9L64.1,559.1h0L371.3,251.9L371.3,251.9z"/>
<path class="st40" d="M371.3,251.9L64.1,559.1h0L371.3,251.9L371.3,251.9z"/>
<path class="st40" d="M371.3,251.9L64.1,559.1h0L371.3,251.9L371.3,251.9z"/>
<g>
	<path class="st0" d="M371.3,251.9L64.1,559.1h0L371.3,251.9L371.3,251.9z"/>
	<path class="st0" d="M371.3,251.9L64.1,559.1h0L371.3,251.9L371.3,251.9z"/>
	<path class="st0" d="M371.4,251.9L64.2,559.1h0L371.4,251.9L371.4,251.9z"/>
	<path class="st0" d="M371.4,251.9L64.2,559.1h0L371.4,251.9L371.4,251.9z"/>
	<path class="st0" d="M371.4,251.9L64.2,559.1h0L371.4,251.9L371.4,251.9z"/>
	<path class="st0" d="M371.4,251.9L64.2,559.1h0L371.4,251.9L371.4,251.9z"/>
	<path class="st0" d="M371.4,251.9L64.2,559.1h0L371.4,251.9L371.4,251.9z"/>
	<path class="st0" d="M371.4,251.9L64.2,559.1h0L371.4,251.9L371.4,251.9z"/>
	<path class="st0" d="M371.5,251.9L64.3,559.1h0L371.5,251.9L371.5,251.9z"/>
	<path class="st0" d="M371.5,251.9L64.3,559.1h0L371.5,251.9L371.5,251.9z"/>
	<path class="st0" d="M371.5,251.9L64.3,559.1h0L371.5,251.9L371.5,251.9z"/>
	<path class="st0" d="M371.5,251.9L64.3,559.1h0L371.5,251.9L371.5,251.9z"/>
	<path class="st0" d="M371.5,251.9L64.3,559.1h0L371.5,251.9L371.5,251.9z"/>
	<path class="st0" d="M371.5,251.9L64.3,559.1h0L371.5,251.9L371.5,251.9z"/>
	<path class="st0" d="M371.6,251.9L64.4,559.1h0L371.6,251.9L371.6,251.9z"/>
	<path class="st0" d="M371.6,251.9L64.4,559.1h0L371.6,251.9L371.6,251.9z"/>
	<path class="st0" d="M371.6,251.9L64.4,559.1h0L371.6,251.9L371.6,251.9z"/>
	<path class="st0" d="M371.6,251.9L64.4,559.1h0L371.6,251.9L371.6,251.9z"/>
	<path class="st0" d="M392.6,251.9h-21L64.4,559.1H239l189.9-189.9v-83.2C428.3,266.6,412.1,251.4,392.6,251.9z"/>
	<path class="st0" d="M239,559.1l189.9-189.9v0L239,559.1L239,559.1z"/>
</g>
<path class="st40" d="M239,559.1l189.9-189.9v0L239,559.1L239,559.1z"/>
<path class="st38" d="M239,559.1l189.8-189.8v0L239,559.1L239,559.1z"/>
<path class="st37" d="M239,559.1l189.8-189.8v0L239,559.1L239,559.1z"/>
<path class="st36" d="M239.1,559.1l189.8-189.8v0L239.1,559.1L239.1,559.1z"/>
<path class="st4" d="M239.1,559.1l189.8-189.8v0L239.1,559.1L239.1,559.1z"/>
<path class="st35" d="M239.1,559.1l189.8-189.8v0L239.1,559.1L239.1,559.1z"/>
<path class="st34" d="M239.1,559.1l189.8-189.8v0L239.1,559.1L239.1,559.1z"/>
<path class="st41" d="M239.1,559.1l189.7-189.7v0L239.1,559.1L239.1,559.1z"/>
<path class="st5" d="M239.1,559.1l189.7-189.7v0L239.1,559.1L239.1,559.1z"/>
<path class="st33" d="M239.2,559.1l189.7-189.7v0L239.2,559.1L239.2,559.1z"/>
<path class="st42" d="M239.2,559.1l189.7-189.7v0L239.2,559.1L239.2,559.1z"/>
<path class="st43" d="M239.2,559.1l189.7-189.7v0L239.2,559.1L239.2,559.1z"/>
<path class="st6" d="M239.2,559.1l189.7-189.7v0L239.2,559.1L239.2,559.1z"/>
<path class="st44" d="M239.2,559.1l189.6-189.6v0L239.2,559.1L239.2,559.1z"/>
<path class="st45" d="M239.2,559.1l189.6-189.6v0L239.2,559.1L239.2,559.1z"/>
<path class="st30" d="M239.3,559.1l189.6-189.6v0L239.3,559.1L239.3,559.1z"/>
<path class="st7" d="M239.3,559.1l189.6-189.6v0L239.3,559.1L239.3,559.1z"/>
<path class="st29" d="M239.3,559.1l189.6-189.6v0L239.3,559.1L239.3,559.1z"/>
<path class="st46" d="M239.3,559.1l189.6-189.6v0L239.3,559.1L239.3,559.1z"/>
<path class="st8" d="M239.3,559.1l189.5-189.5v0L239.3,559.1L239.3,559.1z"/>
<path class="st47" d="M239.3,559.1l189.5-189.5v0L239.3,559.1L239.3,559.1z"/>
<path class="st48" d="M239.4,559.1l189.5-189.5v0L239.4,559.1L239.4,559.1z"/>
<path class="st27" d="M239.4,559.1l189.5-189.5v0L239.4,559.1L239.4,559.1z"/>
<path class="st49" d="M239.4,559.1l189.5-189.5v0L239.4,559.1L239.4,559.1z"/>
<path class="st10" d="M239.4,559.1l189.5-189.5v0L239.4,559.1L239.4,559.1z"/>
<path class="st26" d="M239.4,559.1l189.4-189.4v0L239.4,559.1L239.4,559.1z"/>
<path class="st11" d="M239.4,559.1l189.4-189.4v0L239.4,559.1L239.4,559.1z"/>
<path class="st50" d="M239.5,559.1l189.4-189.4v0L239.5,559.1L239.5,559.1z"/>
<path class="st51" d="M239.5,559.1l189.4-189.4v0L239.5,559.1L239.5,559.1z"/>
<path class="st25" d="M239.5,559.1l189.4-189.4v0L239.5,559.1L239.5,559.1z"/>
<path class="st52" d="M239.5,559.1l189.4-189.4v0L239.5,559.1L239.5,559.1z"/>
<path class="st53" d="M239.5,559.1l189.3-189.3v0L239.5,559.1L239.5,559.1z"/>
<path class="st14" d="M239.5,559.1l189.3-189.3v0L239.5,559.1L239.5,559.1z"/>
<path class="st15" d="M239.6,559.1l189.3-189.3v0L239.6,559.1L239.6,559.1z"/>
<path class="st54" d="M239.6,559.1l189.3-189.3v0L239.6,559.1L239.6,559.1z"/>
<path class="st16" d="M239.6,559.1l189.3-189.3v0L239.6,559.1L239.6,559.1z"/>
<path class="st17" d="M239.6,559.1l189.3-189.3v0L239.6,559.1L239.6,559.1z"/>
<path class="st18" d="M239.6,559.1l189.2-189.2v0L239.6,559.1L239.6,559.1z"/>
<path class="st19" d="M239.6,559.1l189.2-189.2v0L239.6,559.1L239.6,559.1z"/>
<path class="st20" d="M239.7,559.1l189.2-189.2v0L239.7,559.1L239.7,559.1z"/>
<path class="st21" d="M239.7,559.1l189.2-189.2v0L239.7,559.1L239.7,559.1z"/>
<path class="st23" d="M239.7,559.1L428.9,370v0L239.7,559.1L239.7,559.1z"/>
<path class="st24" d="M239.7,559.1L428.9,370v0L239.7,559.1L239.7,559.1z"/>
<path class="st24" d="M319.3,559.1l109.6-109.6V370L239.7,559.1H319.3z"/>
<path class="st24" d="M319.3,559.1l109.5-109.5v0L319.3,559.1L319.3,559.1z"/>
<path class="st23" d="M319.4,559.1l109.5-109.5v0L319.4,559.1L319.4,559.1z"/>
<path class="st21" d="M319.4,559.1l109.5-109.5v0L319.4,559.1L319.4,559.1z"/>
<path class="st20" d="M319.4,559.1l109.5-109.5v0L319.4,559.1L319.4,559.1z"/>
<path class="st19" d="M319.4,559.1l109.5-109.5v0L319.4,559.1L319.4,559.1z"/>
<path class="st18" d="M319.4,559.1l109.5-109.5v0L319.4,559.1L319.4,559.1z"/>
<path class="st17" d="M319.4,559.1l109.4-109.4v0L319.4,559.1L319.4,559.1z"/>
<path class="st16" d="M319.4,559.1l109.4-109.4v0L319.4,559.1L319.4,559.1z"/>
<path class="st54" d="M319.5,559.1l109.4-109.4v0L319.5,559.1L319.5,559.1z"/>
<path class="st15" d="M319.5,559.1l109.4-109.4v0L319.5,559.1L319.5,559.1z"/>
<path class="st14" d="M319.5,559.1l109.4-109.4v0L319.5,559.1L319.5,559.1z"/>
<path class="st53" d="M319.5,559.1l109.4-109.4v0L319.5,559.1L319.5,559.1z"/>
<path class="st52" d="M319.5,559.1l109.3-109.3v0L319.5,559.1L319.5,559.1z"/>
<path class="st25" d="M319.5,559.1l109.3-109.3v0L319.5,559.1L319.5,559.1z"/>
<path class="st51" d="M319.6,559.1l109.3-109.3v0L319.6,559.1L319.6,559.1z"/>
<path class="st50" d="M319.6,559.1l109.3-109.3v0L319.6,559.1L319.6,559.1z"/>
<path class="st11" d="M319.6,559.1l109.3-109.3v0L319.6,559.1L319.6,559.1z"/>
<path class="st26" d="M319.6,559.1l109.3-109.3v0L319.6,559.1L319.6,559.1z"/>
<path class="st10" d="M319.6,559.1l109.2-109.2v0L319.6,559.1L319.6,559.1z"/>
<path class="st49" d="M319.6,559.1l109.2-109.2v0L319.6,559.1L319.6,559.1z"/>
<path class="st27" d="M319.7,559.1l109.2-109.2v0L319.7,559.1L319.7,559.1z"/>
<path class="st48" d="M319.7,559.1l109.2-109.2v0L319.7,559.1L319.7,559.1z"/>
<path class="st47" d="M319.7,559.1L428.9,450v0L319.7,559.1L319.7,559.1z"/>
<path class="st8" d="M319.7,559.1L428.9,450v0L319.7,559.1L319.7,559.1z"/>
<path class="st46" d="M319.7,559.1L428.9,450v0L319.7,559.1L319.7,559.1z"/>
<path class="st29" d="M319.7,559.1L428.9,450v0L319.7,559.1L319.7,559.1z"/>
<path class="st7" d="M319.8,559.1L428.9,450v0L319.8,559.1L319.8,559.1z"/>
<path class="st30" d="M319.8,559.1L428.9,450v0L319.8,559.1L319.8,559.1z"/>
<path class="st45" d="M319.8,559.1l109.1-109.1v0L319.8,559.1L319.8,559.1z"/>
<path class="st44" d="M319.8,559.1l109.1-109.1v0L319.8,559.1L319.8,559.1z"/>
<path class="st6" d="M319.8,559.1l109-109v0L319.8,559.1L319.8,559.1z"/>
<path class="st43" d="M319.8,559.1l109-109v0L319.8,559.1L319.8,559.1z"/>
<path class="st42" d="M319.9,559.1l109-109v0L319.9,559.1L319.9,559.1z"/>
<path class="st33" d="M319.9,559.1l109-109v0L319.9,559.1L319.9,559.1z"/>
<path class="st5" d="M319.9,559.1l109-109v0L319.9,559.1L319.9,559.1z"/>
<path class="st41" d="M319.9,559.1l109-109v0L319.9,559.1L319.9,559.1z"/>
<path class="st34" d="M319.9,559.1l108.9-108.9v0L319.9,559.1L319.9,559.1z"/>
<path class="st35" d="M319.9,559.1l108.9-108.9v0L319.9,559.1L319.9,559.1z"/>
<path class="st4" d="M320,559.1l108.9-108.9v0L320,559.1L320,559.1z"/>
<path class="st36" d="M320,559.1l108.9-108.9v0L320,559.1L320,559.1z"/>
<path class="st37" d="M320,559.1l108.9-108.9v0L320,559.1L320,559.1z"/>
<path class="st38" d="M320,559.1l108.9-108.9v0L320,559.1L320,559.1z"/>
<path class="st40" d="M320,559.1l108.8-108.8v0L320,559.1L320,559.1z"/>
<path class="st3" d="M320,559.1l108.8-108.8v0L320,559.1L320,559.1z"/>
<path class="st0" d="M428.9,559.1V450.3L320,559.1H428.9z"/>
<path class="st0" d="M454.5,593.3v25.6c0,6.8-2.7,13.3-7.5,18.1c-4.8,4.8-11.3,7.5-18.1,7.5H-14.9c-6.8,0-13.3-2.7-18.1-7.5
	c-4.8-4.8-7.5-11.3-7.5-18.1v-25.6h179.2c4.7,0,8.5,3.8,8.5,8.5c0,4.7,3.8,8.5,8.5,8.5h102.4c4.7,0,8.5-3.8,8.5-8.5
	c0-4.7,3.8-8.5,8.5-8.5H454.5z"/>
<path class="st1" d="M428.9,593.3v25.6c0,6.8-2.7,13.3-7.5,18.1c-4.8,4.8-11.3,7.5-18.1,7.5H-14.9c-6.8,0-13.3-2.7-18.1-7.5
	c-4.8-4.8-7.5-11.3-7.5-18.1v-25.6h179.2c4.7,0,8.5,3.8,8.5,8.5c0,4.7,3.8,8.5,8.5,8.5h102.4c4.7,0,8.5-3.8,8.5-8.5
	c0-4.7,3.8-8.5,8.5-8.5H428.9z"/>
<path class="st55" d="M10.7,559.1V286.1c0-9.1,3.6-17.7,10-24.1c6.4-6.4,15.1-10,24.1-10H19.3c-9.1,0-17.7,3.6-24.1,10
	c-6.4,6.4-10,15.1-10,24.1v307.2h25.6V559.1z"/>
<path class="st55" d="M-14.9,618.9v-25.6h-25.6v25.6c0,6.8,2.7,13.3,7.5,18.1c4.8,4.8,11.3,7.5,18.1,7.5h25.6
	c-6.8,0-13.3-2.7-18.1-7.5C-12.2,632.2-14.9,625.7-14.9,618.9z"/>
<path class="st55" d="M-6.3,286.1v273.1h-17.1V286.1H-6.3z"/>
<path class="st56" d="M-14.9,362.9c3.4,0,6.6-2.1,7.9-5.3c1.3-3.2,0.6-6.9-1.8-9.3l-1.3-1c-0.5-0.3-1-0.6-1.5-0.8
	c-0.5-0.3-1-0.4-1.5-0.5c-0.6-0.1-1.1-0.2-1.7-0.2c-2.3,0-4.4,0.9-6.1,2.5c-2.1,2-3,4.9-2.4,7.7c0.6,2.8,2.5,5.1,5.2,6.2
	C-17.1,362.6-16,362.9-14.9,362.9z"/>
<path class="st56" d="M454.5,584.7h-17.1V286.1c0-23.6-19.1-42.6-42.7-42.7h-27.3c-0.8-2.1-1.7-4.2-2.7-6.2
	c-9.6-16.4-25.5-28-44-32.1c-13.5-3.4-27.5-4.5-41.4-3.5C261.5,164.1,235.9,141,207,141s-54.5,23.1-72.3,60.5
	c-13.9-1-27.9,0.2-41.4,3.5c-18.5,4.1-34.4,15.8-44,32.1c-1,2-1.9,4.1-2.7,6.2H19.3c-23.6,0-42.6,19.1-42.7,42.7v34.1
	c0,4.7,3.8,8.5,8.5,8.5c4.7,0,8.5-3.8,8.5-8.5v-34.1c0-14.1,11.5-25.6,25.6-25.6h22.9c-2.5,22,5,47.2,20.7,72.5
	c-21.7,34.9-28,69.6-13.6,95.8c9.6,16.4,25.5,28,44,32.1c10.4,2.7,21.1,4,31.8,3.9c3.1,0,6.3-0.3,9.5-0.4
	c17.9,37.5,43.5,60.6,72.4,60.6s54.5-23.1,72.4-60.6c3.2,0.2,6.4,0.4,9.5,0.4c10.7,0.1,21.4-1.2,31.8-3.9
	c18.5-4.1,34.5-15.8,44-32.1c14.3-26.2,8-60.9-13.6-95.8c15.7-25.3,23.3-50.6,20.7-72.5h22.9c14.1,0,25.6,11.5,25.6,25.6v264.5h-128
	c-4.7,0-8.5,3.8-8.5,8.5c0,4.7,3.8,8.5,8.5,8.5h128v17.1H275.3c-9.4,0-17.1,7.6-17.1,17.1H155.8c0-9.4-7.6-17.1-17.1-17.1H-6.3
	v-17.1h264.5c4.7,0,8.5-3.8,8.5-8.5c0-4.7-3.8-8.5-8.5-8.5H-6.3V388.5c0-4.7-3.8-8.5-8.5-8.5c-4.7,0-8.5,3.8-8.5,8.5v196.3h-17.1
	c-4.7,0-8.5,3.8-8.5,8.5v25.6c0,18.8,15.3,34.1,34.1,34.1h443.7c18.8,0,34.1-15.3,34.1-34.1v-25.6
	C463,588.6,459.2,584.7,454.5,584.7z M207,158.1c20.5,0,39.5,17.4,54,45.5c-18.5,3-36.6,8.1-54,15.1c-17.4-7-35.5-12.1-54-15.1
	C167.5,175.5,186.5,158.1,207,158.1z M157.6,243.3c-8.5,5.2-16.4,10.6-24.1,16.3c3-13.6,7-27,12.1-39.9c13.2,1.7,26.3,4.7,39,8.9
	C175.5,233,166.5,237.9,157.6,243.3z M109.7,363.4c-9.5-9.4-18.1-19.6-25.9-30.4c7.8-10.9,16.4-21,25.9-30.4
	c-0.8,9.9-1.2,20-1.2,30.4C108.5,343.4,108.9,353.5,109.7,363.4L109.7,363.4z M166.5,408.1c-13.2-8.1-25.7-17.1-37.6-27
	c-4.4-31.9-4.4-64.3,0-96.2c23.5-19.7,49.8-35.9,78.1-47.8c28.3,12,54.6,28.1,78.1,47.8c2.2,15.9,3.3,32,3.3,48.1
	c0,16.1-1.1,32.2-3.3,48.1c-11.8,9.9-24.4,18.9-37.6,27c-13,7.9-26.5,14.9-40.5,20.9C193,423,179.5,416.1,166.5,408.1L166.5,408.1z
	 M184.7,437.4c-12.7,4.2-25.7,7.2-39,9c-5.1-13-9.2-26.4-12.2-40c7.7,5.6,15.6,11.1,24.1,16.3C166.5,428.1,175.6,432.9,184.7,437.4
	L184.7,437.4z M256.4,422.7c8.5-5.2,16.4-10.6,24.1-16.3c-3,13.7-7,27-12.2,40c-13.3-1.8-26.3-4.8-39-9
	C238.4,432.9,247.5,428.1,256.4,422.7L256.4,422.7z M304.3,302.6c9.5,9.4,18.1,19.6,25.9,30.4c-7.8,10.9-16.4,21-25.9,30.4
	c0.8-9.9,1.2-20,1.2-30.4C305.5,322.6,305.1,312.5,304.3,302.6z M256.4,243.3c-8.9-5.4-17.9-10.3-27-14.8c12.7-4.2,25.7-7.1,39-8.9
	c5.1,13,9.2,26.3,12.1,39.9C272.8,254,264.9,248.5,256.4,243.3L256.4,243.3z M64.3,245.4c7.3-12.3,19.4-20.9,33.4-23.8
	c9.1-2.3,18.4-3.5,27.8-3.4c0.7,0,1.4,0.1,2,0.1c-6.9,18.7-11.8,38-14.7,57.6c-14.4,12.4-27.5,26.2-39,41.3
	C58.5,290.1,54,264.1,64.3,245.4z M97.7,444.5c-14-2.9-26.1-11.5-33.4-23.8c-10.2-18.8-5.7-44.7,9.6-71.8
	c11.5,15.1,24.6,28.9,39,41.3c2.9,19.7,7.9,39,14.8,57.7C117.5,448,107.5,446.9,97.7,444.5L97.7,444.5z M207,507.9
	c-20.5,0-39.5-17.4-54-45.5c18.5-3,36.6-8.1,54-15.1c17.4,7,35.5,12,54,15.1C246.5,490.5,227.5,507.9,207,507.9z M349.7,420.6
	c-7.3,12.3-19.4,20.9-33.4,23.8c-9.8,2.5-19.8,3.6-29.9,3.3c6.9-18.7,11.8-38,14.8-57.7c14.4-12.4,27.5-26.2,39-41.3
	C355.5,375.9,360,401.9,349.7,420.6L349.7,420.6z M340.2,317.2c-11.5-15.1-24.6-28.9-39-41.3c-2.9-19.7-7.9-39-14.7-57.6
	c0.7,0,1.4-0.1,2-0.1c9.4-0.1,18.7,1,27.8,3.4c14,2.9,26.1,11.5,33.4,23.8C360,264.1,355.5,290.1,340.2,317.2L340.2,317.2z
	 M445.9,618.9c0,9.4-7.6,17.1-17.1,17.1H-14.9c-9.4,0-17.1-7.6-17.1-17.1v-17.1h170.7c0,9.4,7.6,17.1,17.1,17.1h102.4
	c9.4,0,17.1-7.6,17.1-17.1h170.7V618.9z"/>
<path class="st55" d="M19.3,499.4c2.3,0,4.5-0.9,6.1-2.5c0.8-0.8,1.4-1.8,1.8-2.8c0.9-2.1,0.9-4.4,0-6.5c-0.4-1-1-2-1.8-2.8
	c-0.8-0.8-1.8-1.4-2.8-1.8c-3.2-1.3-6.8-0.6-9.3,1.8c-0.8,0.8-1.4,1.8-1.8,2.8c-0.4,1-0.7,2.1-0.7,3.2c0,1.1,0.2,2.2,0.7,3.2
	c0.4,1,1,2,1.8,2.8C14.8,498.5,17,499.4,19.3,499.4z"/>
<path class="st56" d="M70.5,499.4c4.7,0,8.5-3.8,8.5-8.5c0-4.7-3.8-8.5-8.5-8.5H44.9c-4.7,0-8.5,3.8-8.5,8.5c0,4.7,3.8,8.5,8.5,8.5
	H70.5z"/>
<path class="st56" d="M19.3,533.5H79c4.7,0,8.5-3.8,8.5-8.5c0-4.7-3.8-8.5-8.5-8.5H19.3c-4.7,0-8.5,3.8-8.5,8.5
	C10.7,529.7,14.6,533.5,19.3,533.5z"/>
<path class="st55" d="M138.7,533.5c4.7,0,8.5-3.8,8.5-8.5c0-4.7-3.8-8.5-8.5-8.5h-25.6c-4.7,0-8.5,3.8-8.5,8.5
	c0,4.7,3.8,8.5,8.5,8.5H138.7z"/>
<path class="st56" d="M394.7,499.4c2.3,0,4.5-0.9,6.1-2.5c0.8-0.8,1.4-1.8,1.8-2.8c0.5-1,0.7-2.1,0.7-3.2c0-1.1-0.2-2.2-0.7-3.2
	c-0.4-1-1-2-1.8-2.8c-2.5-2.4-6.1-3.1-9.3-1.8c-1,0.4-2,1-2.8,1.8c-0.8,0.8-1.4,1.8-1.8,2.8c-0.9,2.1-0.9,4.4,0,6.5
	c0.4,1,1,2,1.8,2.8C390.3,498.5,392.5,499.4,394.7,499.4z"/>
<path class="st56" d="M369.1,499.4c4.7,0,8.5-3.8,8.5-8.5c0-4.7-3.8-8.5-8.5-8.5h-25.6c-4.7,0-8.5,3.8-8.5,8.5
	c0,4.7,3.8,8.5,8.5,8.5H369.1z"/>
<path class="st56" d="M326.5,525c0,2.3,0.9,4.4,2.5,6s3.8,2.5,6,2.5h59.7c4.7,0,8.5-3.8,8.5-8.5c0-4.7-3.8-8.5-8.5-8.5H335
	C330.3,516.5,326.5,520.3,326.5,525z"/>
<path class="st56" d="M300.9,533.5c4.7,0,8.5-3.8,8.5-8.5c0-4.7-3.8-8.5-8.5-8.5h-25.6c-4.7,0-8.5,3.8-8.5,8.5
	c0,4.7,3.8,8.5,8.5,8.5H300.9z"/>
</svg>
