<?xml version="1.0" encoding="utf-8"?>
<!-- Generator: Adobe Illustrator 19.0.0, SVG Export Plug-In . SVG Version: 6.00 Build 0)  -->
<svg version="1.1" xmlns="http://www.w3.org/2000/svg" xmlns:xlink="http://www.w3.org/1999/xlink" x="0px" y="0px"
	 viewBox="0 0 1280 400" style="enable-background:new 0 0 1280 400;" xml:space="preserve">
<style type="text/css">
	.st0{display:none;}
	.st1{display:inline;fill:#646366;}
	.st2{display:none;fill:#FFFFFF;}
	.st3{fill:#7640CC;}
	.st4{fill:#FFFFFF;}
	.st5{font-family:'Poppins-Bold';}
	.st6{font-size:171px;}
</style>
<g id="Layer_1" class="st0">
	<rect id="XMLID_2_" class="st1" width="1280" height="400"/>
</g>
<g id="Layer_2">
	<path id="XMLID_1_" class="st2" d="M385.7,356.2H154c-22.1,0-40-17.9-40-40V84.4c0-22.1,17.9-40,40-40h231.8c22.1,0,40,17.9,40,40
		v231.8C425.7,338.3,407.8,356.2,385.7,356.2z"/>
	<path id="XMLID_97_" class="st3" d="M269.8,101.8"/>
	<polygon id="XMLID_90_" class="st4" points="161.2,263.6 161.3,138.3 269.9,75.6 378.4,138.2 378.2,263.5 359,274.4 359,148 
		270.5,96.3 182,148 182,275.5 	"/>
	<polygon id="XMLID_87_" class="st4" points="202.2,158.7 223.2,146.8 222.9,273.2 243.8,283.7 244,134.7 269.7,119.8 296.2,135.2 
		296,283.7 316.4,273.2 316.6,147 337.5,159.1 337.3,286.6 269.8,324.9 202.2,287.6 	"/>
</g>
<g id="Layer_3">
	<text id="XMLID_3_" transform="matrix(1 0 0 1 467.5993 260.5279)" class="st4 st5 st6">Scientics</text>
</g>
</svg>
