<?xml version="1.0" encoding="utf-8"?>
<!-- Generator: Adobe Illustrator 19.0.0, SVG Export Plug-In . SVG Version: 6.00 Build 0)  -->
<svg version="1.1" id="Layer_1" xmlns="http://www.w3.org/2000/svg" xmlns:xlink="http://www.w3.org/1999/xlink" x="0px" y="0px"
	 viewBox="0 0 256 256" style="enable-background:new 0 0 256 256;" xml:space="preserve">
<style type="text/css">
	.st0{fill:#7114AF;}
	.st1{fill:#FFFFFF;}
</style>
<path id="XMLID_1_" class="st0" d="M238,256H18c-9.9,0-18-8.1-18-18V18C0,8.1,8.1,0,18,0h220c9.9,0,18,8.1,18,18v220
	C256,247.9,247.9,256,238,256z"/>
<g id="XMLID_2_">
	<g id="XMLID_28_">
		<path id="XMLID_32_" class="st1" d="M28.5,94.9c18.2,18.2,36.5,36.5,54.7,54.7c2.6,2.6,5.2,5.2,7.9,7.9c5.7,5.7,15.5,5.7,21.2,0
			c5.7-5.7,5.7-15.5,0-21.2C94.1,118,75.8,99.8,57.6,81.5c-2.6-2.6-5.2-5.2-7.9-7.9c-5.7-5.7-15.5-5.7-21.2,0
			C22.8,79.4,22.8,89.1,28.5,94.9L28.5,94.9z"/>
	</g>
</g>
<g id="XMLID_4_">
	<g id="XMLID_22_">
		<path id="XMLID_27_" class="st1" d="M90.9,51.8c18.2,18.2,36.5,36.5,54.7,54.7c2.6,2.6,5.2,5.2,7.9,7.9c5.7,5.7,15.5,5.7,21.2,0
			c5.7-5.7,5.7-15.5,0-21.2c-18.2-18.2-36.5-36.5-54.7-54.7c-2.6-2.6-5.2-5.2-7.9-7.9c-5.7-5.7-15.5-5.7-21.2,0
			C85.2,36.3,85.2,46.1,90.9,51.8L90.9,51.8z"/>
	</g>
</g>
<g id="XMLID_3_">
	<g id="XMLID_18_">
		<path id="XMLID_26_" class="st1" d="M206.9,93.2c-32.2,32.2-64.5,64.5-96.7,96.7c-4.6,4.6-9.2,9.2-13.8,13.8
			c-5.7,5.7-5.7,15.5,0,21.2c5.7,5.7,15.5,5.7,21.2,0c32.2-32.2,64.5-64.5,96.7-96.7c4.6-4.6,9.2-9.2,13.8-13.8
			c5.7-5.7,5.7-15.5,0-21.2C222.3,87.4,212.6,87.4,206.9,93.2L206.9,93.2z"/>
	</g>
</g>
</svg>
