<?xml version="1.0" encoding="utf-8"?>
<!-- Generator: Adobe Illustrator 19.0.0, SVG Export Plug-In . SVG Version: 6.00 Build 0)  -->
<svg version="1.1" id="Layer_1" xmlns="http://www.w3.org/2000/svg" xmlns:xlink="http://www.w3.org/1999/xlink" x="0px" y="0px"
	 viewBox="-223 25 512 512" style="enable-background:new -223 25 512 512;" xml:space="preserve">
<style type="text/css">
	.st0{fill:#8841F7;}
	.st1{fill:#9E5AFF;}
	.st2{fill:#AF88ED;}
	.st3{fill:#E8EDFC;}
	.st4{fill:#FFFFFF;}
	.st5{fill:#7600FF;}
</style>
<path class="st0" d="M280.5,161.6v332.8c0,9.4-7.7,17-17.1,17.1H82.8c-4.5,0-8.9,1.8-12.1,5l-7,7c-3.2,3.2-7.6,5-12.1,5h-37
	c-4.5,0-8.9-1.8-12.1-5l-7-7c-3.2-3.2-7.6-5-12.1-5h-180.6c-9.4,0-17-7.7-17.1-17.1V161.6c0-9.4,7.7-17,17.1-17.1h460.8
	C272.8,144.5,280.4,152.1,280.5,161.6z"/>
<path class="st1" d="M254.9,161.6v332.8c0,9.4-7.7,17-17.1,17.1H57.2c-4.5,0-8.9,1.8-12.1,5l-7,7c-3.2,3.2-7.6,5-12.1,5H14.5
	c-4.5,0-8.9-1.8-12.1-5l-7-7c-3.2-3.2-7.6-5-12.1-5h-180.6c-9.4,0-17-7.7-17.1-17.1V161.6c0-9.4,7.7-17,17.1-17.1h435.2
	C247.2,144.5,254.8,152.1,254.9,161.6z"/>
<path class="st2" d="M138.6,97h4c21.9,0,43.8,1.9,65.4,5.6c13.8,2.4,25.1,4.7,31.7,6.1c3.9,0.9,6.7,4.4,6.7,8.4v349.4
	c0,2.6-1.1,5-3.1,6.6c-2,1.6-4.6,2.3-7.1,1.7c-37.5-7.9-166.2-31.9-196.6,7.8c-1.6,2-4,3.1-6.5,3.1c-2.5,0-4.9-1.2-6.5-3.1
	C-3.8,443.1-132.6,467-170.1,475c-2.5,0.5-5.1-0.1-7.1-1.7c-2-1.6-3.1-4.1-3.1-6.6V117.2c0-4,2.7-7.5,6.7-8.4
	c6.6-1.4,17.8-3.8,31.7-6.1c21.6-3.8,43.5-5.6,65.4-5.6H138.6z"/>
<path class="st1" d="M246.3,117.2v349.4c0,2.6-1.1,5-3.1,6.6c-2,1.6-4.6,2.3-7.1,1.7c-4.4-0.9-10.2-2.1-17-3.3
	c-37.7-7.7-76.2-11.3-114.7-10.8c-28.8,1.3-53.7,7.3-64.9,22c-1.5,2-3.9,3.2-6.5,3.2V97h109.6c21.9,0,43.8,1.9,65.4,5.6
	c13.8,2.4,25.1,4.7,31.7,6.1C243.6,109.7,246.4,113.2,246.3,117.2z"/>
<path class="st2" d="M220.7,117.2v349.4c0,2.6-1.1,5-3.1,6.6c-2,1.6-4.6,2.3-7.1,1.7c-34.9-7.5-70.4-12.3-106.1-14.2
	c-24.1-2-48.4,0.9-71.4,8.4V97h84c21.9,0,43.8,1.9,65.4,5.6c13.8,2.4,25.1,4.7,31.7,6.1C218,109.7,220.8,113.2,220.7,117.2z"/>
<path class="st1" d="M152.5,153c0,33-13.7,64.6-37.9,87.1c-19,17.2-30,41.5-30.4,67.2v7.8c0,4.7-3.8,8.5-8.5,8.5H-9.6
	c-4.7,0-8.5-3.8-8.5-8.5v-7.8c-0.2-25.5-11.1-49.7-30-66.8c-27.2-25.1-41.2-61.5-37.7-98.4C-80.4,85.5-36,40.5,20.6,34.2
	c2.2-0.3,4.4-0.4,6.7-0.5c2-0.1,3.8-0.2,5.8-0.2C99,33.6,152.5,87.1,152.5,153z"/>
<path class="st2" d="M126.9,153c0,33-13.7,64.6-37.9,87.1c-19,17.2-30,41.5-30.4,67.2v7.8c0,4.7-3.8,8.5-8.5,8.5H-9.6
	c-4.7,0-8.5-3.8-8.5-8.5v-7.8c-0.2-25.5-11.1-49.7-30-66.8c-27.2-25.1-41.2-61.5-37.7-98.4C-80.4,85.5-36,40.5,20.6,34.2
	C81.1,41,126.9,92.1,126.9,153z"/>
<path class="st1" d="M75.7,323.7v42.7c0,4.7-3.8,8.5-8.5,8.5H-1.1c-4.7,0-8.5-3.8-8.5-8.5v-42.7H75.7z"/>
<path class="st3" d="M50.1,323.7v42.7c0,4.7-3.8,8.5-8.5,8.5H-1.1c-4.7,0-8.5-3.8-8.5-8.5v-42.7H50.1z"/>
<path class="st1" d="M-1.1,374.9c0,18.9,15.3,34.1,34.1,34.1s34.1-15.3,34.1-34.1H-1.1z"/>
<path class="st4" d="M-188.8,494.3V161.6c0-9.4,7.7-17,17.1-17.1h17.1v-27.3c0-4,2.7-7.5,6.7-8.4c6.6-1.4,17.8-3.8,31.7-6.1
	c21.6-3.8,43.5-5.6,65.4-5.6h4.3C-28,62.2,6.6,38.7,45.9,34.3c-4.3-0.5-8.6-0.7-12.9-0.7c-2,0-3.8,0.1-5.8,0.2
	c-2.2,0.1-4.4,0.3-6.7,0.5C-18.8,38.6-53.6,62.1-72.3,97h-4.3c-21.9,0-43.8,1.9-65.4,5.6c-13.8,2.4-25.1,4.7-31.7,6.1
	c-3.9,0.9-6.7,4.4-6.7,8.4v27.3h-17.1c-9.4,0-17,7.7-17.1,17.1v332.8c0,9.4,7.7,17,17.1,17.1h25.6
	C-181.2,511.4-188.8,503.8-188.8,494.3z"/>
<path class="st4" d="M-205.9,161.6v332.8H-223V161.6H-205.9z"/>
<g>
	<path class="st5" d="M-214.4,238.4c2.3,0,4.4-0.9,6.1-2.5c3.3-3.4,3.3-8.7,0-12.1l-1.3-1c-0.5-0.3-1-0.6-1.5-0.8
		c-0.5-0.2-1-0.4-1.5-0.5c-0.6-0.1-1.1-0.2-1.7-0.2c-2.3,0-4.4,0.9-6.1,2.5c-3.2,3.4-3.2,8.7,0,12.1c0.8,0.8,1.8,1.4,2.8,1.8
		C-216.7,238.1-215.6,238.3-214.4,238.4z"/>
	<path class="st5" d="M263.4,136h-8.5v-18.8c0-8-5.6-14.9-13.4-16.7c-4.3-0.9-16-3.4-32-6.2c-21.8-3.8-43.8-5.7-65.9-5.7
		c-6-10.4-13.5-19.8-22.2-28.1c-25.3-24.3-59.5-37-94.5-35.2c-43.2,2.2-82.5,26-104.3,63.4c-22.1,0-44.2,2-66,5.7
		c-16,2.8-27.7,5.3-32,6.2c-7.8,1.8-13.4,8.7-13.4,16.7V136h-8.5c-14.1,0-25.6,11.5-25.6,25.6v34.1c0,4.7,3.8,8.5,8.5,8.5
		c4.7,0,8.5-3.8,8.5-8.5v-34.1c0-4.7,3.8-8.5,8.5-8.5h8.5v313.6c0,5.2,2.3,10.2,6.4,13.4c4,3.2,9.2,4.4,14.1,3.3
		c73.2-15.5,166.4-23.6,188,4.7c3.2,4.1,8.1,6.5,13.3,6.5c5.2,0,10.1-2.4,13.3-6.5c21.6-28.3,114.8-20.2,187.9-4.7
		c5,1.1,10.2-0.1,14.2-3.3c4.1-3.2,6.4-8.2,6.4-13.4V153h8.5c4.7,0,8.5,3.8,8.5,8.5v332.8c0,4.7-3.8,8.5-8.5,8.5H82.7
		c-6.8,0-13.3,2.7-18.1,7.5l-7.1,7.1c-1.6,1.6-3.8,2.5-6,2.5H14.5c-2.3,0-4.4-0.9-6-2.5l-7.1-7.1c-4.8-4.8-11.3-7.5-18.1-7.5h-180.7
		c-4.7,0-8.5-3.8-8.5-8.5V263.9c0-4.7-3.8-8.5-8.5-8.5c-4.7,0-8.5,3.8-8.5,8.5v230.4c0,14.1,11.5,25.6,25.6,25.6h180.7
		c2.3,0,4.4,0.9,6,2.5l7.1,7.1c4.8,4.8,11.3,7.5,18.1,7.5h37.1c6.8,0,13.3-2.7,18.1-7.5l7.1-7.1c1.6-1.6,3.8-2.5,6-2.5h180.7
		c14.1,0,25.6-11.5,25.6-25.6V161.6C289,147.4,277.5,136,263.4,136z M27.6,42.2c1.8-0.1,3.6-0.1,5.4-0.1
		c61.2,0,110.9,49.7,110.9,110.9c0.1,30.7-12.6,60-35.2,80.9C88,252.7,76,279.3,75.7,307.3v7.8H-9.6v-7.9
		c-0.3-27.9-12.2-54.3-32.8-73.1c-25.3-23.3-38.2-57.1-35-91.4c1.4-14.8,5.7-29.2,12.8-42.2c0.1-0.1,0.1-0.2,0.2-0.3
		C-46,66.2-11.1,44.2,27.6,42.2z M33,400.5c-10.8,0-20.4-6.9-24-17.1H57C53.4,393.6,43.8,400.4,33,400.5z M67.2,366.3H-1.1v-34.1
		h68.3L67.2,366.3z M-171.8,466.6l0-322c0-0.1,0-0.1,0-0.2c0-0.1,0-0.1,0-0.2v-27.2c4.2-0.9,15.6-3.4,31.3-6.1
		c18.1-3.1,36.3-4.9,54.6-5.3c-19.6,49-6.9,105.1,31.9,140.9c17.1,15.5,27,37.5,27.3,60.6v7.9c0,6.1,3.3,11.7,8.5,14.7v36.5
		c0,6.3,3.6,12.1,9.2,15c2.7,17.7,16.1,31.7,33.6,35.3c-0.1,0.3-0.1,0.6-0.2,0.8v51.6C-17.1,438.4-124.8,456.6-171.8,466.6z
		 M41.5,469.5v-52c0-0.3-0.1-0.6-0.2-0.8c17.5-3.6,30.9-17.7,33.6-35.3c5.6-2.9,9.2-8.7,9.2-15v-36.5c5.3-3,8.5-8.6,8.5-14.7v-7.8
		c0.3-23.3,10.3-45.4,27.7-60.9c38.5-35.9,51-91.7,31.5-140.6c18.3,0.4,36.6,2.2,54.6,5.3c15.7,2.7,27.1,5.2,31.2,6.1l0,27.3l0,0
		l0,0l0.1,322.1C190.6,456.6,82.3,438.2,41.5,469.5z"/>
	<path class="st5" d="M-152.2,398c3.4,3.3,8.8,3.3,12.1,0c0.8-0.8,1.4-1.8,1.8-2.8c0.9-2.1,0.9-4.4,0-6.5c-0.4-1-1-2-1.8-2.8
		c-0.8-0.8-1.8-1.4-2.8-1.8c-3.2-1.3-6.9-0.6-9.3,1.8c-0.8,0.8-1.4,1.8-1.8,2.8c-0.4,1-0.7,2.1-0.7,3.2c0,1.1,0.2,2.2,0.7,3.2
		C-153.6,396.2-153,397.2-152.2,398z"/>
	<path class="st5" d="M-120.6,400.5H-95c4.7,0,8.5-3.8,8.5-8.5c0-4.7-3.8-8.5-8.5-8.5h-25.6c-4.7,0-8.5,3.8-8.5,8.5
		C-129.1,396.7-125.3,400.5-120.6,400.5z"/>
	<path class="st5" d="M-86.4,417.5h-59.7c-4.7,0-8.5,3.8-8.5,8.5c0,4.7,3.8,8.5,8.5,8.5h59.7c4.7,0,8.5-3.8,8.5-8.5
		C-77.9,421.4-81.7,417.5-86.4,417.5z"/>
	<path class="st5" d="M-26.7,417.5h-25.6c-4.7,0-8.5,3.8-8.5,8.5c0,4.7,3.8,8.5,8.5,8.5h25.6c4.7,0,8.5-3.8,8.5-8.5
		C-18.2,421.4-22,417.5-26.7,417.5z"/>
	<path class="st5" d="M218.3,385.9c-2.5-2.4-6.1-3.1-9.3-1.8c-1,0.4-2,1-2.8,1.8c-0.8,0.8-1.4,1.8-1.8,2.8c-0.9,2.1-0.9,4.4,0,6.5
		c0.4,1,1,2,1.8,2.8c3.4,3.3,8.7,3.3,12.1,0c0.7-0.8,1.4-1.8,1.8-2.8c0.5-1,0.7-2.1,0.7-3.2c0-1.1-0.2-2.2-0.7-3.2
		C219.6,387.7,219,386.7,218.3,385.9z"/>
	<path class="st5" d="M161,400.5h25.6c4.7,0,8.5-3.8,8.5-8.5c0-4.7-3.8-8.5-8.5-8.5H161c-4.7,0-8.5,3.8-8.5,8.5
		C152.5,396.7,156.3,400.5,161,400.5z"/>
	<path class="st5" d="M212.2,417.5h-59.7c-4.7,0-8.5,3.8-8.5,8.5c0,4.7,3.8,8.5,8.5,8.5h59.7c4.7,0,8.5-3.8,8.5-8.5
		C220.7,421.4,216.9,417.5,212.2,417.5z"/>
	<path class="st5" d="M118.3,417.5H92.7c-4.7,0-8.5,3.8-8.5,8.5c0,4.7,3.8,8.5,8.5,8.5h25.6c4.7,0,8.5-3.8,8.5-8.5
		C126.9,421.4,123.1,417.5,118.3,417.5z"/>
	<path class="st5" d="M1.4,287.1c0.8,0.8,1.8,1.4,2.8,1.8c3.2,1.4,6.9,0.7,9.3-1.8c0.8-0.8,1.4-1.8,1.8-2.8c0.9-2.1,0.9-4.4,0-6.5
		c-0.4-1-1-2-1.8-2.8c-3.4-3.2-8.7-3.2-12.1,0c-0.8,0.8-1.4,1.8-1.8,2.8c-0.9,2.1-0.9,4.4,0,6.5C0,285.3,0.6,286.2,1.4,287.1z"/>
	<path class="st5" d="M7.4,263.9c4.7,0,8.5-3.8,8.5-8.5v-47.7l11,11c1.6,1.6,3.8,2.5,6,2.5c2.3,0,4.4-0.9,6-2.5l11-11v47.7
		c0,4.7,3.8,8.5,8.5,8.5c4.7,0,8.5-3.8,8.5-8.5v-68.3c0-3.4-2.1-6.6-5.3-7.9c-3.2-1.3-6.9-0.6-9.3,1.8L33,200.7l-19.6-19.6
		c-2.4-2.4-6.1-3.2-9.3-1.8c-3.2,1.3-5.3,4.4-5.3,7.9v68.3C-1.1,260.1,2.7,263.9,7.4,263.9z"/>
	<path class="st5" d="M64.7,275c-3.4-3.2-8.7-3.2-12.1,0c-0.8,0.8-1.4,1.8-1.8,2.8c-0.9,2.1-0.9,4.4,0,6.5c0.4,1,1,2,1.8,2.8
		c2.4,2.4,6.1,3.2,9.3,1.8c1-0.4,2-1,2.8-1.8c0.8-0.8,1.4-1.8,1.8-2.8c0.9-2.1,0.9-4.4,0-6.5C66,276.7,65.4,275.8,64.7,275z"/>
</g>
</svg>
