<?xml version="1.0" encoding="utf-8"?>
<!-- Generator: Adobe Illustrator 19.0.0, SVG Export Plug-In . SVG Version: 6.00 Build 0)  -->
<svg version="1.1" id="Layer_1" xmlns="http://www.w3.org/2000/svg" xmlns:xlink="http://www.w3.org/1999/xlink" x="0px" y="0px"
	 viewBox="0 0 640 480" style="enable-background:new 0 0 640 480;" xml:space="preserve">
<style type="text/css">
	.st0{fill:#444343;}
	.st1{fill:#0868AC;}
	.st2{fill:#5B4282;}
	.st3{fill:url(#XMLID_4_);}
	.st4{fill:url(#XMLID_5_);}
	.st5{fill:#003A2B;}
	.st6{fill:#FFFFFF;}
	.st7{fill:#F0DB4F;}
	.st8{fill:#323330;}
	.st9{fill:#00618A;}
	.st10{fill:#E48E00;}
</style>
<g id="Layer_1_1_">
	<polygon id="XMLID_1_" class="st0" points="86,267 42,190.4 86,113.8 174,113.8 218,190.4 174,267 	"/>
	<polygon id="XMLID_16_" class="st0" points="222.9,347.1 179,270.5 222.9,193.9 310.9,193.9 354.9,270.5 310.9,347.1 	"/>
	<polygon id="XMLID_18_" class="st0" points="361.1,426 317.1,349.4 361.1,272.8 449.1,272.8 493,349.4 449.1,426 	"/>
	<polygon id="XMLID_19_" class="st0" points="498,348.2 454,271.6 498,195 586,195 630,271.6 586,348.2 	"/>
	<polygon id="XMLID_25_" class="st0" points="222.9,189.2 179,112.6 222.9,36 310.9,36 354.9,112.6 310.9,189.2 	"/>
	<polygon id="XMLID_17_" class="st0" points="86,424.8 42,348.2 86,271.6 174,271.6 218,348.2 174,424.8 	"/>
</g>
<g id="Layer_7">
	<path id="XMLID_20_" class="st1" d="M227.6,91.5c-8.2,11.8-7.2,27.3-0.9,39.9c0.1,0.3,0.3,0.6,0.5,0.9l0.3,0.6l0.2,0.3l0.3,0.6
		c0.2,0.3,0.3,0.7,0.6,1l0.3,0.6c0.2,0.3,0.5,0.7,0.7,1l0.3,0.5c0.3,0.5,0.7,0.9,1,1.5l0,0l0.1,0.2c0.3,0.5,0.6,0.8,0.9,1.3l0.3,0.5
		c0.2,0.3,0.6,0.7,0.8,1l0.3,0.3c0.3,0.5,0.8,0.9,1.2,1.4l0,0l0,0c0.3,0.5,0.8,0.8,1.2,1.3l0.3,0.3c0.3,0.3,0.7,0.6,0.9,0.9l0.3,0.3
		c0.5,0.5,0.9,0.8,1.3,1.2l0,0l0.2,0.2c0.3,0.3,0.8,0.7,1.2,1l0.5,0.3c0.3,0.2,0.7,0.6,1,0.8l0.6,0.5c0.3,0.2,0.7,0.6,1.2,0.8
		l0.5,0.2l0.1,0.1c0.3,0.2,0.7,0.5,1,0.7l0.5,0.3c0.6,0.3,1.2,0.7,1.7,1l0.5,0.2c0.5,0.2,0.8,0.5,1.3,0.7c0.2,0.1,0.5,0.2,0.7,0.3
		c0.3,0.1,0.6,0.3,0.9,0.5l0.2,0.1l0.3,0.2c0.5,0.2,0.9,0.5,1.5,0.7l0.3,0.1c0.6,0.2,1.2,0.5,1.7,0.7l0.5,0.1c0.6,0.2,1,0.3,1.6,0.6
		l0.2,0.1c0.6,0.2,1.2,0.3,1.7,0.6l0.5,0.1c0.6,0.2,1.2,0.3,1.9,0.5c39.9,7.3,51.5-24,51.5-24c-9.7,12.7-27,16-43.4,12.3
		c-0.6-0.1-1.3-0.3-1.9-0.5l-0.5-0.1c-0.6-0.2-1.2-0.3-1.7-0.6l-0.2-0.1c-0.6-0.2-1-0.3-1.5-0.6l-0.5-0.1c-0.6-0.2-1.2-0.5-1.6-0.7
		l-0.3-0.1c-0.5-0.2-0.9-0.5-1.4-0.7l-0.5-0.2c-0.3-0.2-0.7-0.3-1-0.6c-0.2-0.1-0.5-0.2-0.7-0.3c-0.5-0.2-0.9-0.5-1.3-0.7l-0.5-0.2
		c-0.6-0.3-1.2-0.7-1.7-1l-0.5-0.3c-0.5-0.2-0.8-0.6-1.2-0.8l-0.3-0.2c-0.3-0.2-0.8-0.6-1.2-0.8l-0.5-0.3c-0.3-0.2-0.7-0.6-1-0.8
		l-0.8-0.3c-0.5-0.3-0.8-0.7-1.3-1l-0.1-0.1c-0.5-0.3-0.9-0.8-1.4-1.3l-0.3-0.3c-0.3-0.3-0.7-0.6-0.9-0.9l-0.3-0.3
		c-0.5-0.5-0.8-0.8-1.2-1.3l-0.1-0.1c-0.5-0.5-0.8-0.9-1.2-1.4l-0.3-0.3c-0.3-0.3-0.6-0.7-0.9-1l-0.3-0.3c-0.3-0.5-0.7-0.9-1-1.4
		c-9.1-12.4-12.4-29.5-5.1-43.5 M253.2,81.5c-5.9,8.6-5.7,20.1-1,29.1c0.8,1.5,1.6,3,2.7,4.4c0.9,1.3,1.9,2.8,3,3.8
		c0.5,0.5,0.9,0.9,1.4,1.4l0.3,0.3c0.5,0.5,0.9,0.8,1.4,1.3l0,0l0,0c0.5,0.5,1,0.9,1.6,1.3l0.3,0.2c0.6,0.5,1,0.8,1.6,1.3l0,0
		c0.2,0.1,0.5,0.3,0.8,0.5l0.3,0.2c0.5,0.2,0.8,0.5,1.3,0.8l0.2,0.1c0.3,0.2,0.7,0.5,1,0.6l0.3,0.2c0.2,0.1,0.5,0.2,0.8,0.3h0.1
		c0.6,0.2,1,0.5,1.6,0.7l0.3,0.1c0.5,0.2,0.9,0.3,1.3,0.6l0.6,0.2c0.3,0.1,0.8,0.2,1.2,0.5l0.6,0.2c0.6,0.2,1.2,0.3,1.7,0.5
		c30.9,5.1,38-18.7,38-18.7c-6.4,9.3-18.8,13.7-32.2,10.2c-0.6-0.1-1.2-0.3-1.7-0.5l-0.6-0.1c-0.5-0.1-0.8-0.2-1.3-0.5l-0.3,0
		c-0.5-0.1-0.9-0.3-1.3-0.6l-0.3-0.1c-0.6-0.2-1-0.5-1.6-0.7c-0.2-0.1-0.6-0.2-0.8-0.5l-0.5-0.2c-0.3-0.2-0.7-0.3-1-0.6l-0.2-0.1
		c-0.5-0.2-0.8-0.5-1.3-0.8l-0.3-0.2c-0.2-0.1-0.6-0.3-0.8-0.6c-0.6-0.3-1.2-0.8-1.6-1.3l-0.3-0.3c-5.8-4.5-10.4-10.8-12.7-18
		c-2.3-7.3-1.7-15.7,2.2-22.4 M274.7,74.1c-3.5,5.2-3.8,11.6-1.4,17.3c2.6,6,7.9,10.8,14,13.1c0.2,0.1,0.5,0.2,0.8,0.2l0.3,0.1
		c0.3,0.1,0.7,0.2,1,0.3c17.1,3.2,21.6-8.7,22.9-10.6c-4.1,5.8-10.8,7.2-19.2,5.2c-0.7-0.1-1.4-0.3-2-0.6c-0.8-0.3-1.6-0.6-2.4-1
		c-1.5-0.7-2.9-1.6-4.2-2.6c-7.4-5.7-12.1-16.5-7.2-25.3"/>
</g>
<g id="Layer_6">
	<path id="XMLID_41_" class="st2" d="M553.6,271.3c-1.5-0.5-3.8-0.3-6.7-0.3h-11.6v15.2h12.5c2,0,3.4-0.2,4.1-0.3
		c1.4-0.2,2.6-0.7,3.5-1.3c0.9-0.6,1.7-1.5,2.3-2.6c0.6-1.2,0.9-2.4,0.9-3.8c0-1.7-0.5-3-1.3-4.3
		C556.4,272.4,555.3,271.7,553.6,271.3z M552.1,264.3c1.5-0.5,2.7-1.3,3.5-2.3c0.8-1,1.2-2.4,1.2-4.1c0-1.5-0.3-2.9-1-4.1
		c-0.7-1.2-1.7-1.6-3.1-2c-1.4-0.5-3.7-0.3-7-0.3h-10.3v13.2h11C549,264.9,551,264.7,552.1,264.3z M587.1,240c0-6-5-11-11-11h-60.8
		c-6,0-11,5-11,11v60.8c0,6,5,11,11,11H576c6,0,11-5,11-11V240z M563.5,283.9c-0.9,1.9-2,3.2-3.4,4.3c-1.3,1-3,1.9-5,2.3
		s-4.4,0.8-7.4,0.8h-18.5v-45.7h18.2c3.5,0,6.3,0.3,8.4,1.3c2.1,0.9,3.7,2.3,5,4.3c1.2,2,1.7,3.9,1.7,6c0,2-0.6,3.8-1.6,5.5
		c-1,1.7-2.7,3.1-4.8,4.2c2.8,0.8,4.9,2.2,6.4,4.2c1.5,2,2.2,4.3,2.2,7C564.9,280.1,564.4,282.1,563.5,283.9z"/>
</g>
<g id="Layer_5">
	
		<linearGradient id="XMLID_4_" gradientUnits="userSpaceOnUse" x1="689.9414" y1="694.2759" x2="774.9682" y2="621.1217" gradientTransform="matrix(0.563 0 0 -0.568 -28.778 708.249)">
		<stop  offset="0" style="stop-color:#5A9FD4"/>
		<stop  offset="1" style="stop-color:#306998"/>
	</linearGradient>
	<path id="XMLID_51_" class="st3" d="M404.6,311.4c-3.6,0-7,0.3-10,0.8c-8.8,1.5-10.4,4.9-10.4,10.9v8h20.9v2.7h-28.8
		c-6,0-11.4,3.6-13.1,10.6c-2,8-2,12.9,0,21.2c1.5,6.2,5,10.6,11.1,10.6h7.2v-9.5c0-6.8,5.9-13,13.1-13h20.9
		c5.8,0,10.4-4.8,10.4-10.7v-20c0-5.7-4.8-10-10.4-10.9C411.9,311.7,408.2,311.4,404.6,311.4z M393.2,317.8c2.2,0,3.9,1.7,3.9,3.9
		c0,2.2-1.7,3.9-3.9,3.9s-3.9-1.7-3.9-3.9C389.4,319.7,391.1,317.8,393.2,317.8z"/>
	
		<linearGradient id="XMLID_5_" gradientUnits="userSpaceOnUse" x1="807.4705" y1="576.5802" x2="777.1086" y2="619.536" gradientTransform="matrix(0.563 0 0 -0.568 -28.778 708.249)">
		<stop  offset="0" style="stop-color:#FFD43B"/>
		<stop  offset="1" style="stop-color:#FFE873"/>
	</linearGradient>
	<path id="XMLID_48_" class="st4" d="M428.5,333.8v9.3c0,7.2-6.2,13.2-13.1,13.2h-20.9c-5.7,0-10.4,4.9-10.4,10.7v20
		c0,5.7,4.9,9.1,10.4,10.7c6.6,2,13,2.3,20.9,0c5.2-1.5,10.4-4.6,10.4-10.7v-8h-20.9v-2.7h31.3c6,0,8.4-4.3,10.4-10.6
		c2.2-6.5,2.1-12.9,0-21.2c-1.5-6-4.4-10.6-10.4-10.6L428.5,333.8L428.5,333.8z M416.8,384.2c2.2,0,3.9,1.7,3.9,3.9
		s-1.7,3.9-3.9,3.9c-2.2,0-3.9-1.7-3.9-3.9S414.6,384.2,416.8,384.2z"/>
</g>
<g id="Layer_2">
	<path id="XMLID_15_" class="st5" d="M186.3,207.5c0,3.4-2.8,6.2-6.2,6.2H80.5c-3.4,0-6.2-2.8-6.2-6.2V172c0-3.4,2.8-6.2,6.2-6.2
		h99.6c3.4,0,6.2,2.8,6.2,6.2V207.5z"/>
	<path id="XMLID_3_" class="st6" d="M93.2,172.8h5.3v24.5c-2.7,0.6-4.8,0.7-6.8,0.7c-6.5,0-9.9-2.9-9.9-8.5c0-5.3,3.6-8.9,9.2-8.9
		c0.9,0,1.5,0.1,2.3,0.2L93.2,172.8C93.3,172.8,93.2,172.8,93.2,172.8z M93.2,185.3c-0.6-0.2-1.2-0.2-1.7-0.2
		c-2.7,0-4.2,1.6-4.2,4.5s1.5,4.4,4.2,4.4c0.6,0,1,0,1.7-0.2C93.2,193.7,93.2,185.3,93.2,185.3z M107,181.1v12.3
		c0,4.2-0.2,6.3-1.3,8c-0.9,1.7-2,2.8-4.3,3.9l-4.9-2.3c2.3-1,3.5-2.1,4.2-3.6c0.7-1.5,0.9-3.4,0.9-7.9v-10.4L107,181.1L107,181.1z
		 M101.7,173h5.3v5.5h-5.3V173z M110.2,182.2c2.3-1,4.5-1.6,7-1.6c2.7,0,4.5,0.7,5.3,2.2c0.5,0.8,0.6,1.7,0.6,4.1v10.8
		c-2.4,0.3-5.3,0.6-7.7,0.6c-4.5,0-6.5-1.5-6.5-5c0-3.7,2.7-5.5,9.2-6v-1.2c0-0.9-0.5-1.4-1.7-1.4c-2,0-4.2,0.6-6.3,1.6L110.2,182.2
		C110.1,182.2,110.2,182.2,110.2,182.2z M118.5,190.7c-3.5,0.3-4.6,0.9-4.6,2.2c0,1,0.6,1.5,2.1,1.5c0.8,0,1.5-0.1,2.6-0.2V190.7
		C118.4,190.7,118.5,190.7,118.5,190.7z M125.7,181.9c3.1-0.8,5.7-1.2,8.4-1.2c2.7,0,4.6,0.6,5.8,1.7c1,1.2,1.4,2.4,1.4,5v10.3H136
		v-10.2c0-2.1-0.7-2.8-2.6-2.8c-0.7,0-1.4,0.1-2.4,0.3v12.7h-5.3C125.7,197.9,125.7,181.9,125.7,181.9z M143.3,200.8
		c1.9,0.9,3.7,1.4,5.7,1.4c3.5,0,4.9-1.4,4.9-4.8v-0.1c-1,0.6-2.1,0.7-3.4,0.7c-4.6,0-7.7-3-7.7-7.9c0-6,4.4-9.4,12.1-9.4
		c2.2,0,4.4,0.2,6.8,0.7l-1.7,3.8c-1.4-0.2-0.1,0-1.2-0.2v0.6l0.1,2.2v2.9c0,0.7,0,1.4,0.1,2.2v1.4c0,4.5-0.3,6.7-1.5,8.5
		c-1.6,2.6-4.5,3.8-8.6,3.8c-2.1,0-3.8-0.2-5.7-1V200.8C143.2,200.8,143.3,200.8,143.3,200.8z M153.9,185h-0.5c-1,0-2.2,0.2-3,0.7
		c-1.3,0.7-2,2.1-2,3.8c0,2.7,1.4,4.2,3.7,4.2c0.7,0,1.4-0.2,2-0.3L153.9,185C154,185,153.9,185,153.9,185z M170.3,180.6
		c5.3,0,8.5,3.4,8.5,8.8c0,5.6-3.4,9.1-8.8,9.1c-5.3,0-8.6-3.4-8.6-8.7C161.4,184.1,164.8,180.6,170.3,180.6z M170.1,194.1
		c2.1,0,3.2-1.7,3.2-4.6s-1.2-4.6-3.2-4.6c-2.1,0-3.4,1.7-3.4,4.6C166.9,192.5,168,194.1,170.1,194.1z"/>
</g>
<g id="Layer_3">
	<path id="XMLID_52_" class="st7" d="M233.2,236.7h70v70h-70V236.7z"/>
	<path id="XMLID_24_" class="st8" d="M300.8,292.3c-0.5-3.1-2.6-5.9-8.7-8.4c-2.1-0.9-4.5-1.7-5.2-3.4c-0.2-0.9-0.2-1.5-0.1-2.1
		c0.5-1.9,2.7-2.4,4.4-1.9c1.2,0.3,2.2,1.3,2.9,2.7c3-2,3-2,5.1-3.2c-0.8-1.2-1.2-1.7-1.7-2.2c-1.9-2-4.3-3-8.2-3l-2.1,0.2
		c-2,0.5-3.8,1.5-5,2.9c-3.4,3.7-2.3,10.3,1.6,13c3.9,3,9.7,3.7,10.6,6.5c0.7,3.4-2.6,4.5-5.7,4.2c-2.3-0.5-3.7-1.7-5.1-3.8
		c-2.7,1.5-2.7,1.5-5.3,3c0.7,1.4,1.3,2,2.4,3.2c5.1,5.1,17.8,4.9,20-2.9C300.7,296.8,301.3,294.9,300.8,292.3z M274.7,271.2h-6.5
		v16.9c0,3.6,0.2,6.8-0.3,7.9c-0.9,2-3.5,1.7-4.5,1.4c-1.2-0.6-1.7-1.4-2.4-2.6c-0.2-0.3-0.3-0.6-0.3-0.6l-5.3,3.2
		c0.9,1.9,2.2,3.4,3.8,4.4c2.4,1.5,5.8,2,9.4,1.2c2.3-0.7,4.3-2.1,5.2-4.2c1.5-2.8,1.2-6,1.2-9.7
		C274.7,283.1,274.7,277.1,274.7,271.2z"/>
</g>
<g id="Layer_4">
	<path id="XMLID_59_" class="st9" d="M69.2,364.2h4.4v-17.2l6.7,15c0.8,1.9,1.9,2.4,4.1,2.4c2.1,0,3.1-0.7,3.9-2.4l6.7-15v17.2h4.4
		v-17.2c0-1.6-0.7-2.4-2.1-2.9c-3.4-1-5.6-0.1-6.5,2.1l-6.6,14.9l-6.4-14.9c-0.9-2.2-3.2-3.1-6.5-2.1c-1.4,0.5-2.1,1.3-2.1,2.9
		L69.2,364.2L69.2,364.2z M103.1,350.2h4.4v9.5c0,0.5,0.1,1.7,2.6,1.7c1.2,0,9.4,0,9.5,0v-11.3h4.4v15.4c0,3.8-4.8,4.6-6.8,4.6
		h-13.9v-2.9H117c2.8-0.3,2.4-1.7,2.4-2.2V364h-9.3c-4.3,0-7.1-2-7.1-4.1C103.1,359.8,103.2,350.3,103.1,350.2z"/>
	<path id="XMLID_29_" class="st10" d="M124.9,367.7h12.5c1.5,0,2.9-0.3,4.1-0.8c1.9-0.8,2.8-2.1,2.8-3.6v-3.1c0-1.3-1-2.4-3.1-3.2
		c-1-0.5-2.4-0.7-3.7-0.7h-5.3c-1.7,0-2.6-0.6-2.8-1.7c0-0.1,0-0.2,0-0.3v-2c0-0.1,0-0.2,0-0.3c0.2-0.9,0.7-1.2,2.2-1.3h0.5h12.4
		v-2.9h-12.2c-1.7,0-2.7,0.1-3.5,0.3c-2.6,0.8-3.7,2.1-3.7,4.3v2.6c0,2,2.2,3.6,5.9,4.1c0.5,0,0.8,0,1.3,0h4.5c0.1,0,0.3,0,0.5,0
		c1.4,0.1,2,0.3,2.4,0.8c0.2,0.2,0.3,0.5,0.3,0.8v2.6c0,0.3-0.2,0.7-0.6,1s-1,0.6-1.9,0.6h-0.5H125
		C124.9,364.8,124.9,367.7,124.9,367.7z M171.4,362.6c0,3,2.2,4.6,6.7,5c0.5,0,0.8,0,1.3,0h11.4v-2.9h-11.5c-2.6,0-3.5-0.7-3.5-2.2
		v-15.1h-4.4L171.4,362.6L171.4,362.6z M147,362.8v-10.3c0-2.7,1.9-4.2,5.5-4.8c0.3,0,0.8-0.1,1.2-0.1h8.2c0.5,0,0.8,0,1.2,0.1
		c3.6,0.5,5.5,2.1,5.5,4.8v10.3c0,2.1-0.8,3.2-2.6,4.1l4.3,3.8h-5.1l-3.5-3.1l-3.5,0.2h-4.6c-0.8,0-1.6-0.1-2.6-0.3
		C148.3,366.7,147,365.2,147,362.8z M151.7,362.6c0,0.1,0,0.2,0.1,0.5c0.2,1.2,1.4,1.9,3.1,1.9h3.9l-3.6-3.2h5.1l3.1,2.9
		c0.6-0.3,0.9-0.8,1.2-1.4c0-0.1,0-0.2,0-0.5v-10c0-0.1,0-0.2,0-0.3c-0.2-1.2-1.4-1.7-3-1.7h-6.6c-2,0-3.2,0.8-3.2,2.2L151.7,362.6
		L151.7,362.6z"/>
	<path id="XMLID_26_" class="st9" d="M195.8,342.8c-2.7-0.1-4.8,0.2-6.5,0.9c-0.5,0.2-1.3,0.2-1.4,0.8c0.2,0.2,0.3,0.7,0.6,1
		c0.5,0.7,1.2,1.6,1.7,2.1c0.7,0.5,1.4,1,2.1,1.5c1.3,0.8,2.8,1.3,4.1,2.1c0.7,0.5,1.5,1,2.2,1.6c0.3,0.2,0.6,0.7,1,0.8v-0.1
		c-0.2-0.3-0.3-0.7-0.6-1l-1-1c-0.9-1.3-2.2-2.4-3.5-3.4c-1-0.7-3.4-1.7-3.8-3l-0.1-0.1c0.7-0.1,1.6-0.3,2.3-0.6
		c1.2-0.3,2.2-0.2,3.4-0.6l1.6-0.5V343c-0.6-0.6-1-1.4-1.6-2c-1.7-1.5-3.6-2.9-5.5-4.1c-1-0.7-2.3-1.2-3.5-1.6
		c-0.3-0.2-1-0.3-1.3-0.6c-0.6-0.8-0.9-1.7-1.4-2.6c-0.9-1.9-1.9-3.8-2.8-5.8c-0.6-1.3-0.9-2.7-1.6-3.8c-3.5-5.7-7.2-9.2-13-12.5
		c-1.3-0.7-2.7-1-4.3-1.4l-2.6-0.1c-0.5-0.2-1-0.8-1.5-1.2c-1.9-1.2-6.8-3.8-8.2-0.3c-0.9,2.2,1.4,4.3,2.1,5.5
		c0.6,0.8,1.3,1.6,1.6,2.6c0.2,0.6,0.3,1.2,0.6,1.7c0.6,1.5,1,3.1,1.7,4.5c0.3,0.7,0.8,1.4,1.3,2.1c0.2,0.3,0.8,0.6,0.8,1.2
		c-0.5,0.7-0.5,1.6-0.8,2.6c-1.2,3.7-0.7,8.5,1,11.3c0.6,0.8,1.7,2.7,3.5,2c1.5-0.6,1.2-2.6,1.6-4.2c0.1-0.3,0-0.7,0.2-0.9v0.1
		l1.4,2.8c1,1.6,2.8,3.4,4.3,4.5c0.8,0.6,1.4,1.6,2.4,2v-0.1h-0.1c-0.2-0.3-0.5-0.5-0.8-0.7c-0.6-0.6-1.3-1.3-1.7-2
		c-1.4-1.9-2.7-3.9-3.7-6.2c-0.6-1-1-2.2-1.4-3.2c-0.1-0.3-0.1-1-0.6-1.2c-0.5,0.8-1.3,1.4-1.6,2.3c-0.6,1.4-0.7,3.2-0.9,5l-0.1,0.1
		c-1-0.2-1.4-1.4-1.9-2.3c-1-2.3-1.2-6.2-0.3-8.9c0.2-0.7,1.3-2.9,0.8-3.6c-0.2-0.7-0.8-1-1.2-1.5c-0.5-0.6-0.9-1.4-1.3-2.1
		c-0.8-1.9-1.2-3.9-2.1-5.8c-0.5-0.9-1.2-1.7-1.6-2.6c-0.6-0.9-1.4-1.5-1.9-2.6c-0.1-0.3-0.5-0.9-0.1-1.4c0.1-0.2,0.2-0.3,0.5-0.5
		c0.5-0.3,1.6,0.1,2.1,0.3c1.3,0.5,2.2,1,3.2,1.6c0.5,0.3,1,0.9,1.6,1.2h0.7c1,0.2,2.3,0.1,3.2,0.3c1.7,0.6,3.4,1.4,4.8,2.3
		c4.4,2.8,8,6.7,10.4,11.5c0.3,0.8,0.6,1.5,0.9,2.3c0.7,1.6,1.6,3.2,2.3,4.9c0.7,1.6,1.4,3.1,2.3,4.5c0.5,0.7,2.6,1,3.5,1.4
		c0.6,0.2,1.6,0.6,2.3,0.9c1.2,0.7,2.3,1.5,3.4,2.3C194,341.3,195.7,342.1,195.8,342.8z M161.7,313.8c-0.6,0-0.9,0.1-1.4,0.1v0.1
		h0.1c0.2,0.6,0.7,0.9,1,1.4l0.8,1.6l0.1-0.1c0.5-0.3,0.7-0.8,0.7-1.6c-0.2-0.2-0.2-0.5-0.3-0.7C162.4,314.2,162,314,161.7,313.8z"
		/>
</g>
</svg>
