<?xml version="1.0" encoding="utf-8"?>
<!-- Generator: Adobe Illustrator 19.0.0, SVG Export Plug-In . SVG Version: 6.00 Build 0)  -->
<svg version="1.1" id="Layer_1" xmlns="http://www.w3.org/2000/svg" xmlns:xlink="http://www.w3.org/1999/xlink" x="0px" y="0px"
	 viewBox="-449 251 60 60" style="enable-background:new -449 251 60 60;" xml:space="preserve">
<style type="text/css">
	.st0{fill:#9E5AFF;}
	.st1{fill:#AF88ED;}
	.st2{fill:#D3DFF2;}
	.st3{fill:#D8E1F2;}
	.st4{fill:#DCE3F2;}
	.st5{fill:#E0E5F2;}
	.st6{fill:#E4E7F2;}
	.st7{fill:#E7E8F2;}
	.st8{fill:#EAEAF2;}
	.st9{fill:#EDEBF2;}
	.st10{fill:#EFECF2;}
	.st11{fill:#F1EDF2;}
	.st12{fill:#F3EEF2;}
	.st13{fill:#F5EEF2;}
	.st14{fill:#F6EFF2;}
	.st15{fill:#F8F0F2;}
	.st16{fill:#F9F0F2;}
	.st17{fill:#FAF1F2;}
	.st18{fill:#FBF1F2;}
	.st19{fill:#FCF2F2;}
	.st20{fill:#FDF2F2;}
	.st21{fill:#FEF2F2;}
	.st22{fill:#FEF3F2;}
	.st23{fill:#FFF3F2;}
	.st24{fill:#F7EFF2;}
	.st25{fill:#F4EEF2;}
	.st26{fill:#F3EDF2;}
	.st27{fill:#F2EDF2;}
	.st28{fill:#F1ECF2;}
	.st29{fill:#F0ECF2;}
	.st30{fill:#EEEBF2;}
	.st31{fill:#ECEAF2;}
	.st32{fill:#EBEAF2;}
	.st33{fill:#EAE9F2;}
	.st34{fill:#E8E9F2;}
	.st35{fill:#E6E8F2;}
	.st36{fill:#E5E7F2;}
	.st37{fill:#E3E6F2;}
	.st38{fill:#E2E6F2;}
	.st39{fill:#E1E6F2;}
	.st40{fill:#DFE5F2;}
	.st41{fill:#DEE4F2;}
	.st42{fill:#DDE4F2;}
	.st43{fill:#DBE3F2;}
	.st44{fill:#DAE2F2;}
	.st45{fill:#D9E2F2;}
	.st46{fill:#D7E1F2;}
	.st47{fill:#D6E0F2;}
	.st48{fill:#D5E0F2;}
	.st49{fill:#D4DFF2;}
	.st50{fill:#E8E8F2;}
	.st51{fill:#E1E5F2;}
	.st52{fill:#DFE4F2;}
	.st53{fill:#D4E0F2;}
	.st54{fill:#FFFFFF;}
	.st55{fill:#7600FF;}
</style>
<path class="st0" d="M-401,274v34h-44v-34c0-1.1,0.4-2.1,1.2-2.8c0.7-0.8,1.7-1.2,2.8-1.2h36c1.1,0,2.1,0.4,2.8,1.2
	C-401.4,271.9-401,272.9-401,274z"/>
<path class="st1" d="M-404,274v34h-41v-34c0-1.1,0.4-2.1,1.2-2.8c0.7-0.8,1.7-1.2,2.8-1.2h33c1.1,0,2.1,0.4,2.8,1.2
	C-404.4,271.9-404,272.9-404,274z"/>
<path class="st2" d="M-431,274l-14,14L-431,274z"/>
<path class="st2" d="M-431,274l-14,14L-431,274z"/>
<path class="st3" d="M-431,274l-14,14L-431,274z"/>
<path class="st4" d="M-431,274l-14,14L-431,274z"/>
<path class="st5" d="M-431,274l-14,14L-431,274z"/>
<path class="st6" d="M-431,274l-14,14L-431,274z"/>
<path class="st7" d="M-431,274l-14,14L-431,274z"/>
<path class="st8" d="M-430.9,274l-14.1,14.1V288l14-14H-430.9z"/>
<path class="st9" d="M-430.9,274l-14.1,14.1L-430.9,274z"/>
<path class="st10" d="M-430.9,274l-14.1,14.1L-430.9,274z"/>
<path class="st11" d="M-430.9,274l-14.1,14.1L-430.9,274z"/>
<path class="st12" d="M-430.9,274l-14.1,14.1L-430.9,274z"/>
<path class="st13" d="M-430.9,274l-14.1,14.1L-430.9,274z"/>
<path class="st14" d="M-430.9,274l-14.1,14.1L-430.9,274z"/>
<path class="st15" d="M-430.9,274l-14.1,14.1L-430.9,274z"/>
<path class="st16" d="M-430.9,274l-14.1,14.1L-430.9,274z"/>
<path class="st17" d="M-430.9,274l-14.1,14.1L-430.9,274z"/>
<path class="st18" d="M-430.9,274l-14.1,14.1L-430.9,274z"/>
<path class="st18" d="M-430.9,274l-14.1,14.1L-430.9,274z"/>
<path class="st19" d="M-430.9,274l-14.1,14.1L-430.9,274z"/>
<path class="st20" d="M-430.8,274l-14.2,14.2v-0.1L-430.8,274L-430.8,274z"/>
<path class="st20" d="M-430.8,274l-14.2,14.2L-430.8,274z"/>
<path class="st20" d="M-430.8,274l-14.2,14.2L-430.8,274z"/>
<path class="st21" d="M-430.8,274l-14.2,14.2L-430.8,274z"/>
<path class="st22" d="M-430.8,274l-14.2,14.2L-430.8,274z"/>
<path class="st22" d="M-430.8,274l-14.2,14.2L-430.8,274z"/>
<path class="st22" d="M-430.8,274l-14.2,14.2L-430.8,274z"/>
<path class="st23" d="M-430.8,274l-14.2,14.2L-430.8,274z"/>
<path class="st23" d="M-430.8,274l-14.2,14.2L-430.8,274z"/>
<path class="st23" d="M-430.8,274l-14.2,14.2L-430.8,274z"/>
<path class="st23" d="M-430.8,274l-14.2,14.2L-430.8,274z"/>
<path class="st23" d="M-430.8,274l-14.2,14.2L-430.8,274z"/>
<path class="st23" d="M-430.7,274l-14.3,14.3v-0.1l14.2-14.2H-430.7z"/>
<path class="st23" d="M-430.7,274l-14.3,14.3L-430.7,274z"/>
<path class="st23" d="M-430.7,274l-14.3,14.3L-430.7,274z"/>
<path class="st23" d="M-430.7,274l-14.3,14.3L-430.7,274z"/>
<path class="st23" d="M-430.7,274l-14.3,14.3L-430.7,274z"/>
<path class="st23" d="M-430.7,274l-14.3,14.3L-430.7,274z"/>
<path class="st23" d="M-430.7,274l-14.3,14.3L-430.7,274z"/>
<path class="st23" d="M-430.7,274l-14.3,14.3L-430.7,274z"/>
<path class="st23" d="M-430.7,274l-14.3,14.3L-430.7,274z"/>
<path class="st23" d="M-430.7,274l-14.3,14.3L-430.7,274z"/>
<path class="st23" d="M-430.7,274l-14.3,14.3L-430.7,274z"/>
<path class="st23" d="M-430.7,274l-14.3,14.3L-430.7,274z"/>
<path class="st23" d="M-430.7,274l-14.3,14.3L-430.7,274z"/>
<path class="st23" d="M-426.8,274l-18.2,18.2v-3.9l14.3-14.3H-426.8z"/>
<path class="st23" d="M-426.8,274l-18.2,18.2L-426.8,274z"/>
<path class="st22" d="M-426.8,274l-18.2,18.2L-426.8,274z"/>
<path class="st20" d="M-426.8,274l-18.2,18.2L-426.8,274z"/>
<path class="st19" d="M-426.8,274l-18.2,18.2L-426.8,274z"/>
<path class="st18" d="M-426.8,274l-18.2,18.2L-426.8,274z"/>
<path class="st17" d="M-426.8,274l-18.2,18.2L-426.8,274z"/>
<path class="st16" d="M-426.8,274l-18.2,18.2L-426.8,274z"/>
<path class="st15" d="M-426.8,274l-18.2,18.2L-426.8,274z"/>
<path class="st24" d="M-426.8,274l-18.2,18.2L-426.8,274z"/>
<path class="st14" d="M-426.8,274l-18.2,18.2L-426.8,274z"/>
<path class="st13" d="M-426.8,274l-18.2,18.2L-426.8,274z"/>
<path class="st25" d="M-426.8,274l-18.2,18.2L-426.8,274z"/>
<path class="st26" d="M-426.8,274l-18.2,18.2L-426.8,274z"/>
<path class="st27" d="M-426.8,274l-18.2,18.2L-426.8,274z"/>
<path class="st28" d="M-426.8,274l-18.2,18.2L-426.8,274z"/>
<path class="st29" d="M-426.8,274l-18.2,18.2L-426.8,274z"/>
<path class="st10" d="M-426.8,274l-18.2,18.2L-426.8,274z"/>
<path class="st30" d="M-426.8,274l-18.2,18.2L-426.8,274z"/>
<path class="st9" d="M-426.8,274l-18.2,18.2L-426.8,274z"/>
<path class="st31" d="M-426.8,274l-18.2,18.2L-426.8,274z"/>
<path class="st32" d="M-426.8,274l-18.2,18.2L-426.8,274z"/>
<path class="st33" d="M-426.8,274l-18.2,18.2L-426.8,274z"/>
<path class="st34" d="M-426.8,274l-18.2,18.2L-426.8,274z"/>
<path class="st7" d="M-426.8,274l-18.2,18.2L-426.8,274z"/>
<path class="st35" d="M-426.8,274l-18.2,18.2L-426.8,274z"/>
<path class="st36" d="M-426.8,274l-18.2,18.2L-426.8,274z"/>
<path class="st6" d="M-426.8,274l-18.2,18.2L-426.8,274z"/>
<path class="st37" d="M-426.8,274l-18.2,18.2L-426.8,274z"/>
<path class="st38" d="M-426.8,274l-18.2,18.2L-426.8,274z"/>
<path class="st39" d="M-426.8,274l-18.2,18.2L-426.8,274z"/>
<path class="st5" d="M-426.8,274l-18.2,18.2L-426.8,274z"/>
<path class="st40" d="M-426.8,274l-18.2,18.2L-426.8,274z"/>
<path class="st41" d="M-426.8,274l-18.2,18.2L-426.8,274z"/>
<path class="st42" d="M-426.8,274l-18.2,18.2L-426.8,274z"/>
<path class="st4" d="M-426.8,274l-18.2,18.2L-426.8,274z"/>
<path class="st43" d="M-426.8,274l-18.2,18.2L-426.8,274z"/>
<path class="st44" d="M-426.8,274l-18.2,18.2L-426.8,274z"/>
<path class="st45" d="M-426.8,274l-18.2,18.2L-426.8,274z"/>
<path class="st3" d="M-426.8,274l-18.2,18.2L-426.8,274z"/>
<path class="st46" d="M-426.8,274l-18.2,18.2L-426.8,274z"/>
<path class="st47" d="M-426.8,274l-18.2,18.2L-426.8,274z"/>
<path class="st48" d="M-426.8,274l-18.2,18.2L-426.8,274z"/>
<path class="st49" d="M-426.8,274l-18.2,18.2L-426.8,274z"/>
<path class="st2" d="M-426.8,274l-18.2,18.2L-426.8,274z"/>
<path class="st0" d="M-415.6,274l-26,26h-3.4v-7.8l18.2-18.2H-415.6z"/>
<path class="st2" d="M-415.6,274l-26,26L-415.6,274z"/>
<path class="st3" d="M-415.6,274l-26,26L-415.6,274z"/>
<path class="st4" d="M-415.6,274l-26,26L-415.6,274z"/>
<path class="st5" d="M-415.6,274l-26,26L-415.6,274z"/>
<path class="st6" d="M-415.6,274l-26,26L-415.6,274z"/>
<path class="st7" d="M-415.6,274l-26,26L-415.6,274z"/>
<path class="st8" d="M-415.5,274l-26,26h-0.1l26-26H-415.5z"/>
<path class="st9" d="M-415.5,274l-26,26L-415.5,274z"/>
<path class="st10" d="M-415.5,274l-26,26L-415.5,274z"/>
<path class="st11" d="M-415.5,274l-26,26L-415.5,274z"/>
<path class="st12" d="M-415.5,274l-26,26L-415.5,274z"/>
<path class="st13" d="M-415.5,274l-26,26L-415.5,274z"/>
<path class="st14" d="M-415.5,274l-26,26L-415.5,274z"/>
<path class="st15" d="M-415.5,274l-26,26L-415.5,274z"/>
<path class="st16" d="M-415.5,274l-26,26L-415.5,274z"/>
<path class="st17" d="M-415.5,274l-26,26L-415.5,274z"/>
<path class="st18" d="M-415.5,274l-26,26L-415.5,274z"/>
<path class="st18" d="M-415.5,274l-26,26L-415.5,274z"/>
<path class="st19" d="M-415.5,274l-26,26L-415.5,274z"/>
<path class="st20" d="M-415.4,274l-26,26h-0.1l26-26H-415.4z"/>
<path class="st20" d="M-415.4,274l-26,26L-415.4,274z"/>
<path class="st20" d="M-415.4,274l-26,26L-415.4,274z"/>
<path class="st21" d="M-415.4,274l-26,26L-415.4,274z"/>
<path class="st22" d="M-415.4,274l-26,26L-415.4,274z"/>
<path class="st22" d="M-415.4,274l-26,26L-415.4,274z"/>
<path class="st22" d="M-415.4,274l-26,26L-415.4,274z"/>
<path class="st23" d="M-415.4,274l-26,26L-415.4,274z"/>
<path class="st23" d="M-415.4,274l-26,26L-415.4,274z"/>
<path class="st23" d="M-415.4,274l-26,26L-415.4,274z"/>
<path class="st23" d="M-415.4,274l-26,26L-415.4,274z"/>
<path class="st23" d="M-415.4,274l-26,26L-415.4,274z"/>
<path class="st23" d="M-415.3,274l-26,26h-0.1L-415.3,274L-415.3,274z"/>
<path class="st23" d="M-415.3,274l-26,26L-415.3,274z"/>
<path class="st23" d="M-415.3,274l-26,26L-415.3,274z"/>
<path class="st23" d="M-415.3,274l-26,26L-415.3,274z"/>
<path class="st23" d="M-415.3,274l-26,26L-415.3,274z"/>
<path class="st23" d="M-415.3,274l-26,26L-415.3,274z"/>
<path class="st23" d="M-415.3,274l-26,26L-415.3,274z"/>
<path class="st23" d="M-415.3,274l-26,26L-415.3,274z"/>
<path class="st23" d="M-415.3,274l-26,26L-415.3,274z"/>
<path class="st23" d="M-415.3,274l-26,26L-415.3,274z"/>
<path class="st23" d="M-415.3,274l-26,26L-415.3,274z"/>
<path class="st23" d="M-415.3,274l-26,26L-415.3,274z"/>
<path class="st23" d="M-415.3,274l-26,26L-415.3,274z"/>
<path class="st23" d="M-410,274l-26,26h-5.3l26-26H-410z"/>
<path class="st23" d="M-410,274l-26,26L-410,274z"/>
<path class="st17" d="M-410,274l-26,26L-410,274z"/>
<path class="st14" d="M-410,274l-26,26L-410,274z"/>
<path class="st27" d="M-410,274l-26,26L-410,274z"/>
<path class="st30" d="M-410,274l-26,26L-410,274z"/>
<path class="st32" d="M-410,274l-26,26L-410,274z"/>
<path class="st50" d="M-410,274l-26,26L-410,274z"/>
<path class="st36" d="M-410,274l-26,26L-410,274z"/>
<path class="st37" d="M-410,274l-26,26L-410,274z"/>
<path class="st51" d="M-410,274l-26,26L-410,274z"/>
<path class="st52" d="M-410,274l-26,26L-410,274z"/>
<path class="st42" d="M-410,274l-26,26L-410,274z"/>
<path class="st4" d="M-410,274l-26,26L-410,274z"/>
<path class="st44" d="M-410,274l-26,26L-410,274z"/>
<path class="st45" d="M-410,274l-26,26L-410,274z"/>
<path class="st3" d="M-410,274l-26,26L-410,274z"/>
<path class="st46" d="M-410,274l-26,26L-410,274z"/>
<path class="st46" d="M-410,274l-26,26L-410,274z"/>
<path class="st47" d="M-410,274l-26,26L-410,274z"/>
<path class="st48" d="M-410,274l-26,26L-410,274z"/>
<path class="st48" d="M-410,274l-26,26L-410,274z"/>
<path class="st48" d="M-410,274l-26,26L-410,274z"/>
<path class="st53" d="M-410,274l-26,26L-410,274z"/>
<path class="st49" d="M-410,274l-26,26L-410,274z"/>
<path class="st49" d="M-410,274l-26,26L-410,274z"/>
<path class="st49" d="M-410,274l-26,26L-410,274z"/>
<g>
	<path class="st0" d="M-410,274l-26,26L-410,274z"/>
	<path class="st0" d="M-410,274l-26,26L-410,274z"/>
	<path class="st0" d="M-410,274l-26,26L-410,274z"/>
	<path class="st0" d="M-410,274l-26,26L-410,274z"/>
	<path class="st0" d="M-410,274l-26,26L-410,274z"/>
	<path class="st0" d="M-409.9,274l-26,26h-0.1l26-26H-409.9z"/>
	<path class="st0" d="M-409.9,274l-26,26L-409.9,274z"/>
	<path class="st0" d="M-409.9,274l-26,26L-409.9,274z"/>
	<path class="st0" d="M-409.9,274l-26,26L-409.9,274z"/>
	<path class="st0" d="M-409.9,274l-26,26L-409.9,274z"/>
	<path class="st0" d="M-409.9,274l-26,26L-409.9,274z"/>
	<path class="st0" d="M-409.9,274l-26,26L-409.9,274z"/>
	<path class="st0" d="M-409.9,274l-26,26L-409.9,274z"/>
	<path class="st0" d="M-409.9,274l-26,26L-409.9,274z"/>
	<path class="st0" d="M-409.9,274l-26,26L-409.9,274z"/>
	<path class="st0" d="M-409.9,274l-26,26L-409.9,274z"/>
	<path class="st0" d="M-409.9,274l-26,26L-409.9,274z"/>
	<path class="st0" d="M-409.9,274l-26,26L-409.9,274z"/>
	<path class="st0" d="M-401,281.8l-18.2,18.2h-16.7l26-26h8.9V281.8z"/>
	<path class="st0" d="M-401,281.8l-18.2,18.2L-401,281.8z"/>
</g>
<path class="st49" d="M-401,281.8l-18.2,18.2L-401,281.8z"/>
<path class="st48" d="M-401,281.8l-18.2,18.2L-401,281.8z"/>
<path class="st47" d="M-401,281.8l-18.2,18.2L-401,281.8z"/>
<path class="st46" d="M-401,281.8l-18.2,18.2L-401,281.8z"/>
<path class="st3" d="M-401,281.8l-18.2,18.2L-401,281.8z"/>
<path class="st45" d="M-401,281.8l-18.2,18.2L-401,281.8z"/>
<path class="st44" d="M-401,281.8l-18.2,18.2L-401,281.8z"/>
<path class="st43" d="M-401,281.8l-18.2,18.2L-401,281.8z"/>
<path class="st4" d="M-401,281.8l-18.2,18.2L-401,281.8z"/>
<path class="st42" d="M-401,281.8l-18.2,18.2L-401,281.8z"/>
<path class="st41" d="M-401,281.8l-18.2,18.2L-401,281.8z"/>
<path class="st40" d="M-401,281.8l-18.2,18.2L-401,281.8z"/>
<path class="st5" d="M-401,281.8l-18.2,18.2L-401,281.8z"/>
<path class="st39" d="M-401,281.8l-18.2,18.2L-401,281.8z"/>
<path class="st38" d="M-401,281.8l-18.2,18.2L-401,281.8z"/>
<path class="st37" d="M-401,281.8l-18.2,18.2L-401,281.8z"/>
<path class="st6" d="M-401,281.8l-18.2,18.2L-401,281.8z"/>
<path class="st36" d="M-401,281.8l-18.2,18.2L-401,281.8z"/>
<path class="st35" d="M-401,281.8l-18.2,18.2L-401,281.8z"/>
<path class="st7" d="M-401,281.8l-18.2,18.2L-401,281.8z"/>
<path class="st34" d="M-401,281.8l-18.2,18.2L-401,281.8z"/>
<path class="st33" d="M-401,281.8l-18.2,18.2L-401,281.8z"/>
<path class="st32" d="M-401,281.8l-18.2,18.2L-401,281.8z"/>
<path class="st31" d="M-401,281.8l-18.2,18.2L-401,281.8z"/>
<path class="st9" d="M-401,281.8l-18.2,18.2L-401,281.8z"/>
<path class="st30" d="M-401,281.8l-18.2,18.2L-401,281.8z"/>
<path class="st10" d="M-401,281.8l-18.2,18.2L-401,281.8z"/>
<path class="st29" d="M-401,281.8l-18.2,18.2L-401,281.8z"/>
<path class="st28" d="M-401,281.8l-18.2,18.2L-401,281.8z"/>
<path class="st27" d="M-401,281.8l-18.2,18.2L-401,281.8z"/>
<path class="st26" d="M-401,281.9l-18.1,18.1h-0.1L-401,281.9L-401,281.9z"/>
<path class="st25" d="M-401,281.9l-18.1,18.1L-401,281.9z"/>
<path class="st13" d="M-401,281.9l-18.1,18.1L-401,281.9z"/>
<path class="st14" d="M-401,281.9l-18.1,18.1L-401,281.9z"/>
<path class="st24" d="M-401,281.9l-18.1,18.1L-401,281.9z"/>
<path class="st15" d="M-401,281.9l-18.1,18.1L-401,281.9z"/>
<path class="st16" d="M-401,281.9l-18.1,18.1L-401,281.9z"/>
<path class="st17" d="M-401,281.9l-18.1,18.1L-401,281.9z"/>
<path class="st18" d="M-401,281.9l-18.1,18.1L-401,281.9z"/>
<path class="st19" d="M-401,281.9l-18.1,18.1L-401,281.9z"/>
<path class="st20" d="M-401,281.9l-18.1,18.1L-401,281.9z"/>
<path class="st22" d="M-401,281.9l-18.1,18.1L-401,281.9z"/>
<path class="st23" d="M-401,281.9l-18.1,18.1L-401,281.9z"/>
<path class="st23" d="M-401,289.5l-10.5,10.5h-7.6l18.1-18.1V289.5z"/>
<path class="st23" d="M-401,289.5l-10.5,10.5L-401,289.5z"/>
<path class="st22" d="M-401,289.5l-10.5,10.5L-401,289.5z"/>
<path class="st20" d="M-401,289.5l-10.5,10.5L-401,289.5z"/>
<path class="st19" d="M-401,289.5l-10.5,10.5L-401,289.5z"/>
<path class="st18" d="M-401,289.5l-10.5,10.5L-401,289.5z"/>
<path class="st17" d="M-401,289.5l-10.5,10.5L-401,289.5z"/>
<path class="st16" d="M-401,289.5l-10.5,10.5L-401,289.5z"/>
<path class="st15" d="M-401,289.5l-10.5,10.5L-401,289.5z"/>
<path class="st24" d="M-401,289.5l-10.5,10.5L-401,289.5z"/>
<path class="st14" d="M-401,289.5l-10.5,10.5L-401,289.5z"/>
<path class="st13" d="M-401,289.5l-10.5,10.5L-401,289.5z"/>
<path class="st25" d="M-401,289.5l-10.5,10.5L-401,289.5z"/>
<path class="st26" d="M-401,289.5l-10.5,10.5L-401,289.5z"/>
<path class="st27" d="M-401,289.5l-10.5,10.5L-401,289.5z"/>
<path class="st28" d="M-401,289.5l-10.5,10.5L-401,289.5z"/>
<path class="st29" d="M-401,289.5l-10.5,10.5L-401,289.5z"/>
<path class="st10" d="M-401,289.5l-10.5,10.5L-401,289.5z"/>
<path class="st30" d="M-401,289.5l-10.5,10.5L-401,289.5z"/>
<path class="st9" d="M-401,289.5l-10.5,10.5L-401,289.5z"/>
<path class="st31" d="M-401,289.5l-10.5,10.5L-401,289.5z"/>
<path class="st32" d="M-401,289.5l-10.5,10.5L-401,289.5z"/>
<path class="st33" d="M-401,289.5l-10.5,10.5L-401,289.5z"/>
<path class="st34" d="M-401,289.5l-10.5,10.5L-401,289.5z"/>
<path class="st7" d="M-401,289.5l-10.5,10.5L-401,289.5z"/>
<path class="st35" d="M-401,289.5l-10.5,10.5L-401,289.5z"/>
<path class="st36" d="M-401,289.5l-10.5,10.5L-401,289.5z"/>
<path class="st6" d="M-401,289.5l-10.5,10.5L-401,289.5z"/>
<path class="st37" d="M-401,289.5l-10.5,10.5L-401,289.5z"/>
<path class="st38" d="M-401,289.5l-10.5,10.5L-401,289.5z"/>
<path class="st39" d="M-401,289.5l-10.5,10.5L-401,289.5z"/>
<path class="st5" d="M-401,289.5l-10.5,10.5L-401,289.5z"/>
<path class="st40" d="M-401,289.6l-10.4,10.4h-0.1l10.5-10.5V289.6z"/>
<path class="st41" d="M-401,289.6l-10.4,10.4L-401,289.6z"/>
<path class="st42" d="M-401,289.6l-10.4,10.4L-401,289.6z"/>
<path class="st4" d="M-401,289.6l-10.4,10.4L-401,289.6z"/>
<path class="st43" d="M-401,289.6l-10.4,10.4L-401,289.6z"/>
<path class="st44" d="M-401,289.6l-10.4,10.4L-401,289.6z"/>
<path class="st45" d="M-401,289.6l-10.4,10.4L-401,289.6z"/>
<path class="st3" d="M-401,289.6l-10.4,10.4L-401,289.6z"/>
<path class="st46" d="M-401,289.6l-10.4,10.4L-401,289.6z"/>
<path class="st47" d="M-401,289.6l-10.4,10.4L-401,289.6z"/>
<path class="st48" d="M-401,289.6l-10.4,10.4L-401,289.6z"/>
<path class="st49" d="M-401,289.6l-10.4,10.4L-401,289.6z"/>
<path class="st2" d="M-401,289.6l-10.4,10.4L-401,289.6z"/>
<path class="st0" d="M-411.4,300l10.4-10.4V300H-411.4z"/>
<path class="st0" d="M-398,304v3c0,0.8-0.3,1.6-0.9,2.1c-0.6,0.5-1.3,0.9-2.1,0.9h-44c-0.8,0-1.6-0.3-2.1-0.9
	c-0.5-0.6-0.9-1.3-0.9-2.1v-3h17c0.6,0,1,0.4,1,1s0.4,1,1,1h12c0.6,0,1-0.4,1-1s0.4-1,1-1H-398z"/>
<path class="st1" d="M-401,304v3c0,0.8-0.3,1.6-0.9,2.1c-0.6,0.5-1.3,0.9-2.1,0.9h-41c-0.8,0-1.6-0.3-2.1-0.9
	c-0.5-0.6-0.9-1.3-0.9-2.1v-3h17c0.6,0,1,0.4,1,1s0.4,1,1,1h12c0.6,0,1-0.4,1-1s0.4-1,1-1H-401z"/>
<path class="st0" d="M-433,280c-0.5,0-1,0.1-1.5,0.2c-3.2,0.7-5.5,3.5-5.5,6.8s2.3,6.1,5.5,6.8c0.5,0.1,1,0.2,1.5,0.2
	c3.9,0,7-3.1,7-7S-429.1,280-433,280z M-433,284c1.7,0,3,1.3,3,3s-1.3,3-3,3c-0.5,0-1-0.1-1.5-0.4c-0.8-0.5-1.4-1.3-1.5-2.2
	c-0.1-0.9,0.2-1.9,0.9-2.5c0.2-0.2,0.4-0.3,0.6-0.5C-434,284.1-433.5,284-433,284z"/>
<path class="st1" d="M-434.5,280.2c-3.2,0.7-5.5,3.5-5.5,6.8s2.3,6.1,5.5,6.8c3.2-0.7,5.5-3.6,5.5-6.8S-431.3,280.9-434.5,280.2z
	 M-436,286c0.5-0.5-0.8-2,0-2c0.5,0,1,0.1,1.5,0.4c0.5-0.3,1-0.4,1.5-0.4c1.7,0,3,1.3,3,3s-1.3,3-3,3c-0.5,0-1-0.1-1.5-0.4
	c-0.4,0.3-1-0.6-1.5-0.6V286z"/>
<path class="st0" d="M-417,252h24c1.7,0,3,1.3,3,3v2c0,1.7-1.3,3-3,3h-24c-1.7,0-3-1.3-3-3v-2C-420,253.3-418.7,252-417,252z"/>
<path class="st1" d="M-417,252h21c1.7,0,3,1.3,3,3v2c0,1.7-1.3,3-3,3h-21c-1.7,0-3-1.3-3-3v-2C-420,253.3-418.7,252-417,252z"/>
<path class="st0" d="M-417,286h24c1.7,0,3,1.3,3,3v2c0,1.7-1.3,3-3,3h-24c-1.7,0-3-1.3-3-3v-2C-420,287.3-418.7,286-417,286z"/>
<path class="st1" d="M-417,286h21c1.7,0,3,1.3,3,3v2c0,1.7-1.3,3-3,3h-21c-1.7,0-3-1.3-3-3v-2C-420,287.3-418.7,286-417,286z"/>
<path class="st54" d="M-442,300v-26c0-1.1,0.4-2.1,1.2-2.8c0.7-0.8,1.7-1.2,2.8-1.2h-3c-1.1,0-2.1,0.4-2.8,1.2
	c-0.8,0.7-1.2,1.7-1.2,2.8v30h3V300z"/>
<path class="st54" d="M-445,310h3c-0.8,0-1.6-0.3-2.1-0.9c-0.5-0.6-0.9-1.3-0.9-2.1v-3h-3v3c0,0.8,0.3,1.6,0.9,2.1
	C-446.5,309.6-445.8,310-445,310z"/>
<path class="st54" d="M-446,300v-26h2v26H-446z"/>
<path class="st55" d="M-433,295c-4.4,0-8-3.6-8-8s3.6-8,8-8c2.1,0,4.2,0.8,5.7,2.3s2.3,3.6,2.3,5.7C-425,291.4-428.6,295-433,295z
	 M-433,281c-3.3,0-6,2.7-6,6s2.7,6,6,6s6-2.7,6-6c0-1.6-0.6-3.1-1.7-4.3C-429.9,281.6-431.4,281-433,281z M-433,291
	c-2.2,0-4-1.8-4-4s1.8-4,4-4s4,1.8,4,4S-430.8,291-433,291z M-433,285c-1.1,0-2,0.9-2,2s0.9,2,2,2s2-0.9,2-2S-431.9,285-433,285z"/>
<path class="st55" d="M-445.4,292.9c0.1,0,0.1,0,0.2,0.1h0.2c0.3,0,0.5-0.1,0.7-0.3c0.3-0.2,0.4-0.6,0.3-0.9s-0.3-0.6-0.6-0.7
	c-0.1-0.1-0.3-0.1-0.4-0.1c-0.4,0-0.8,0.2-0.9,0.6c-0.2,0.4-0.1,0.8,0.2,1.1l0.2,0.1C-445.5,292.9-445.4,292.9-445.4,292.9z"/>
<path class="st55" d="M-445,311h44c2.2,0,4-1.8,4-4v-3c0-0.6-0.4-1-1-1h-2v-8h7c2.2,0,4-1.8,4-4v-2c0-2.2-1.8-4-4-4h-7v-11
	c0-2.8-2.2-5-5-5h-11.6l2.3-2.3c0.2-0.2,0.3-0.4,0.3-0.7v-5h21c2.2,0,4-1.8,4-4v-2c0-2.2-1.8-4-4-4h-24c-2.2,0-4,1.8-4,4v2
	c0,2.2,1.8,4,4,4h1v4.6l-3.4,3.4H-441c-2.8,0-5,2.2-5,5v14c0,0.6,0.4,1,1,1s1-0.4,1-1v-13h2c0.6,0,1-0.4,1-1s-0.4-1-1-1h-1.8
	c0.4-1.2,1.5-2,2.8-2h19.6l-2,2H-437c-0.6,0-1,0.4-1,1s0.4,1,1,1h11.6l-5.3,5.3c-0.3,0.3-0.4,0.6-0.3,1c0.1,0.3,0.4,0.6,0.7,0.7
	s0.7,0,1-0.3l6.7-6.7h20.6v10h-15c-2.2,0-4,1.8-4,4h-6c-0.6,0-1,0.4-1,1s0.4,1,1,1h6c0,2.2,1.8,4,4,4h15v4h-2c-0.6,0-1,0.4-1,1
	s0.4,1,1,1h2v2h-13c-1.1,0-2,0.9-2,2h-12c0-1.1-0.9-2-2-2h-13v-2h35c0.6,0,1-0.4,1-1s-0.4-1-1-1h-35v-3c0-0.6-0.4-1-1-1s-1,0.4-1,1
	v7h-2c-0.6,0-1,0.4-1,1v3C-449,309.2-447.2,311-445,311z M-419,257v-2c0-1.1,0.9-2,2-2h24c1.1,0,2,0.9,2,2v2c0,1.1-0.9,2-2,2h-24
	C-418.1,259-419,258.1-419,257z M-418.6,271h13.6c1.3,0,2.4,0.8,2.8,2h-18.4L-418.6,271z M-419,291v-2c0-1.1,0.9-2,2-2h24
	c1.1,0,2,0.9,2,2v2c0,1.1-0.9,2-2,2h-24C-418.1,293-419,292.1-419,291z M-447,305h16c0,1.1,0.9,2,2,2h12c1.1,0,2-0.9,2-2h16v2
	c0,1.1-0.9,2-2,2h-44c-1.1,0-2-0.9-2-2V305z"/>
<path class="st55" d="M-426,288c0.6,0,1-0.4,1-1s-0.4-1-1-1h-4c-0.6,0-1,0.4-1,1s0.4,1,1,1H-426z"/>
<path class="st55" d="M-435.1,285.9c0.4,0,0.8-0.2,0.9-0.6c0.2-0.4,0.1-0.8-0.2-1.1l-2.8-2.8c-0.3-0.3-0.6-0.4-1-0.3
	c-0.3,0.1-0.6,0.4-0.7,0.7c-0.1,0.3,0,0.7,0.3,1l2.8,2.8C-435.6,285.8-435.4,285.9-435.1,285.9z"/>
<path class="st55" d="M-415.3,255.3c-0.3-0.3-0.7-0.4-1.1-0.2c-0.4,0.1-0.6,0.5-0.6,0.9c0,0.5,0.3,0.8,0.7,1
	c0.4,0.1,0.9-0.1,1.1-0.5C-414.9,256.1-415,255.6-415.3,255.3z"/>
<path class="st55" d="M-412,257c0.3,0,0.5-0.1,0.7-0.3s0.3-0.4,0.3-0.7c0-0.5-0.3-0.8-0.7-1c-0.4-0.1-0.9,0.1-1.1,0.5
	s-0.2,0.9,0.2,1.2C-412.5,256.9-412.3,257-412,257z"/>
<path class="st55" d="M-416.7,289.3c-0.4,0.4-0.4,1,0,1.4c0.4,0.4,1,0.4,1.4,0c0.4-0.4,0.4-1,0-1.4
	C-415.7,288.9-416.3,288.9-416.7,289.3z"/>
<path class="st55" d="M-412.7,289.3c-0.4,0.4-0.4,1,0,1.4c0.4,0.4,1,0.4,1.4,0c0.4-0.4,0.4-1,0-1.4
	C-411.7,288.9-412.3,288.9-412.7,289.3z"/>
<path class="st55" d="M-442,257c0.6,0,1-0.4,1-1v-1c0-0.6-0.4-1-1-1s-1,0.4-1,1v1C-443,256.6-442.6,257-442,257z"/>
<path class="st55" d="M-442,259c-0.6,0-1,0.4-1,1v1c0,0.6,0.4,1,1,1s1-0.4,1-1v-1C-441,259.4-441.4,259-442,259z"/>
<path class="st55" d="M-445,259h1c0.6,0,1-0.4,1-1s-0.4-1-1-1h-1c-0.6,0-1,0.4-1,1S-445.6,259-445,259z"/>
<path class="st55" d="M-440,259h1c0.6,0,1-0.4,1-1s-0.4-1-1-1h-1c-0.6,0-1,0.4-1,1S-440.6,259-440,259z"/>
<path class="st55" d="M-393,266c-2.2,0-4,1.8-4,4s1.8,4,4,4s4-1.8,4-4S-390.8,266-393,266z M-393,272c-1.1,0-2-0.9-2-2s0.9-2,2-2
	s2,0.9,2,2S-391.9,272-393,272z"/>
</svg>
